<?xml version="1.0" standalone="no"?>
<!DOCTYPE svg PUBLIC "-//W3C//DTD SVG 1.1//EN" "http://www.w3.org/Graphics/SVG/1.1/DTD/svg11.dtd" >
<svg xmlns="http://www.w3.org/2000/svg">
<metadata></metadata>
<defs>
<font id="452-CAI978Regular" horiz-adv-x="1024" >
<font-face units-per-em="2048" ascent="1556" descent="-492" />
<missing-glyph horiz-adv-x="512" />
<glyph horiz-adv-x="0" />
<glyph horiz-adv-x="2048" />
<glyph unicode=" "  horiz-adv-x="512" />
<glyph unicode="&#x09;" horiz-adv-x="512" />
<glyph unicode="&#xa0;" horiz-adv-x="512" />
<glyph unicode="!" horiz-adv-x="526" d="M94 0v365h338v-365h-338zM94 905v735h338v-735l-80 -440h-182z" />
<glyph unicode="&#x22;" horiz-adv-x="713" d="M76 877v561h219v-561h-219zM416 877v561h223v-561h-223z" />
<glyph unicode="#" horiz-adv-x="1575" d="M23 381l86 231h270l82 230h-283l86 231h279l141 393h250l-139 -393h235l141 393h250l-139 -393h270l-86 -231h-268l-80 -230h277l-84 -231h-275l-141 -393h-250l139 393h-235l-141 -393h-250l139 393h-274zM625 610h245l82 232h-245z" />
<glyph unicode="$" d="M61 449v118h334v-129q0 -79 27.5 -118t83.5 -39q49 0 79.5 35.5t30.5 93.5q0 50 -29 99t-91 101q-23 20 -68 56q-165 138 -229 206q-59 66 -89 148.5t-30 179.5q0 141 59.5 238.5t175.5 148.5v166h144v-133q8 0 27.5 1t31.5 1q14 0 26 -0.5t25 -1.5v133h144v-164 q110 -38 165.5 -130.5t55.5 -239.5v-132h-320v109q0 77 -25.5 112t-80.5 35q-45 0 -71.5 -31t-26.5 -83q0 -86 216 -277l13 -12q14 -13 42 -37q271 -239 271 -471q0 -145 -61.5 -247t-177.5 -150v-234h-144v203q-32 -2 -49.5 -3t-32.5 -1h-28v-199h-144v230 q-126 38 -190 143.5t-64 274.5z" />
<glyph unicode="%" horiz-adv-x="1532" d="M78 1102v215q0 168 69.5 245.5t217.5 77.5q147 0 215.5 -77.5t68.5 -245.5v-215q0 -168 -68.5 -246t-215.5 -78q-148 0 -217.5 78t-69.5 246zM254 -18l850 1658h174l-848 -1658h-176zM309 1026q0 -32 14.5 -48.5t41.5 -16.5q26 0 39.5 16.5t13.5 48.5v369q0 32 -14 49.5 t-39 17.5q-27 0 -41.5 -17.5t-14.5 -49.5v-369zM883 303v217q0 167 69 244.5t217 77.5t216.5 -77t68.5 -245v-217q0 -168 -68.5 -244.5t-216.5 -76.5t-217 77t-69 244zM1114 227q0 -31 14.5 -48t40.5 -17q27 0 40.5 16.5t13.5 48.5v369q0 32 -13.5 49t-40.5 17 q-26 0 -40.5 -17t-14.5 -49v-369z" />
<glyph unicode="&#x26;" horiz-adv-x="1192" d="M35 436q0 153 68 280.5t210 239.5q-68 117 -97.5 201t-29.5 162q0 155 106 251.5t277 96.5q164 0 258.5 -87t94.5 -239q0 -119 -60 -227.5t-176 -198.5l143 -258q27 44 43 109t25 164h285q-11 -181 -58.5 -323.5t-132.5 -250.5l193 -356h-365l-51 102q-67 -63 -146.5 -95 t-172.5 -32q-183 0 -298.5 129t-115.5 332zM356 471q0 -87 41.5 -141t108.5 -54q33 0 65 16t68 50l-182 346q-51 -44 -76 -98t-25 -119zM489 1339q0 -34 16 -77.5t48 -98.5q48 41 73 85t25 87q0 41 -20.5 62.5t-61.5 21.5q-34 0 -57 -22.5t-23 -57.5z" />
<glyph unicode="'" horiz-adv-x="371" d="M76 877v561h219v-561h-219z" />
<glyph unicode="(" horiz-adv-x="668" d="M141 434v643q0 248 119.5 398t335.5 174v-185q-67 -12 -104 -78t-37 -174v-886q0 -173 32 -249t109 -91v-183q-232 29 -343.5 183.5t-111.5 447.5z" />
<glyph unicode=")" horiz-adv-x="668" d="M72 -14q76 15 108.5 91t32.5 249v886q0 108 -37 174t-104 78v185q215 -24 334.5 -174t119.5 -398v-643q0 -293 -111 -447.5t-343 -183.5v183z" />
<glyph unicode="*" horiz-adv-x="768" d="M63 1169l191 134l-188 135l84 118l159 -110v194h152v-192l157 111l87 -125l-189 -134l189 -131l-84 -122l-160 112v-198h-152v194l-157 -111z" />
<glyph unicode="+" horiz-adv-x="1706" d="M254 496v231h481v494h238v-494h479v-231h-479v-496h-238v496h-481z" />
<glyph unicode="," horiz-adv-x="512" d="M90 0v373h332v-305q0 -87 -37 -161.5t-115 -144.5h-180q73 65 114.5 124t53.5 114h-168z" />
<glyph unicode="-" horiz-adv-x="668" d="M68 518v313h532v-313h-532z" />
<glyph unicode="." horiz-adv-x="512" d="M90 0v389h332v-389h-332z" />
<glyph unicode="/" horiz-adv-x="569" d="M-76 -190l547 1853h170l-551 -1853h-166z" />
<glyph unicode="0" d="M78 403v816q0 212 108 316.5t326 104.5t326 -104.5t108 -316.5v-816q0 -212 -108 -316.5t-326 -104.5t-326 104.5t-108 316.5zM438 365q0 -50 18.5 -74.5t55.5 -24.5t55.5 24.5t18.5 74.5v892q0 50 -18.5 74.5t-55.5 24.5t-55.5 -24.5t-18.5 -74.5v-892z" />
<glyph unicode="1" d="M162 1210v248h6q98 0 173 42t120 122h307v-1622h-356v1221q-59 -6 -88 -8.5t-45 -2.5h-117z" />
<glyph unicode="2" d="M41 0v45q0 197 45 340t145 268q58 73 171 185q194 193 194 321v72q0 60 -20.5 88.5t-63.5 28.5q-51 0 -75.5 -41.5t-24.5 -128.5v-129h-338v139q0 216 117 334t331 118q215 0 325.5 -109.5t110.5 -322.5q0 -247 -266 -525l-28 -30q-138 -144 -189 -215.5t-65 -130.5h538 v-307h-907z" />
<glyph unicode="3" d="M53 430v121h350v-111q0 -105 21 -137.5t76 -32.5q47 0 70.5 37t23.5 111v110q0 103 -50 153t-153 50h-24v258h10q109 0 156 38.5t47 127.5v88q0 60 -20 89.5t-60 29.5q-46 0 -69 -35.5t-23 -105.5v-91h-342v99q0 202 114.5 306.5t335.5 104.5q197 0 308.5 -96.5 t111.5 -267.5v-131q0 -98 -44 -164t-134 -102q106 -44 151 -115t45 -197v-151q0 -210 -119.5 -322t-342.5 -112q-219 0 -329 112t-110 336z" />
<glyph unicode="4" d="M45 315v332q95 175 155 420t85 555h383q-37 -259 -139.5 -513t-272.5 -505h256v221q80 108 134 225.5t79 239.5h137v-686h123v-289h-123v-315h-350v315h-467z" />
<glyph unicode="5" d="M59 444v95h353v-133q0 -70 23 -105t69 -35q44 0 66 28.5t22 84.5v342q0 69 -19.5 100t-62.5 31q-41 0 -65.5 -29t-28.5 -84h-316v883h820v-299h-527v-250q46 39 102.5 58.5t120.5 19.5q168 0 256.5 -114t88.5 -330v-195q0 -284 -110 -407t-357 -123q-221 0 -328 113.5 t-107 348.5z" />
<glyph unicode="6" d="M78 403v816q0 212 108 316.5t326 104.5q210 0 322 -102.5t112 -294.5v-20h-350v34q0 52 -20.5 76.5t-63.5 24.5t-63.5 -24t-20.5 -77v-206q43 36 96.5 54.5t116.5 18.5q150 0 227.5 -90.5t77.5 -267.5v-363q0 -212 -108 -316.5t-326 -104.5t-326 104.5t-108 316.5z M428 365q0 -52 21 -77.5t63 -25.5q43 0 63.5 25t20.5 78v393q0 51 -21 76.5t-63 25.5q-43 0 -63.5 -25t-20.5 -77v-393z" />
<glyph unicode="7" d="M31 1317v305h936v-285q-162 -236 -256 -576t-113 -761h-389q15 318 113 642t286 675h-577z" />
<glyph unicode="8" d="M74 403v134q0 144 39.5 224.5t128.5 117.5q-79 33 -118.5 98.5t-39.5 161.5v80q0 212 106.5 316.5t321.5 104.5t322.5 -105t107.5 -316v-80q0 -103 -46 -169t-136 -91q100 -26 145 -106t45 -236v-134q0 -212 -108.5 -316.5t-329.5 -104.5q-220 0 -329 105t-109 316z M428 365q0 -52 20.5 -76.5t63.5 -24.5t63.5 24.5t20.5 76.5v274q0 51 -20.5 75.5t-63.5 24.5q-44 0 -64 -23.5t-20 -76.5v-274zM428 1106q0 -51 20.5 -75.5t63.5 -24.5t63.5 24t20.5 76v151q0 52 -20.5 76.5t-63.5 24.5q-44 0 -64 -23.5t-20 -77.5v-151z" />
<glyph unicode="9" d="M78 377v20h350v-32q0 -52 21 -77.5t63 -25.5q43 0 63.5 25t20.5 78v206q-45 -37 -98.5 -56t-114.5 -19q-150 0 -227.5 91.5t-77.5 268.5v363q0 212 108 316.5t326 104.5t326 -104.5t108 -316.5v-816q0 -212 -108 -316.5t-326 -104.5q-211 0 -322.5 101.5t-111.5 293.5z M428 864q0 -51 21 -76.5t63 -25.5q43 0 63.5 25t20.5 77v393q0 52 -20.5 76.5t-63.5 24.5t-63.5 -24t-20.5 -77v-393z" />
<glyph unicode=":" horiz-adv-x="512" d="M90 0v373h332v-373h-332zM90 823v373h332v-373h-332z" />
<glyph unicode=";" horiz-adv-x="512" d="M90 0v373h332v-305q0 -87 -37 -161.5t-115 -144.5h-180q73 65 114.5 124t53.5 114h-168zM90 823v373h332v-373h-332z" />
<glyph unicode="&#x3c;" horiz-adv-x="1706" d="M264 494v233l1178 487v-253l-854 -351l854 -348v-254z" />
<glyph unicode="=" horiz-adv-x="1706" d="M254 272v230h1198v-230h-1198zM254 719v231h1198v-231h-1198z" />
<glyph unicode="&#x3e;" horiz-adv-x="1706" d="M264 8v254l854 348l-854 351v253l1178 -487v-233z" />
<glyph unicode="?" horiz-adv-x="967" d="M39 1128v103q0 196 126.5 315t334.5 119q193 0 312.5 -108t119.5 -283q0 -74 -22.5 -141.5t-65.5 -124.5q-45 -58 -124.5 -143t-105.5 -120q-57 -76 -78.5 -136.5t-21.5 -135.5v-10h-266v74q0 107 34.5 201.5t110.5 193.5q19 24 56 68q131 156 131 268q0 69 -27.5 105 t-79.5 36q-50 0 -80.5 -46.5t-30.5 -125.5v-109h-323zM229 0v365h318v-365h-318z" />
<glyph unicode="@" horiz-adv-x="2048" d="M82 520q0 169 53 320.5t156 277.5q148 183 359.5 278t467.5 95q170 0 320 -46t260 -132q136 -107 203 -243t67 -306q0 -167 -65.5 -307t-190.5 -240q-69 -56 -154 -85.5t-176 -29.5q-106 0 -161 40t-60 120q-56 -82 -126.5 -120t-168.5 -38q-163 0 -247 87.5t-84 257.5 q0 241 141.5 404t349.5 163q77 0 134 -30.5t95 -92.5l52 92h206l-153 -610q0 -2 -1 -6q-3 -18 -3 -27q0 -30 16 -44.5t47 -14.5q137 0 240.5 143.5t103.5 335.5q0 239 -179.5 390t-467.5 151q-148 0 -274 -36.5t-230 -109.5q-155 -110 -239 -274.5t-84 -356.5 q0 -302 203 -481.5t544 -179.5q164 0 316 47.5t280 138.5l97 -135q-156 -117 -329 -175t-364 -58q-192 0 -354.5 49t-288.5 145q-157 122 -234 281.5t-77 361.5zM778 444q0 -83 35 -128.5t98 -45.5q84 0 148 59t88 158l51 209q-9 76 -50 116t-110 40q-103 0 -181.5 -121.5 t-78.5 -286.5z" />
<glyph unicode="A" horiz-adv-x="1100" d="M4 0l303 1640h498l299 -1640h-395l-37 295h-256l-37 -295h-375zM459 592h178l-57 501q-6 50 -11.5 107.5t-15.5 173.5q-6 -66 -14 -137t-17 -146z" />
<glyph unicode="B" horiz-adv-x="1104" d="M94 0v1640h481q218 0 326.5 -83.5t108.5 -251.5v-127q0 -119 -45.5 -193t-145.5 -117q118 -38 171.5 -112t53.5 -197v-143q0 -212 -118 -314t-363 -102h-469zM461 275q129 3 171 37.5t42 133.5v109q0 96 -46 134t-167 38v-452zM461 985q113 4 153.5 36t40.5 112v102 q0 71 -41.5 99t-152.5 28v-377z" />
<glyph unicode="C" horiz-adv-x="1133" d="M78 483v674q0 252 123 379t366 127q245 0 366.5 -126t121.5 -380v-127h-375v187q0 80 -27.5 116.5t-87.5 36.5q-58 0 -85 -36.5t-27 -116.5v-795q0 -80 27 -116t87 -36q59 0 86 36t27 116v225h375v-164q0 -253 -122 -380.5t-366 -127.5q-242 0 -365.5 128t-123.5 380z " />
<glyph unicode="D" horiz-adv-x="1135" d="M94 0v1640h459q297 0 400.5 -95.5t103.5 -348.5v-754q0 -135 -31.5 -215t-103.5 -139q-60 -48 -146 -68t-289 -20h-53h-340zM465 281h47q108 0 139 31.5t31 121.5v772q0 90 -31 122t-139 32h-47v-1079z" />
<glyph unicode="E" horiz-adv-x="985" d="M94 0v1640h830v-317h-459v-326h405v-313h-405v-367h473v-317h-844z" />
<glyph unicode="F" horiz-adv-x="924" d="M94 0v1640h785v-317h-414v-326h371v-313h-371v-684h-371z" />
<glyph unicode="G" horiz-adv-x="1143" d="M78 483v674q0 252 123 379t366 127q245 0 366.5 -126t121.5 -380v-78h-375v138q0 80 -27.5 116.5t-87.5 36.5q-58 0 -85 -36.5t-27 -116.5v-795q0 -80 27 -116t87 -36q59 0 86 36t27 116v184h-127v301h502v-907h-342l-2 127q-55 -74 -131 -113t-168 -39 q-165 0 -249.5 128.5t-84.5 379.5z" />
<glyph unicode="H" horiz-adv-x="1147" d="M94 0v1640h371v-606h217v606h371v-1640h-371v715h-217v-715h-371z" />
<glyph unicode="I" horiz-adv-x="559" d="M94 0v1640h371v-1640h-371z" />
<glyph unicode="J" horiz-adv-x="1040" d="M33 483v127h368v-198q0 -72 20.5 -107t61.5 -35q47 0 67.5 33t20.5 109v1228h375v-1157q0 -253 -116.5 -380.5t-348.5 -127.5q-222 0 -335 128.5t-113 379.5z" />
<glyph unicode="K" horiz-adv-x="1067" d="M94 0v1640h367v-712q4 40 13 78t22 73l209 561h393l-334 -686l336 -954h-389l-174 608l-76 -147v-461h-367z" />
<glyph unicode="L" horiz-adv-x="883" d="M94 0v1640h371v-1318h405v-322h-776z" />
<glyph unicode="M" horiz-adv-x="1565" d="M94 0v1640h570l75 -520q14 -98 24 -206t17 -234q10 144 20 255t19 170l84 535h567v-1640h-356v600q0 188 2.5 388t7.5 410q-33 -213 -56 -357t-30 -185l-141 -856h-233l-140 819q-29 175 -49.5 314t-36.5 266q7 -187 10 -379t3 -414v-606h-357z" />
<glyph unicode="N" horiz-adv-x="1247" d="M94 0v1640h416l192 -665q33 -110 62.5 -227t58.5 -248q-17 123 -24.5 246.5t-7.5 285.5v608h360v-1640h-401l-213 705q-34 111 -62.5 229t-52.5 248q16 -184 24.5 -347t8.5 -303v-532h-361z" />
<glyph unicode="O" horiz-adv-x="1133" d="M78 483v674q0 252 123 379t366 127q245 0 366.5 -126t121.5 -380v-674q0 -253 -122 -380.5t-366 -127.5q-242 0 -365.5 128t-123.5 380zM453 422q0 -80 27 -116t87 -36q59 0 86 36t27 116v795q0 80 -27.5 116.5t-87.5 36.5q-58 0 -85 -36.5t-27 -116.5v-795z" />
<glyph unicode="P" horiz-adv-x="1110" d="M94 0v1640h527q224 0 334 -103t110 -312v-160q0 -200 -102.5 -308t-292.5 -108h-205v-649h-371zM465 942q8 -1 18 -1.5t29 -0.5q97 0 138.5 36t41.5 118v96q0 87 -42.5 122.5t-149.5 35.5h-35v-406z" />
<glyph unicode="Q" horiz-adv-x="1133" d="M78 483v674q0 252 123 379t366 127q245 0 366.5 -126t121.5 -380v-674q0 -175 -49.5 -278t-161.5 -166l143 -229l-307 -39l-125 206q-240 5 -358.5 130.5t-118.5 375.5zM453 422q0 -80 27 -116t87 -36q59 0 86 36t27 116v795q0 80 -27.5 116.5t-87.5 36.5 q-58 0 -85 -36.5t-27 -116.5v-795z" />
<glyph unicode="R" horiz-adv-x="1124" d="M94 0v1640h531q206 0 309.5 -87.5t103.5 -262.5v-16v-94q0 -128 -47.5 -201.5t-154.5 -114.5q107 -33 154.5 -105.5t47.5 -205.5v-379q0 -66 8.5 -105.5t26.5 -68.5h-375q-14 26 -20 67.5t-6 120.5v316q0 134 -42 173.5t-169 41.5v-719h-367zM461 979q123 4 167 35 t44 110v93q0 82 -41.5 113.5t-155.5 31.5h-14v-383z" />
<glyph unicode="S" horiz-adv-x="1067" d="M45 444v123h367v-133q0 -83 29.5 -123.5t90.5 -40.5q56 0 89.5 37t33.5 96q0 52 -31.5 103t-95.5 102q-28 23 -84 66q-180 139 -249 211q-64 65 -96.5 152t-32.5 190q0 206 126.5 321t354.5 115q227 0 342 -104.5t115 -313.5v-135h-351v113q0 79 -28 116t-88 37 q-49 0 -79 -33t-30 -88q0 -92 244 -292l10 -9l28 -23q215 -179 257 -257q28 -52 42.5 -114.5t14.5 -133.5q0 -212 -131.5 -330.5t-368.5 -118.5q-235 0 -357 119.5t-122 347.5z" />
<glyph unicode="T" horiz-adv-x="854" d="M0 1323v317h854v-317h-242v-1323h-370v1323h-242z" />
<glyph unicode="U" horiz-adv-x="1145" d="M90 483v1157h371v-1218q0 -81 26 -116.5t84 -35.5q59 0 86 36.5t27 115.5v1218h371v-1157q0 -253 -121 -380.5t-363 -127.5q-239 0 -360 128t-121 380z" />
<glyph unicode="V" horiz-adv-x="967" d="M-14 1640h391l63 -673q4 -50 14 -202.5t21 -352.5q17 206 46 487q5 48 7 70l70 671h383l-266 -1640h-469z" />
<glyph unicode="W" horiz-adv-x="1602" d="M-10 1640h389l70 -655q0 -6 2 -23q31 -272 55 -559q11 184 22.5 337.5t20.5 240.5l76 659h368l74 -651q7 -73 18.5 -234.5t22.5 -350.5q14 217 50 530q5 43 7 63l74 643h379l-281 -1640h-422l-75 696q-6 53 -14.5 182t-16.5 287q-10 -115 -21.5 -231t-25.5 -244l-76 -690 h-416z" />
<glyph unicode="X" d="M-33 0l322 879l-299 761h407l78 -278l4 -13q32 -111 41 -180q9 57 21 108t26 95l84 268h393l-309 -761l328 -879h-404l-108 356q-14 48 -24 95.5t-17 96.5q-9 -68 -39 -173q-3 -10 -4 -15l-105 -360h-395z" />
<glyph unicode="Y" horiz-adv-x="930" d="M-29 1640h394l63 -303q17 -85 26.5 -151t14.5 -131q10 115 40 261l1 3l65 321h383l-303 -968v-672h-370v645z" />
<glyph unicode="Z" horiz-adv-x="981" d="M18 0v309l529 1014h-500v317h911v-309l-528 -1014h524v-317h-936z" />
<glyph unicode="[" horiz-adv-x="668" d="M152 -199v1839h450v-200h-147v-1442h147v-197h-450z" />
<glyph unicode="\" horiz-adv-x="569" d="M-74 1663h172l547 -1853h-166z" />
<glyph unicode="]" horiz-adv-x="668" d="M68 -4h145v1444h-145v200h448v-1839h-448v195z" />
<glyph unicode="^" horiz-adv-x="2048" d="M414 899l465 563h288l465 -563h-264l-344 342l-346 -342h-264z" />
<glyph unicode="_" d="M0 -244h1024v-239h-1024v239z" />
<glyph unicode="`" d="M180 1696h295l199 -285h-144z" />
<glyph unicode="a" horiz-adv-x="997" d="M57 291v104q0 129 59 216.5t185 146.5q23 11 65 30q201 90 201 185v47q0 35 -23 59.5t-57 24.5q-38 0 -61 -34t-23 -93v-82h-323v82q0 171 109 265.5t307 94.5q218 0 316.5 -91t98.5 -298v-948h-323l-6 94q-62 -61 -124 -90t-132 -29q-124 0 -196.5 85.5t-72.5 230.5z M406 311q0 -74 14 -97.5t49 -23.5q47 0 72.5 42.5t25.5 121.5v301q-100 -55 -130.5 -96.5t-30.5 -114.5v-133z" />
<glyph unicode="b" horiz-adv-x="1010" d="M88 0v1640h346v-454q46 74 110.5 112.5t143.5 38.5q126 0 188 -79.5t62 -241.5v-717q0 -162 -62.5 -243t-187.5 -81q-84 0 -154 45t-114 127v-147h-332zM434 444q0 -118 19 -162t63 -44q35 0 52.5 24.5t17.5 75.5v639q0 51 -17.5 75.5t-52.5 24.5q-44 0 -63 -44t-19 -163 v-426z" />
<glyph unicode="c" horiz-adv-x="999" d="M72 385v543q0 206 106 307.5t322 101.5t323 -101.5t107 -307.5v-113h-352v162q0 58 -18.5 83t-59.5 25t-59.5 -25.5t-18.5 -82.5v-641q0 -59 18 -84t60 -25t60 25t18 84v221h352v-172q0 -206 -107 -308t-323 -102t-322 101.5t-106 308.5z" />
<glyph unicode="d" horiz-adv-x="1010" d="M72 299v717q0 162 62 241.5t188 79.5q79 0 143.5 -38.5t109.5 -112.5v454h347v-1640h-332v147q-44 -82 -114.5 -127t-153.5 -45q-126 0 -188 81t-62 243zM424 338q0 -51 17 -75.5t53 -24.5q44 0 62.5 42.5t18.5 163.5v426q0 123 -18 165t-63 42q-36 0 -53 -24.5 t-17 -75.5v-639z" />
<glyph unicode="e" horiz-adv-x="999" d="M72 385v543q0 206 106 307.5t322 101.5t323 -101.5t107 -307.5v-330h-508v-262q0 -59 18 -84t60 -25t60 25t18 84v153h352v-104q0 -206 -107 -308t-323 -102t-322 101.5t-106 308.5zM422 838h156v139q0 58 -18.5 83t-59.5 25t-59.5 -25.5t-18.5 -82.5v-139z" />
<glyph unicode="f" horiz-adv-x="551" d="M14 1042v250h86v23q0 186 65 255.5t232 69.5h138v-237h-9q-52 0 -72 -20t-20 -72v-19h101v-250h-95v-1042h-340v1042h-86z" />
<glyph unicode="g" d="M70 459v557q0 161 62.5 241t189.5 80q83 0 152 -44.5t114 -127.5v148h334v-1120q0 -224 -104.5 -327.5t-328.5 -103.5q-192 0 -294 74t-105 215h330v-6q0 -35 17 -54.5t48 -19.5q50 0 70 36t20 128v154q-45 -75 -109.5 -113.5t-143.5 -38.5q-127 0 -189.5 80.5 t-62.5 241.5zM422 498q0 -50 18 -75.5t54 -25.5q44 0 62.5 42.5t18.5 164.5v266q0 123 -18 165t-63 42q-36 0 -54 -25t-18 -75v-479z" />
<glyph unicode="h" d="M88 0v1640h346v-483q60 94 124.5 137t146.5 43q113 0 173 -82.5t60 -238.5v-1016h-346v911q0 51 -18 77t-54 26q-45 0 -65.5 -35.5t-20.5 -120.5v-858h-346z" />
<glyph unicode="i" horiz-adv-x="530" d="M92 0v1313h346v-1313h-346zM92 1386v254h346v-254h-346z" />
<glyph unicode="j" horiz-adv-x="516" d="M-4 23h45q29 0 40 21.5t11 90.5v1178h346v-1227q0 -171 -62 -247.5t-200 -76.5h-180v261zM92 1386v254h346v-254h-346z" />
<glyph unicode="k" horiz-adv-x="965" d="M88 0v1640h346v-901l191 574h358l-217 -565l223 -748h-360l-195 713v-713h-346z" />
<glyph unicode="l" horiz-adv-x="530" d="M92 0v1640h346v-1640h-346z" />
<glyph unicode="m" horiz-adv-x="1548" d="M88 0v1313h328v-156q48 90 118.5 135t161.5 45q94 0 155.5 -47.5t78.5 -132.5q47 89 118.5 134.5t163.5 45.5q126 0 188 -79.5t62 -241.5v-1016h-346v911q0 52 -19 77.5t-59 25.5q-48 0 -69 -34t-21 -122v-858h-346v911q0 52 -19.5 77.5t-58.5 25.5q-48 0 -69 -34 t-21 -122v-858h-346z" />
<glyph unicode="n" d="M88 0v1313h328v-156q45 87 116 133.5t156 46.5q126 0 188 -79.5t62 -241.5v-1016h-346v911q0 51 -18 77t-54 26q-45 0 -65.5 -35.5t-20.5 -120.5v-858h-346z" />
<glyph unicode="o" horiz-adv-x="999" d="M72 385v543q0 206 106 307.5t322 101.5t323 -101.5t107 -307.5v-543q0 -206 -107 -308t-323 -102t-322 101.5t-106 308.5zM422 336q0 -59 18 -84t60 -25t60 25t18 84v641q0 58 -18.5 83t-59.5 25t-59.5 -25.5t-18.5 -82.5v-641z" />
<glyph unicode="p" horiz-adv-x="1010" d="M88 -238v1551h332v-148q42 82 113 127t155 45q126 0 188 -79.5t62 -241.5v-717q0 -162 -62.5 -243t-187.5 -81q-79 0 -143.5 38.5t-110.5 113.5v-365h-346zM434 442q0 -118 19 -162t63 -44q35 0 52.5 25.5t17.5 76.5v639q0 51 -17.5 75.5t-52.5 24.5q-44 0 -63 -44 t-19 -163v-428z" />
<glyph unicode="q" horiz-adv-x="1010" d="M72 299v717q0 162 62 241.5t188 79.5q83 0 153.5 -45t114.5 -127v148h332v-1551h-347v365q-45 -75 -109.5 -113.5t-143.5 -38.5q-126 0 -188 81t-62 243zM424 338q0 -51 17.5 -76.5t52.5 -25.5q44 0 62.5 42.5t18.5 163.5v428q0 123 -18 165t-63 42q-36 0 -53 -24.5 t-17 -75.5v-639z" />
<glyph unicode="r" horiz-adv-x="694" d="M88 0v1313h328v-223q44 119 107 182t140 65v-426q-127 -1 -178 -55.5t-51 -196.5v-659h-346z" />
<glyph unicode="s" horiz-adv-x="887" d="M43 338v88h315v-76q0 -62 20 -94.5t58 -32.5q35 0 56.5 28t21.5 75q0 66 -116 161l-13 11q-21 17 -61 49q-271 219 -271 418q0 171 109.5 272.5t294.5 101.5q178 0 276 -93.5t98 -262.5v-59h-313v57q0 61 -17.5 89t-56.5 28q-32 0 -53.5 -24.5t-21.5 -61.5 q0 -70 164 -199q51 -40 79 -63q136 -110 186 -196.5t50 -201.5q0 -173 -112.5 -275t-305.5 -102q-181 0 -284 96.5t-103 266.5z" />
<glyph unicode="t" horiz-adv-x="561" d="M14 1040v250h86v275h340v-275h95v-250h-101v-725q0 -34 23.5 -51.5t68.5 -17.5h9v-258q-34 -6 -68.5 -9.5t-69.5 -3.5q-170 0 -233.5 72t-63.5 313v680h-86z" />
<glyph unicode="u" d="M84 299v1014h348v-912q0 -50 18 -75t54 -25q46 0 66 34.5t20 119.5v858h346v-1313h-328v156q-45 -87 -116 -134t-156 -47q-126 0 -189 81.5t-63 242.5z" />
<glyph unicode="v" horiz-adv-x="883" d="M-2 1313h367l47 -539q2 -37 9 -127.5t21 -279.5q9 122 17.5 228.5t15.5 180.5l55 537h351l-238 -1313h-403z" />
<glyph unicode="w" horiz-adv-x="1403" d="M-8 1313h360l60 -574q12 -117 22 -221t17 -180q9 117 17.5 222t16.5 185l60 568h321l49 -559q1 -9 13 -146.5t22 -269.5q22 215 43 405q2 15 2 19l66 551h354l-254 -1313h-370l-56 502q-18 165 -25.5 245.5t-13.5 149.5q-3 -33 -8 -95q-18 -198 -29 -290l-57 -512h-360z " />
<glyph unicode="x" horiz-adv-x="905" d="M-35 0l293 682l-270 631h381l49 -189q1 -5 5 -22q26 -99 36 -184q5 53 15 105.5t24 102.5l53 187h371l-269 -625l285 -688h-389l-55 207q-15 54 -26 115t-19 131q-10 -84 -20.5 -141.5t-25.5 -104.5l-61 -207h-377z" />
<glyph unicode="y" horiz-adv-x="864" d="M-6 1313h364l48 -559q7 -85 15 -186.5t17 -245.5q10 103 23 248.5t16 184.5l51 558h349l-232 -1211q-37 -197 -116 -268.5t-261 -71.5h-172v261h56q41 0 60 11.5t19 37.5q0 12 -3.5 41t-10.5 61z" />
<glyph unicode="z" horiz-adv-x="862" d="M33 0v291l407 747h-391v275h780v-262l-423 -777h425v-274h-798z" />
<glyph unicode="{" d="M152 410v241q6 0 18 -1t18 -1q118 0 168 55.5t50 188.5v254q0 136 24 193.5t82 89.5q48 25 120.5 37t180.5 12q12 0 38.5 -1t41.5 -1v-242q-7 0 -21 1t-20 1q-98 0 -132 -35.5t-34 -146.5v-240q0 -140 -46 -200t-165 -85q120 -24 165.5 -82.5t45.5 -199.5v-242 q0 -110 33.5 -145t130.5 -35q7 0 21.5 1t21.5 1v-242q-15 0 -42 -1t-40 -1q-108 0 -179.5 12t-119.5 37q-59 32 -82.5 88.5t-23.5 192.5v256q0 133 -49.5 187.5t-168.5 54.5q-4 0 -17 -1t-19 -1z" />
<glyph unicode="|" d="M393 -483v2048h240v-2048h-240z" />
<glyph unicode="}" d="M133 -172q9 0 23 -1t20 -1q97 0 130.5 34.5t33.5 145.5v242q0 140 46 199t165 83q-120 25 -165.5 84t-45.5 201v240q0 111 -33.5 146.5t-126.5 35.5q-7 0 -22.5 -1t-24.5 -1v242q15 0 41.5 1t38.5 1q108 0 180 -12t121 -37q58 -32 82.5 -89.5t24.5 -193.5v-254 q0 -134 49 -189t168 -55q6 0 18 1t18 1v-241q-6 0 -18 1t-18 1q-119 0 -168 -55t-49 -187v-256q0 -137 -24.5 -194.5t-82.5 -88.5q-45 -24 -113.5 -35.5t-177.5 -11.5q-14 0 -44 1t-46 1v242z" />
<glyph unicode="~" horiz-adv-x="1706" d="M178 401v254q112 73 207.5 108.5t179.5 35.5q63 0 126.5 -12t169.5 -46q16 -5 51 -17q159 -56 247 -56q84 0 173.5 36t197.5 115v-254q-101 -69 -194 -103t-183 -34q-45 0 -89 7.5t-83 21.5q-13 4 -38 13q-255 89 -382 89q-84 0 -175.5 -37.5t-207.5 -120.5z" />
<glyph d="M0 643l35 107h96v122h-131l35 107h96v240q0 212 101 316.5t307 104.5q204 0 305.5 -105t101.5 -316v-148h-338v186q0 49 -17.5 74t-51.5 25q-35 0 -52.5 -24.5t-17.5 -74.5v-278h350l-35 -107h-315v-122h274l-34 -107h-240v-278q0 -50 17.5 -74.5t52.5 -24.5 q34 0 51.5 25t17.5 74v186h338v-148q0 -211 -101.5 -316t-305.5 -105q-206 0 -307 104.5t-101 316.5v240h-131z" />
<glyph unicode="&#x20ac;" d="M0 643l35 107h96v122h-131l35 107h96v240q0 212 101 316.5t307 104.5q204 0 305.5 -105t101.5 -316v-148h-338v186q0 49 -17.5 74t-51.5 25q-35 0 -52.5 -24.5t-17.5 -74.5v-278h350l-35 -107h-315v-122h274l-34 -107h-240v-278q0 -50 17.5 -74.5t52.5 -24.5 q34 0 51.5 25t17.5 74v186h338v-148q0 -211 -101.5 -316t-305.5 -105q-206 0 -307 104.5t-101 316.5v240h-131z" />
<glyph unicode="&#xa0;" />
<glyph unicode="&#xa1;" horiz-adv-x="526" d="M94 0v735l80 441h182l76 -441v-735h-338zM94 1276v364h338v-364h-338z" />
<glyph unicode="&#xa2;" d="M82 385v543q0 187 86.5 285.5t269.5 119.5v162h148v-162q180 -18 267 -117.5t87 -287.5v-113h-350v162q0 58 -18.5 83t-59.5 25t-59.5 -25.5t-18.5 -82.5v-641q0 -59 18.5 -84t59.5 -25q42 0 60 25t18 84v221h350v-172q0 -189 -86.5 -288t-267.5 -115v-152h-148v152 q-182 19 -269 118t-87 285z" />
<glyph unicode="&#xa3;" d="M61 678v170h134q-55 103 -80 192.5t-25 178.5q0 182 134.5 300.5t346.5 118.5q183 0 292.5 -102.5t109.5 -273.5v-140h-334v97q0 74 -21.5 107.5t-68.5 33.5q-44 0 -71 -34t-27 -87q0 -77 37 -212t47 -179h262v-170h-246q0 -102 -41 -195.5t-125 -181.5q54 0 120 -11 t81 -11q49 0 72.5 33.5t25.5 106.5l309 1v-21q0 -204 -93.5 -310.5t-272.5 -106.5q-61 0 -183.5 24.5t-187.5 24.5q-59 0 -106.5 -11.5t-83.5 -33.5l16 321q74 20 118 93t44 175q0 22 -1.5 48t-5.5 55h-176z" />
<glyph unicode="&#xa4;" d="M0 643l35 107h96v122h-131l35 107h96v240q0 212 101 316.5t307 104.5q204 0 305.5 -105t101.5 -316v-148h-338v186q0 49 -17.5 74t-51.5 25q-35 0 -52.5 -24.5t-17.5 -74.5v-278h350l-35 -107h-315v-122h274l-34 -107h-240v-278q0 -50 17.5 -74.5t52.5 -24.5 q34 0 51.5 25t17.5 74v186h338v-148q0 -211 -101.5 -316t-305.5 -105q-206 0 -307 104.5t-101 316.5v240h-131z" />
<glyph unicode="&#xa5;" d="M31 1622h383l61 -297q15 -71 25 -140.5t16 -139.5q11 118 36 246q2 11 3 16l66 315h372l-186 -592h178v-110h-213l-53 -172h266v-111h-293v-637h-352v637h-301v111h268l-55 172h-213v110h180z" />
<glyph unicode="&#xa6;" d="M393 -350v758h240v-758h-240zM393 674v758h240v-758h-240z" />
<glyph unicode="&#xa7;" horiz-adv-x="1006" d="M45 776q0 97 39 178.5t115 143.5q-39 42 -58.5 96t-19.5 121q0 161 111 254.5t305 93.5q188 0 281 -90t93 -270v-35h-313v20q0 72 -22.5 107t-67.5 35q-33 0 -56.5 -27t-23.5 -66q0 -71 160 -168l20 -12q214 -131 282 -220t68 -208q0 -88 -35.5 -165.5t-103.5 -137.5 q50 -51 74.5 -112t24.5 -134q0 -165 -119.5 -266.5t-315.5 -101.5q-193 0 -293 98t-100 289v28h316v-10q0 -88 24.5 -131t75.5 -43q39 0 63.5 29t24.5 78q0 79 -177 183q-60 36 -95 58q-160 100 -218.5 185t-58.5 200zM311 858q0 -84 235 -229q67 -42 105 -66 q16 25 23.5 48.5t7.5 47.5q0 67 -168 178q-102 67 -162 113q-21 -26 -31 -48t-10 -44z" />
<glyph unicode="&#xa8;" d="M213 1421v262h244v-262h-244zM567 1421v262h244v-262h-244z" />
<glyph unicode="&#xa9;" horiz-adv-x="1706" d="M106 737q0 148 57.5 285t164.5 246q105 106 238 161.5t286 55.5q154 0 289.5 -56t242.5 -163q106 -106 160.5 -240.5t54.5 -288.5q0 -153 -54 -287t-159 -237q-109 -108 -247 -165.5t-287 -57.5q-148 0 -283.5 57t-242.5 164t-163.5 241.5t-56.5 284.5zM242 737 q0 -119 47 -230.5t135 -199.5q87 -87 198 -133.5t232 -46.5t234 47t202 135q86 84 130 193t44 235q0 125 -45 235.5t-131 196.5q-88 89 -198.5 135t-235.5 46q-126 0 -235 -45.5t-195 -133.5q-88 -89 -135 -201t-47 -233zM446 731q0 207 111 329t299 122q157 0 257 -80 t108 -211h-213q-7 67 -47.5 104t-108.5 37q-83 0 -129.5 -77t-46.5 -216q0 -140 47.5 -212t138.5 -72q67 0 106.5 40.5t45.5 114.5h215q-6 -143 -107.5 -230t-263.5 -87q-190 0 -301 117.5t-111 320.5z" />
<glyph unicode="&#xaa;" horiz-adv-x="748" d="M43 924v73q0 90 44 151.5t138 102.5q16 7 47 20q154 64 154 132v33q0 24 -17 40.5t-42 16.5q-30 0 -47 -23.5t-17 -64.5v-57h-244v57q0 119 82.5 185.5t231.5 66.5q163 0 237 -64t74 -209v-663h-244l-4 65q-45 -42 -91.5 -61.5t-100.5 -19.5q-92 0 -146.5 59t-54.5 160z M305 938q0 -53 10.5 -68.5t36.5 -15.5q36 0 55 29.5t19 85.5v211q-75 -39 -98 -68t-23 -80v-94z" />
<glyph unicode="&#xab;" horiz-adv-x="985" d="M72 676l204 297h273l-211 -297l211 -297h-273zM451 676l204 297h273l-211 -297l211 -297h-273z" />
<glyph unicode="&#xac;" horiz-adv-x="1706" d="M254 639v227h1198v-501h-229v274h-969z" />
<glyph unicode="&#xad;" horiz-adv-x="668" d="M68 518v313h532v-313h-532z" />
<glyph unicode="&#xae;" horiz-adv-x="1706" d="M106 737q0 151 59 290t169 247q105 104 237 157.5t281 53.5q156 0 294 -57.5t245 -167.5q101 -104 154.5 -238t53.5 -285q0 -155 -56.5 -291t-164.5 -239q-109 -105 -245 -161t-281 -56q-151 0 -287 58t-243 169q-105 108 -160.5 241.5t-55.5 278.5zM244 737 q0 -121 44 -229t130 -195q87 -90 199 -138t235 -48q121 0 232.5 45.5t199.5 130.5t134 196.5t46 237.5q0 124 -44 233.5t-128 194.5q-89 91 -200.5 138t-237.5 47q-124 0 -232 -44t-194 -128q-90 -90 -137 -203t-47 -238zM537 344v819h329q174 0 264.5 -60t90.5 -177 q0 -81 -46 -139t-128 -82l182 -361h-248l-154 326h-65v-326h-225zM762 803h80q74 0 110.5 26.5t36.5 79.5q0 59 -38 86t-122 27h-67v-219z" />
<glyph unicode="&#xaf;" d="M213 1473v161h598v-161h-598z" />
<glyph unicode="&#xb0;" horiz-adv-x="674" d="M27 1155q0 131 90.5 221t220.5 90q129 0 220 -91t91 -220q0 -128 -91.5 -219.5t-221.5 -91.5q-129 0 -219 90.5t-90 220.5zM172 1157q0 -70 48 -118t118 -48q68 0 116 49t48 117t-48 116t-116 48q-69 0 -117.5 -48t-48.5 -116z" />
<glyph unicode="&#xb1;" horiz-adv-x="1706" d="M254 -18v231h1198v-231h-1198zM254 690v232h481v319h238v-319h479v-232h-479v-319h-238v319h-481z" />
<glyph unicode="&#xb2;" horiz-adv-x="676" d="M27 649v27q0 119 30 204.5t97 159.5q38 45 112 113q127 116 127 193v43q0 35 -13.5 52t-41.5 17q-34 0 -50 -25t-16 -77v-78h-223v84q0 130 77.5 201t217.5 71q141 0 215 -66t74 -194q0 -147 -172 -312q-16 -15 -23 -22q-86 -80 -122 -125t-46 -81h357v-185h-600z" />
<glyph unicode="&#xb3;" horiz-adv-x="676" d="M35 907v72h231v-66q0 -63 14 -82.5t50 -19.5q31 0 46 21.5t15 66.5v68q0 61 -32.5 90.5t-100.5 29.5h-16v156h6q73 0 104 22.5t31 75.5v54q0 36 -13.5 53.5t-39.5 17.5q-31 0 -46.5 -21t-15.5 -63v-55h-225v59q0 122 75.5 185t221.5 63q130 0 204 -58.5t74 -160.5v-80 q0 -57 -29.5 -97t-88.5 -62q70 -26 100.5 -69t30.5 -118v-90q0 -126 -79.5 -193t-227.5 -67q-144 0 -216.5 67t-72.5 201z" />
<glyph unicode="&#xb4;" d="M350 1411l199 285h295l-350 -285h-144z" />
<glyph unicode="&#xb5;" horiz-adv-x="1315" d="M-45 -428l238 1518h358l-80 -529q-6 -41 -9 -77.5t-3 -65.5q0 -85 35.5 -127.5t107.5 -42.5q88 0 138.5 68.5t74.5 220.5l88 553h357l-175 -1090h-321l18 125q-40 -75 -89.5 -108t-119.5 -33q-59 0 -106.5 31t-77.5 89l-82 -532h-352z" />
<glyph unicode="&#xb6;" d="M29 1130q0 158 106 253.5t283 95.5h579v-123h-106v-1356h-176v1356h-150v-1356h-174v784q-164 6 -263 101t-99 245z" />
<glyph unicode="&#xb7;" horiz-adv-x="512" d="M66 811q0 79 55.5 134.5t134.5 55.5q80 0 135 -55t55 -135q0 -78 -55.5 -134t-134.5 -56q-77 0 -133.5 56.5t-56.5 133.5z" />
<glyph unicode="&#xb8;" d="M272 -248l201 248h211l-115 -248h-297z" />
<glyph unicode="&#xb9;" horiz-adv-x="676" d="M106 1376v148h5q64 0 113.5 25t78.5 73h203v-973h-234v733q-30 -3 -52.5 -4.5t-35.5 -1.5h-78z" />
<glyph unicode="&#xba;" horiz-adv-x="750" d="M53 991v379q0 145 80 216t242 71q163 0 243 -71.5t80 -215.5v-379q0 -144 -80 -215t-243 -71q-162 0 -242 70.5t-80 215.5zM317 956q0 -42 13.5 -58.5t44.5 -16.5q32 0 45.5 17t13.5 58v449q0 40 -14 58t-45 18q-30 0 -44 -18t-14 -58v-449z" />
<glyph unicode="&#xbb;" horiz-adv-x="985" d="M57 379l211 297l-211 297h273l207 -297l-207 -297h-273zM438 379l211 297l-211 297h273l204 -297l-204 -297h-273z" />
<glyph unicode="&#xbc;" horiz-adv-x="1632" d="M102 1391v139h4q63 0 110.5 23.5t74.5 68.5h194v-909h-225v683q-28 -2 -49.5 -3.5t-34.5 -1.5h-74zM303 -18l850 1658h174l-848 -1658h-176zM1016 176v186q59 98 97 235t54 312h240q-23 -146 -87.5 -288.5t-170.5 -282.5h162v125q49 59 83 125t50 135h86v-385h78v-162 h-78v-176h-219v176h-295z" />
<glyph unicode="&#xbd;" horiz-adv-x="1632" d="M102 1391v139h4q63 0 110.5 23.5t74.5 68.5h194v-909h-225v683q-28 -2 -49.5 -3.5t-34.5 -1.5h-74zM303 -18l850 1658h174l-848 -1658h-176zM1014 0v25q0 110 28 190t91 152q36 40 106 102q123 109 123 180v41q0 34 -12.5 49t-38.5 15q-33 0 -48.5 -23t-15.5 -72v-71 h-213v78q0 121 74 187.5t209 66.5q134 0 204 -62.5t70 -181.5q0 -141 -175 -299l-12 -11q-86 -82 -117.5 -122t-41.5 -72h340v-172h-571z" />
<glyph unicode="&#xbe;" horiz-adv-x="1632" d="M33 954v68h221v-64q0 -59 13 -76.5t48 -17.5q30 0 45 20.5t15 61.5v62q0 58 -31.5 86t-97.5 28h-15v144h7q68 0 97.5 22t29.5 72v49q0 33 -12.5 49.5t-37.5 16.5q-29 0 -44 -19.5t-15 -58.5v-51h-215v55q0 113 72.5 172t212.5 59q123 0 193.5 -54.5t70.5 -150.5v-73 q0 -54 -28 -91t-85 -59q67 -24 96 -64t29 -110v-84q0 -117 -76 -180.5t-217 -63.5q-137 0 -206.5 63.5t-69.5 188.5zM303 -18l850 1658h174l-848 -1658h-176zM1016 176v186q59 98 97 235t54 312h240q-23 -146 -87.5 -288.5t-170.5 -282.5h162v125q49 59 83 125t50 135h86 v-385h78v-162h-78v-176h-219v176h-295z" />
<glyph unicode="&#xbf;" horiz-adv-x="967" d="M37 365q0 74 22.5 142.5t65.5 125.5q45 58 124.5 143t104.5 119q58 76 79.5 137t21.5 135v11h266v-74q0 -96 -27.5 -181.5t-83.5 -166.5q-28 -42 -87 -113q-134 -160 -134 -270q0 -69 27 -105.5t80 -36.5q50 0 80 46.5t30 125.5v109h326v-102q0 -196 -127.5 -315.5 t-335.5 -119.5q-194 0 -313 107.5t-119 282.5zM422 1276v364h317v-364h-317z" />
<glyph unicode="&#xc0;" horiz-adv-x="1100" d="M4 0l303 1640h498l299 -1640h-395l-37 295h-256l-37 -295h-375zM219 2024h295l199 -285h-144zM459 592h178l-57 501q-6 50 -11.5 107.5t-15.5 173.5q-6 -66 -14 -137t-17 -146z" />
<glyph unicode="&#xc1;" horiz-adv-x="1100" d="M4 0l303 1640h498l299 -1640h-395l-37 295h-256l-37 -295h-375zM389 1739l199 285h295l-350 -285h-144zM459 592h178l-57 501q-6 50 -11.5 107.5t-15.5 173.5q-6 -66 -14 -137t-17 -146z" />
<glyph unicode="&#xc2;" horiz-adv-x="1100" d="M4 0l303 1640h498l299 -1640h-395l-37 295h-256l-37 -295h-375zM234 1739l198 285h238l198 -285h-143l-174 150l-174 -150h-143zM459 592h178l-57 501q-6 50 -11.5 107.5t-15.5 173.5q-6 -66 -14 -137t-17 -146z" />
<glyph unicode="&#xc3;" horiz-adv-x="1100" d="M4 0l303 1640h498l299 -1640h-395l-37 295h-256l-37 -295h-375zM229 1751q25 118 75.5 175t129.5 57q14 0 31.5 -2.5t37.5 -7.5l129 -33q13 -3 25.5 -4.5t26.5 -1.5q34 0 56.5 20t31.5 57h101q-22 -121 -76.5 -179t-145.5 -58q-9 0 -21 2t-30 6l-137 35q-9 3 -19.5 4.5 t-21.5 1.5q-37 0 -60 -18t-32 -53zM459 592h178l-57 501q-6 50 -11.5 107.5t-15.5 173.5q-6 -66 -14 -137t-17 -146z" />
<glyph unicode="&#xc4;" horiz-adv-x="1100" d="M4 0l303 1640h498l299 -1640h-395l-37 295h-256l-37 -295h-375zM252 1749v262h244v-262h-244zM459 592h178l-57 501q-6 50 -11.5 107.5t-15.5 173.5q-6 -66 -14 -137t-17 -146zM606 1749v262h244v-262h-244z" />
<glyph unicode="&#xc5;" horiz-adv-x="1100" d="M4 0l303 1640h498l299 -1640h-395l-37 295h-256l-37 -295h-375zM324 1915q0 94 67 161.5t162 67.5t162 -67.5t67 -161.5q0 -96 -66.5 -162.5t-162.5 -66.5q-94 0 -161.5 67t-67.5 162zM459 592h178l-57 501q-6 50 -11.5 107.5t-15.5 173.5q-6 -66 -14 -137t-17 -146z M467 1913q0 -35 25 -60.5t61 -25.5t61 25t25 61q0 38 -24.5 63t-61.5 25t-61.5 -25.5t-24.5 -62.5z" />
<glyph unicode="&#xc6;" horiz-adv-x="1542" d="M-25 0l418 1640h1096v-315h-434v-321h397v-320h-397v-367h448v-317h-809v315h-258l-74 -315h-387zM504 629h190v772h-8z" />
<glyph unicode="&#xc7;" horiz-adv-x="1133" d="M78 483v674q0 252 123 379t366 127q245 0 366.5 -126t121.5 -380v-127h-375v187q0 80 -27.5 116.5t-87.5 36.5q-58 0 -85 -36.5t-27 -116.5v-795q0 -80 27 -116t87 -36q59 0 86 36t27 116v225h375v-164q0 -253 -122 -380.5t-366 -127.5q-242 0 -365.5 128t-123.5 380z M327 -248l201 248h211l-115 -248h-297z" />
<glyph unicode="&#xc8;" horiz-adv-x="985" d="M94 0v1640h830v-317h-459v-326h405v-313h-405v-367h473v-317h-844zM180 2024h295l199 -285h-144z" />
<glyph unicode="&#xc9;" horiz-adv-x="985" d="M94 0v1640h830v-317h-459v-326h405v-313h-405v-367h473v-317h-844zM350 1739l199 285h295l-350 -285h-144z" />
<glyph unicode="&#xca;" horiz-adv-x="985" d="M94 0v1640h830v-317h-459v-326h405v-313h-405v-367h473v-317h-844zM195 1739l198 285h238l198 -285h-143l-174 150l-174 -150h-143z" />
<glyph unicode="&#xcb;" horiz-adv-x="985" d="M94 0v1640h830v-317h-459v-326h405v-313h-405v-367h473v-317h-844zM213 1749v262h244v-262h-244zM567 1749v262h244v-262h-244z" />
<glyph unicode="&#xcc;" horiz-adv-x="559" d="M-51 2024h295l199 -285h-144zM94 0v1640h371v-1640h-371z" />
<glyph unicode="&#xcd;" horiz-adv-x="559" d="M94 0v1640h371v-1640h-371zM119 1739l199 285h295l-350 -285h-144z" />
<glyph unicode="&#xce;" horiz-adv-x="559" d="M-36 1739l198 285h238l198 -285h-143l-174 150l-174 -150h-143zM94 0v1640h371v-1640h-371z" />
<glyph unicode="&#xcf;" horiz-adv-x="559" d="M-18 1749v262h244v-262h-244zM94 0v1640h371v-1640h-371zM336 1749v262h244v-262h-244z" />
<glyph unicode="&#xd0;" horiz-adv-x="1145" d="M10 793v170h94v677h457q297 0 401.5 -95.5t104.5 -348.5v-754q0 -135 -31.5 -215t-103.5 -139q-60 -48 -146 -68t-290 -20h-54h-338v793h-94zM473 281h47q109 0 140.5 32t31.5 121v772q0 90 -31.5 122t-140.5 32h-47v-397h111v-170h-111v-512z" />
<glyph unicode="&#xd1;" horiz-adv-x="1247" d="M94 0v1640h416l192 -665q33 -110 62.5 -227t58.5 -248q-17 123 -24.5 246.5t-7.5 285.5v608h360v-1640h-401l-213 705q-34 111 -62.5 229t-52.5 248q16 -184 24.5 -347t8.5 -303v-532h-361zM317 1751q25 118 75.5 175t129.5 57q14 0 31.5 -2.5t37.5 -7.5l129 -33 q13 -3 25.5 -4.5t26.5 -1.5q34 0 56.5 20t31.5 57h101q-22 -121 -76.5 -179t-145.5 -58q-9 0 -21 2t-30 6l-137 35q-9 3 -19.5 4.5t-21.5 1.5q-37 0 -60 -18t-32 -53z" />
<glyph unicode="&#xd2;" horiz-adv-x="1133" d="M78 483v674q0 252 123 379t366 127q245 0 366.5 -126t121.5 -380v-674q0 -253 -122 -380.5t-366 -127.5q-242 0 -365.5 128t-123.5 380zM235 2024h295l199 -285h-144zM453 422q0 -80 27 -116t87 -36q59 0 86 36t27 116v795q0 80 -27.5 116.5t-87.5 36.5q-58 0 -85 -36.5 t-27 -116.5v-795z" />
<glyph unicode="&#xd3;" horiz-adv-x="1133" d="M78 483v674q0 252 123 379t366 127q245 0 366.5 -126t121.5 -380v-674q0 -253 -122 -380.5t-366 -127.5q-242 0 -365.5 128t-123.5 380zM405 1739l199 285h295l-350 -285h-144zM453 422q0 -80 27 -116t87 -36q59 0 86 36t27 116v795q0 80 -27.5 116.5t-87.5 36.5 q-58 0 -85 -36.5t-27 -116.5v-795z" />
<glyph unicode="&#xd4;" horiz-adv-x="1133" d="M78 483v674q0 252 123 379t366 127q245 0 366.5 -126t121.5 -380v-674q0 -253 -122 -380.5t-366 -127.5q-242 0 -365.5 128t-123.5 380zM250 1739l198 285h238l198 -285h-143l-174 150l-174 -150h-143zM453 422q0 -80 27 -116t87 -36q59 0 86 36t27 116v795 q0 80 -27.5 116.5t-87.5 36.5q-58 0 -85 -36.5t-27 -116.5v-795z" />
<glyph unicode="&#xd5;" horiz-adv-x="1133" d="M78 483v674q0 252 123 379t366 127q245 0 366.5 -126t121.5 -380v-674q0 -253 -122 -380.5t-366 -127.5q-242 0 -365.5 128t-123.5 380zM245 1751q25 118 75.5 175t129.5 57q14 0 31.5 -2.5t37.5 -7.5l129 -33q13 -3 25.5 -4.5t26.5 -1.5q34 0 56.5 20t31.5 57h101 q-22 -121 -76.5 -179t-145.5 -58q-9 0 -21 2t-30 6l-137 35q-9 3 -19.5 4.5t-21.5 1.5q-37 0 -60 -18t-32 -53zM453 422q0 -80 27 -116t87 -36q59 0 86 36t27 116v795q0 80 -27.5 116.5t-87.5 36.5q-58 0 -85 -36.5t-27 -116.5v-795z" />
<glyph unicode="&#xd6;" horiz-adv-x="1133" d="M78 483v674q0 252 123 379t366 127q245 0 366.5 -126t121.5 -380v-674q0 -253 -122 -380.5t-366 -127.5q-242 0 -365.5 128t-123.5 380zM268 1749v262h244v-262h-244zM453 422q0 -80 27 -116t87 -36q59 0 86 36t27 116v795q0 80 -27.5 116.5t-87.5 36.5q-58 0 -85 -36.5 t-27 -116.5v-795zM622 1749v262h244v-262h-244z" />
<glyph unicode="&#xd7;" horiz-adv-x="1706" d="M268 170l441 440l-441 443l162 161l440 -440l441 440l162 -161l-441 -443l441 -440l-162 -162l-441 441l-440 -441z" />
<glyph unicode="&#xd8;" horiz-adv-x="1133" d="M43 8l98 174q-33 59 -48 127t-15 174v674q0 252 123 379t366 127q109 0 191 -24.5t143 -75.5l70 131l116 -62l-94 -174q33 -51 47.5 -119t14.5 -182v-674q0 -253 -122.5 -380.5t-365.5 -127.5q-102 0 -187.5 25.5t-143.5 73.5l-76 -129zM453 422q0 -80 27 -116t87 -36 q59 0 86 36t27 116v465l-227 -426v-39zM453 741l227 424v52q0 80 -27.5 116.5t-87.5 36.5q-58 0 -85 -36.5t-27 -116.5v-476z" />
<glyph unicode="&#xd9;" horiz-adv-x="1145" d="M90 483v1157h371v-1218q0 -81 26 -116.5t84 -35.5q59 0 86 36.5t27 115.5v1218h371v-1157q0 -253 -121 -380.5t-363 -127.5q-239 0 -360 128t-121 380zM241 2024h295l199 -285h-144z" />
<glyph unicode="&#xda;" horiz-adv-x="1145" d="M90 483v1157h371v-1218q0 -81 26 -116.5t84 -35.5q59 0 86 36.5t27 115.5v1218h371v-1157q0 -253 -121 -380.5t-363 -127.5q-239 0 -360 128t-121 380zM411 1739l199 285h295l-350 -285h-144z" />
<glyph unicode="&#xdb;" horiz-adv-x="1145" d="M90 483v1157h371v-1218q0 -81 26 -116.5t84 -35.5q59 0 86 36.5t27 115.5v1218h371v-1157q0 -253 -121 -380.5t-363 -127.5q-239 0 -360 128t-121 380zM256 1739l198 285h238l198 -285h-143l-174 150l-174 -150h-143z" />
<glyph unicode="&#xdc;" horiz-adv-x="1145" d="M90 483v1157h371v-1218q0 -81 26 -116.5t84 -35.5q59 0 86 36.5t27 115.5v1218h371v-1157q0 -253 -121 -380.5t-363 -127.5q-239 0 -360 128t-121 380zM274 1749v262h244v-262h-244zM628 1749v262h244v-262h-244z" />
<glyph unicode="&#xdd;" horiz-adv-x="930" d="M-29 1640h394l63 -303q17 -85 26.5 -151t14.5 -131q10 115 40 261l1 3l65 321h383l-303 -968v-672h-370v645zM303 1739l199 285h295l-350 -285h-144z" />
<glyph unicode="&#xde;" horiz-adv-x="1110" d="M94 0v1640h371v-294h156q225 0 334.5 -102.5t109.5 -311.5v-160q0 -200 -103 -309t-292 -109h-205v-354h-371zM465 650q9 -2 18.5 -2.5t28.5 -0.5q97 0 138.5 36t41.5 118v96q0 86 -41.5 121t-148.5 35h-37v-403z" />
<glyph unicode="&#xdf;" horiz-adv-x="1036" d="M88 0v1264q0 189 108.5 282.5t327.5 93.5q189 0 298.5 -84.5t109.5 -228.5v-106q0 -88 -36.5 -144.5t-109.5 -81.5q90 -23 127 -77.5t37 -167.5v-340q0 -216 -89 -313t-288 -97h-75v297h16q45 0 65.5 28t20.5 89v338q0 61 -23 86.5t-79 27.5v262h4q44 0 67 25t23 72v71 q0 41 -20.5 65.5t-53.5 24.5q-42 0 -63 -27t-21 -81v-1278h-346z" />
<glyph unicode="&#xe0;" horiz-adv-x="997" d="M57 291v104q0 129 59 216.5t185 146.5q23 11 65 30q201 90 201 185v47q0 35 -23 59.5t-57 24.5q-38 0 -61 -34t-23 -93v-82h-323v82q0 171 109 265.5t307 94.5q218 0 316.5 -91t98.5 -298v-948h-323l-6 94q-62 -61 -124 -90t-132 -29q-124 0 -196.5 85.5t-72.5 230.5z M168 1696h295l199 -285h-144zM406 311q0 -74 14 -97.5t49 -23.5q47 0 72.5 42.5t25.5 121.5v301q-100 -55 -130.5 -96.5t-30.5 -114.5v-133z" />
<glyph unicode="&#xe1;" horiz-adv-x="997" d="M57 291v104q0 129 59 216.5t185 146.5q23 11 65 30q201 90 201 185v47q0 35 -23 59.5t-57 24.5q-38 0 -61 -34t-23 -93v-82h-323v82q0 171 109 265.5t307 94.5q218 0 316.5 -91t98.5 -298v-948h-323l-6 94q-62 -61 -124 -90t-132 -29q-124 0 -196.5 85.5t-72.5 230.5z M338 1411l199 285h295l-350 -285h-144zM406 311q0 -74 14 -97.5t49 -23.5q47 0 72.5 42.5t25.5 121.5v301q-100 -55 -130.5 -96.5t-30.5 -114.5v-133z" />
<glyph unicode="&#xe2;" horiz-adv-x="997" d="M57 291v104q0 129 59 216.5t185 146.5q23 11 65 30q201 90 201 185v47q0 35 -23 59.5t-57 24.5q-38 0 -61 -34t-23 -93v-82h-323v82q0 171 109 265.5t307 94.5q218 0 316.5 -91t98.5 -298v-948h-323l-6 94q-62 -61 -124 -90t-132 -29q-124 0 -196.5 85.5t-72.5 230.5z M183 1411l198 285h238l198 -285h-143l-174 150l-174 -150h-143zM406 311q0 -74 14 -97.5t49 -23.5q47 0 72.5 42.5t25.5 121.5v301q-100 -55 -130.5 -96.5t-30.5 -114.5v-133z" />
<glyph unicode="&#xe3;" horiz-adv-x="997" d="M57 291v104q0 129 59 216.5t185 146.5q23 11 65 30q201 90 201 185v47q0 35 -23 59.5t-57 24.5q-38 0 -61 -34t-23 -93v-82h-323v82q0 171 109 265.5t307 94.5q218 0 316.5 -91t98.5 -298v-948h-323l-6 94q-62 -61 -124 -90t-132 -29q-124 0 -196.5 85.5t-72.5 230.5z M178 1423q25 118 75.5 175t129.5 57q14 0 31.5 -2.5t37.5 -7.5l129 -33q13 -3 25.5 -4.5t26.5 -1.5q34 0 56.5 20t31.5 57h101q-22 -121 -76.5 -179t-145.5 -58q-9 0 -21 2t-30 6l-137 35q-9 3 -19.5 4.5t-21.5 1.5q-37 0 -60 -18t-32 -53zM406 311q0 -74 14 -97.5t49 -23.5 q47 0 72.5 42.5t25.5 121.5v301q-100 -55 -130.5 -96.5t-30.5 -114.5v-133z" />
<glyph unicode="&#xe4;" horiz-adv-x="997" d="M57 291v104q0 129 59 216.5t185 146.5q23 11 65 30q201 90 201 185v47q0 35 -23 59.5t-57 24.5q-38 0 -61 -34t-23 -93v-82h-323v82q0 171 109 265.5t307 94.5q218 0 316.5 -91t98.5 -298v-948h-323l-6 94q-62 -61 -124 -90t-132 -29q-124 0 -196.5 85.5t-72.5 230.5z M201 1421v262h244v-262h-244zM406 311q0 -74 14 -97.5t49 -23.5q47 0 72.5 42.5t25.5 121.5v301q-100 -55 -130.5 -96.5t-30.5 -114.5v-133zM555 1421v262h244v-262h-244z" />
<glyph unicode="&#xe5;" horiz-adv-x="997" d="M57 291v104q0 129 59 216.5t185 146.5q23 11 65 30q201 90 201 185v47q0 35 -23 59.5t-57 24.5q-38 0 -61 -34t-23 -93v-82h-323v82q0 171 109 265.5t307 94.5q218 0 316.5 -91t98.5 -298v-948h-323l-6 94q-62 -61 -124 -90t-132 -29q-124 0 -196.5 85.5t-72.5 230.5z M285 1614q0 94 66.5 161.5t160.5 67.5q95 0 162 -67.5t67 -161.5q0 -96 -66.5 -163t-162.5 -67q-94 0 -160.5 67.5t-66.5 162.5zM406 311q0 -74 14 -97.5t49 -23.5q47 0 72.5 42.5t25.5 121.5v301q-100 -55 -130.5 -96.5t-30.5 -114.5v-133zM426 1612q0 -35 26 -60.5 t62 -25.5t61 25t25 61q0 38 -24.5 63t-61.5 25t-62.5 -25.5t-25.5 -62.5z" />
<glyph unicode="&#xe6;" horiz-adv-x="1487" d="M57 291v104q0 129 59 216.5t185 146.5q23 11 65 30q201 90 201 185v47q0 35 -23 59.5t-57 24.5q-38 0 -61 -34t-23 -93v-82h-323v82q0 171 109 265.5t307 94.5q69 0 130 -18.5t117 -56.5q51 39 113 57t145 18q205 0 309.5 -103.5t104.5 -305.5v-330h-506v-262 q0 -59 18.5 -84t59.5 -25q42 0 60 25t18 84v153h350v-104q0 -207 -106 -308.5t-322 -101.5q-136 0 -227.5 40t-143.5 122q-51 -76 -127.5 -119t-162.5 -43q-124 0 -196.5 85.5t-72.5 230.5zM406 311q0 -74 14 -97.5t49 -23.5q47 0 72.5 42.5t25.5 121.5v301 q-100 -55 -130.5 -96.5t-30.5 -114.5v-133zM909 838h156v139q0 58 -18.5 83t-59.5 25t-59.5 -25.5t-18.5 -82.5v-139z" />
<glyph unicode="&#xe7;" horiz-adv-x="999" d="M72 385v543q0 206 106 307.5t322 101.5t323 -101.5t107 -307.5v-113h-352v162q0 58 -18.5 83t-59.5 25t-59.5 -25.5t-18.5 -82.5v-641q0 -59 18 -84t60 -25t60 25t18 84v221h352v-172q0 -206 -107 -308t-323 -102t-322 101.5t-106 308.5zM260 -248l201 248h211l-115 -248 h-297z" />
<glyph unicode="&#xe8;" horiz-adv-x="999" d="M72 385v543q0 206 106 307.5t322 101.5t323 -101.5t107 -307.5v-330h-508v-262q0 -59 18 -84t60 -25t60 25t18 84v153h352v-104q0 -206 -107 -308t-323 -102t-322 101.5t-106 308.5zM168 1696h295l199 -285h-144zM422 838h156v139q0 58 -18.5 83t-59.5 25t-59.5 -25.5 t-18.5 -82.5v-139z" />
<glyph unicode="&#xe9;" horiz-adv-x="999" d="M72 385v543q0 206 106 307.5t322 101.5t323 -101.5t107 -307.5v-330h-508v-262q0 -59 18 -84t60 -25t60 25t18 84v153h352v-104q0 -206 -107 -308t-323 -102t-322 101.5t-106 308.5zM338 1411l199 285h295l-350 -285h-144zM422 838h156v139q0 58 -18.5 83t-59.5 25 t-59.5 -25.5t-18.5 -82.5v-139z" />
<glyph unicode="&#xea;" horiz-adv-x="999" d="M72 385v543q0 206 106 307.5t322 101.5t323 -101.5t107 -307.5v-330h-508v-262q0 -59 18 -84t60 -25t60 25t18 84v153h352v-104q0 -206 -107 -308t-323 -102t-322 101.5t-106 308.5zM183 1411l198 285h238l198 -285h-143l-174 150l-174 -150h-143zM422 838h156v139 q0 58 -18.5 83t-59.5 25t-59.5 -25.5t-18.5 -82.5v-139z" />
<glyph unicode="&#xeb;" horiz-adv-x="999" d="M72 385v543q0 206 106 307.5t322 101.5t323 -101.5t107 -307.5v-330h-508v-262q0 -59 18 -84t60 -25t60 25t18 84v153h352v-104q0 -206 -107 -308t-323 -102t-322 101.5t-106 308.5zM201 1421v262h244v-262h-244zM422 838h156v139q0 58 -18.5 83t-59.5 25t-59.5 -25.5 t-18.5 -82.5v-139zM555 1421v262h244v-262h-244z" />
<glyph unicode="&#xec;" horiz-adv-x="530" d="M-66 1696h295l199 -285h-144zM92 0v1313h346v-1313h-346z" />
<glyph unicode="&#xed;" horiz-adv-x="530" d="M92 0v1313h346v-1313h-346zM104 1411l199 285h295l-350 -285h-144z" />
<glyph unicode="&#xee;" horiz-adv-x="530" d="M-51 1411l198 285h238l198 -285h-143l-174 150l-174 -150h-143zM92 0v1313h346v-1313h-346z" />
<glyph unicode="&#xef;" horiz-adv-x="530" d="M-33 1421v262h244v-262h-244zM92 0v1313h346v-1313h-346zM321 1421v262h244v-262h-244z" />
<glyph unicode="&#xf0;" horiz-adv-x="999" d="M72 365v516q0 199 63 293t197 94q39 0 82.5 -10t95.5 -31q-19 35 -43 73.5t-53 77.5l-189 -78l-47 113l153 69l-8 12q-33 43 -47 58l265 125q20 -23 55 -61q11 -13 16 -18l197 79l49 -114l-164 -70q126 -167 181 -311t55 -301v-516q0 -196 -107 -293t-323 -97t-322 97 t-106 293zM422 319q0 -55 18.5 -79.5t59.5 -24.5t59.5 24t18.5 80v607q0 56 -18.5 80t-59.5 24t-59.5 -24.5t-18.5 -79.5v-607z" />
<glyph unicode="&#xf1;" d="M88 0v1313h328v-156q45 87 116 133.5t156 46.5q126 0 188 -79.5t62 -241.5v-1016h-346v911q0 51 -18 77t-54 26q-45 0 -65.5 -35.5t-20.5 -120.5v-858h-346zM204 1423q25 118 75.5 175t129.5 57q14 0 31.5 -2.5t37.5 -7.5l129 -33q13 -3 25.5 -4.5t26.5 -1.5 q34 0 56.5 20t31.5 57h101q-22 -121 -76.5 -179t-145.5 -58q-9 0 -21 2t-30 6l-137 35q-9 3 -19.5 4.5t-21.5 1.5q-37 0 -60 -18t-32 -53z" />
<glyph unicode="&#xf2;" horiz-adv-x="999" d="M72 385v543q0 206 106 307.5t322 101.5t323 -101.5t107 -307.5v-543q0 -206 -107 -308t-323 -102t-322 101.5t-106 308.5zM168 1696h295l199 -285h-144zM422 336q0 -59 18 -84t60 -25t60 25t18 84v641q0 58 -18.5 83t-59.5 25t-59.5 -25.5t-18.5 -82.5v-641z" />
<glyph unicode="&#xf3;" horiz-adv-x="999" d="M72 385v543q0 206 106 307.5t322 101.5t323 -101.5t107 -307.5v-543q0 -206 -107 -308t-323 -102t-322 101.5t-106 308.5zM338 1411l199 285h295l-350 -285h-144zM422 336q0 -59 18 -84t60 -25t60 25t18 84v641q0 58 -18.5 83t-59.5 25t-59.5 -25.5t-18.5 -82.5v-641z " />
<glyph unicode="&#xf4;" horiz-adv-x="999" d="M72 385v543q0 206 106 307.5t322 101.5t323 -101.5t107 -307.5v-543q0 -206 -107 -308t-323 -102t-322 101.5t-106 308.5zM183 1411l198 285h238l198 -285h-143l-174 150l-174 -150h-143zM422 336q0 -59 18 -84t60 -25t60 25t18 84v641q0 58 -18.5 83t-59.5 25 t-59.5 -25.5t-18.5 -82.5v-641z" />
<glyph unicode="&#xf5;" horiz-adv-x="999" d="M72 385v543q0 206 106 307.5t322 101.5t323 -101.5t107 -307.5v-543q0 -206 -107 -308t-323 -102t-322 101.5t-106 308.5zM178 1423q25 118 75.5 175t129.5 57q14 0 31.5 -2.5t37.5 -7.5l129 -33q13 -3 25.5 -4.5t26.5 -1.5q34 0 56.5 20t31.5 57h101 q-22 -121 -76.5 -179t-145.5 -58q-9 0 -21 2t-30 6l-137 35q-9 3 -19.5 4.5t-21.5 1.5q-37 0 -60 -18t-32 -53zM422 336q0 -59 18 -84t60 -25t60 25t18 84v641q0 58 -18.5 83t-59.5 25t-59.5 -25.5t-18.5 -82.5v-641z" />
<glyph unicode="&#xf6;" horiz-adv-x="999" d="M72 385v543q0 206 106 307.5t322 101.5t323 -101.5t107 -307.5v-543q0 -206 -107 -308t-323 -102t-322 101.5t-106 308.5zM201 1421v262h244v-262h-244zM422 336q0 -59 18 -84t60 -25t60 25t18 84v641q0 58 -18.5 83t-59.5 25t-59.5 -25.5t-18.5 -82.5v-641zM555 1421 v262h244v-262h-244z" />
<glyph unicode="&#xf7;" horiz-adv-x="1706" d="M254 496v231h1198v-231h-1198zM688 205q0 68 49 117t117 49t116 -48.5t48 -117.5q0 -68 -47.5 -116t-116.5 -48t-117.5 48t-48.5 116zM688 1016q0 68 49 117t117 49q67 0 115.5 -49t48.5 -117t-48.5 -116t-117.5 -48t-116.5 48t-47.5 116z" />
<glyph unicode="&#xf8;" horiz-adv-x="999" d="M14 0l101 162q-23 41 -33 92.5t-10 130.5v543q0 206 106 307.5t322 101.5q98 0 168 -18t123 -57l77 137l107 -66l-96 -168q26 -39 38.5 -95.5t12.5 -141.5v-543q0 -206 -107 -308t-323 -102q-98 0 -174 22t-127 64l-76 -124zM422 336q0 -59 18 -84t60 -25t60 25t18 84 v328l-156 -293v-35zM422 641l156 293v43q0 58 -18.5 83t-59.5 25t-59.5 -25.5t-18.5 -82.5v-336z" />
<glyph unicode="&#xf9;" d="M84 299v1014h348v-912q0 -50 18 -75t54 -25q46 0 66 34.5t20 119.5v858h346v-1313h-328v156q-45 -87 -116 -134t-156 -47q-126 0 -189 81.5t-63 242.5zM180 1696h295l199 -285h-144z" />
<glyph unicode="&#xfa;" d="M84 299v1014h348v-912q0 -50 18 -75t54 -25q46 0 66 34.5t20 119.5v858h346v-1313h-328v156q-45 -87 -116 -134t-156 -47q-126 0 -189 81.5t-63 242.5zM350 1411l199 285h295l-350 -285h-144z" />
<glyph unicode="&#xfb;" d="M84 299v1014h348v-912q0 -50 18 -75t54 -25q46 0 66 34.5t20 119.5v858h346v-1313h-328v156q-45 -87 -116 -134t-156 -47q-126 0 -189 81.5t-63 242.5zM195 1411l198 285h238l198 -285h-143l-174 150l-174 -150h-143z" />
<glyph unicode="&#xfc;" d="M84 299v1014h348v-912q0 -50 18 -75t54 -25q46 0 66 34.5t20 119.5v858h346v-1313h-328v156q-45 -87 -116 -134t-156 -47q-126 0 -189 81.5t-63 242.5zM213 1421v262h244v-262h-244zM567 1421v262h244v-262h-244z" />
<glyph unicode="&#xfd;" horiz-adv-x="864" d="M-6 1313h364l48 -559q7 -85 15 -186.5t17 -245.5q10 103 23 248.5t16 184.5l51 558h349l-232 -1211q-37 -197 -116 -268.5t-261 -71.5h-172v261h56q41 0 60 11.5t19 37.5q0 12 -3.5 41t-10.5 61zM270 1411l199 285h295l-350 -285h-144z" />
<glyph unicode="&#xfe;" horiz-adv-x="1010" d="M88 -238v1878h346v-456q41 73 108 113t146 40q126 0 188 -79.5t62 -241.5v-717q0 -162 -62.5 -243t-187.5 -81q-79 0 -143.5 38.5t-110.5 113.5v-365h-346zM434 442q0 -118 19 -162t63 -44q35 0 52.5 25.5t17.5 76.5v639q0 51 -17.5 75.5t-52.5 24.5q-45 0 -63.5 -43.5 t-18.5 -163.5v-428z" />
<glyph unicode="&#xff;" horiz-adv-x="864" d="M-6 1313h364l48 -559q7 -85 15 -186.5t17 -245.5q10 103 23 248.5t16 184.5l51 558h349l-232 -1211q-37 -197 -116 -268.5t-261 -71.5h-172v261h56q41 0 60 11.5t19 37.5q0 12 -3.5 41t-10.5 61zM133 1421v262h244v-262h-244zM487 1421v262h244v-262h-244z" />
<glyph unicode="&#x152;" horiz-adv-x="1563" d="M78 483v674q0 252 123 379t366 127q38 0 138 -11.5t167 -11.5h627v-317h-459v-326h406v-313h-406v-367h473v-317h-641q-43 0 -144.5 -12.5t-160.5 -12.5q-242 0 -365.5 128t-123.5 380zM453 422q0 -80 27 -116t87 -36q59 0 86 36t27 116v795q0 80 -27.5 116.5t-87.5 36.5 q-58 0 -85 -36.5t-27 -116.5v-795z" />
<glyph unicode="&#x153;" horiz-adv-x="1497" d="M72 385v543q0 206 106 307.5t322 101.5q84 0 144 -20.5t104 -63.5q51 43 117.5 63.5t152.5 20.5q200 0 304.5 -104.5t104.5 -304.5v-330h-507v-262q0 -59 18 -84t59 -25q42 0 60 25t18 84v153h352v-104q0 -203 -104.5 -306.5t-308.5 -103.5q-89 0 -153 22.5t-113 70.5 q-47 -45 -118 -69t-159 -24q-193 0 -296 106t-103 304zM422 336q0 -59 18 -84t60 -25t60 25t18 84v641q0 58 -18.5 83t-59.5 25t-59.5 -25.5t-18.5 -82.5v-641zM920 838h155v139q0 58 -18 83t-60 25q-40 0 -58.5 -25.5t-18.5 -82.5v-139z" />
<glyph unicode="&#x178;" horiz-adv-x="930" d="M-29 1640h394l63 -303q17 -85 26.5 -151t14.5 -131q10 115 40 261l1 3l65 321h383l-303 -968v-672h-370v645zM166 1749v262h244v-262h-244zM520 1749v262h244v-262h-244z" />
<glyph unicode="&#x2c6;" d="M195 1411l198 285h238l198 -285h-143l-174 150l-174 -150h-143z" />
<glyph unicode="&#x2dc;" d="M190 1423q25 118 75.5 175t129.5 57q14 0 31.5 -2.5t37.5 -7.5l129 -33q13 -3 25.5 -4.5t26.5 -1.5q34 0 56.5 20t31.5 57h101q-22 -121 -76.5 -179t-145.5 -58q-9 0 -21 2t-30 6l-137 35q-9 3 -19.5 4.5t-21.5 1.5q-37 0 -60 -18t-32 -53z" />
<glyph unicode="&#x2000;" horiz-adv-x="1072" />
<glyph unicode="&#x2001;" horiz-adv-x="2144" />
<glyph unicode="&#x2002;" horiz-adv-x="1072" />
<glyph unicode="&#x2003;" horiz-adv-x="2144" />
<glyph unicode="&#x2004;" horiz-adv-x="714" />
<glyph unicode="&#x2005;" horiz-adv-x="536" />
<glyph unicode="&#x2006;" horiz-adv-x="357" />
<glyph unicode="&#x2007;" horiz-adv-x="357" />
<glyph unicode="&#x2008;" horiz-adv-x="268" />
<glyph unicode="&#x2009;" horiz-adv-x="428" />
<glyph unicode="&#x200a;" horiz-adv-x="119" />
<glyph unicode="&#x2010;" horiz-adv-x="668" d="M68 518v313h532v-313h-532z" />
<glyph unicode="&#x2011;" horiz-adv-x="668" d="M68 518v313h532v-313h-532z" />
<glyph unicode="&#x2012;" horiz-adv-x="668" d="M68 518v313h532v-313h-532z" />
<glyph unicode="&#x2013;" d="M0 563v225h1024v-225h-1024z" />
<glyph unicode="&#x2014;" horiz-adv-x="2048" d="M0 563v225h2048v-225h-2048z" />
<glyph unicode="&#x2018;" horiz-adv-x="512" d="M102 1073v283q0 81 34.5 150.5t107.5 133.5h166q-67 -59 -106 -114.5t-50 -106.5h156v-346h-308z" />
<glyph unicode="&#x2019;" horiz-adv-x="512" d="M102 1073q67 60 106 115t50 106h-156v346h308v-282q0 -81 -34.5 -150.5t-107.5 -134.5h-166z" />
<glyph unicode="&#x201a;" horiz-adv-x="512" d="M102 0v346h308v-283q0 -81 -34.5 -150t-107.5 -134h-166q67 59 106 114.5t50 106.5h-156z" />
<glyph unicode="&#x201c;" horiz-adv-x="920" d="M102 1073v283q0 81 34.5 150.5t107.5 133.5h166q-67 -59 -106 -114.5t-50 -106.5h156v-346h-308zM510 1073v283q0 81 34.5 150.5t106.5 133.5h166q-67 -59 -106 -114.5t-49 -106.5h155v-346h-307z" />
<glyph unicode="&#x201d;" horiz-adv-x="920" d="M102 1073q67 60 106 115t50 106h-156v346h308v-282q0 -81 -34.5 -150.5t-107.5 -134.5h-166zM510 1073q67 60 106 115t50 106h-156v346h307v-282q0 -81 -34.5 -150.5t-106.5 -134.5h-166z" />
<glyph unicode="&#x201e;" horiz-adv-x="920" d="M102 0v346h308v-283q0 -81 -34.5 -150t-107.5 -134h-166q67 59 106 114.5t50 106.5h-156zM510 0v346h307v-283q0 -81 -34.5 -150t-106.5 -134h-166q67 59 106 114.5t50 106.5h-156z" />
<glyph unicode="&#x2022;" horiz-adv-x="1208" d="M307 762q0 123 87 209t210 86q122 0 208.5 -86.5t86.5 -208.5t-87.5 -209.5t-209.5 -87.5q-123 0 -209 87t-86 210z" />
<glyph unicode="&#x2026;" horiz-adv-x="2048" d="M176 0v389h332v-389h-332zM858 0v389h332v-389h-332zM1542 0v389h332v-389h-332z" />
<glyph unicode="&#x202f;" horiz-adv-x="428" />
<glyph unicode="&#x2039;" horiz-adv-x="606" d="M72 676l204 297h273l-211 -297l211 -297h-273z" />
<glyph unicode="&#x203a;" horiz-adv-x="606" d="M57 379l211 297l-211 297h273l207 -297l-207 -297h-273z" />
<glyph unicode="&#x205f;" horiz-adv-x="536" />
<glyph unicode="&#x2122;" horiz-adv-x="1706" d="M188 1337v127h502v-127h-164v-424h-174v424h-164zM797 913v551h223l113 -303l114 303h221v-551h-155v390l-146 -390h-65l-150 390v-390h-155z" />
<glyph unicode="&#xe000;" horiz-adv-x="1315" d="M0 0v1315h1315v-1315h-1315z" />
</font>
</defs>
</svg>
