<?xml version="1.0" standalone="no"?>
<!DOCTYPE svg PUBLIC "-//W3C//DTD SVG 1.1//EN" "http://www.w3.org/Graphics/SVG/1.1/DTD/svg11.dtd" >
<svg xmlns="http://www.w3.org/2000/svg">
<metadata></metadata>
<defs>
<font id="472-CAI978472-CAI978" horiz-adv-x="1194" >
<font-face units-per-em="2048" ascent="1556" descent="-492" />
<missing-glyph horiz-adv-x="598" />
<glyph horiz-adv-x="0" />
<glyph horiz-adv-x="2048" />
<glyph unicode=" "  horiz-adv-x="598" />
<glyph unicode="&#x09;" horiz-adv-x="598" />
<glyph unicode="&#xa0;" horiz-adv-x="598" />
<glyph unicode="!" horiz-adv-x="645" d="M133 164q0 78 57 135t134 57q78 0 135 -56.5t57 -135.5t-56.5 -136t-135.5 -57t-135 57t-56 136zM135 1303q0 102 47.5 155t139.5 53q89 0 138.5 -53.5t49.5 -152.5q0 -88 -53 -259q-14 -47 -21 -72q-27 -96 -43 -223.5t-22 -297.5h-96q-6 157 -23 288.5t-47 249.5 q-7 27 -24 82q-46 144 -46 230z" />
<glyph unicode="&#x22;" horiz-adv-x="707" d="M80 1350q0 52 28 83t74 31q48 0 75.5 -29t27.5 -81q0 -16 -0.5 -24.5t-1.5 -16.5l-80 -461h-41l-80 461q-1 7 -1.5 14.5t-0.5 22.5zM418 1350q0 53 28 83.5t76 30.5q49 0 77 -29.5t28 -80.5q0 -6 -1 -15t-3 -26l-80 -461h-41l-80 461q-2 12 -3 21t-1 16z" />
<glyph unicode="#" horiz-adv-x="1575" d="M45 406l74 196h287l88 248h-304l74 199h299l148 415h215l-148 -415h254l150 415h213l-148 -415h283l-74 -199h-278l-88 -248h292l-71 -196h-291l-148 -416h-215l148 416h-254l-150 -416h-215l148 416h-289zM614 600h265l88 252h-262z" />
<glyph unicode="$" d="M49 315q0 84 51 138.5t129 54.5q73 0 117.5 -45.5t44.5 -118.5q0 -67 -45 -111t-45 -53q0 -35 70.5 -69t164.5 -35l1 502q-234 53 -340.5 155t-106.5 271q0 176 123 295.5t324 134.5v211h116v-211q214 -11 334.5 -92t120.5 -214q0 -76 -46 -121.5t-122 -45.5 q-72 0 -119 41.5t-47 103.5q0 50 26.5 90t26.5 47q0 32 -49.5 58t-124.5 30v-438q262 -73 369.5 -181t107.5 -292q0 -186 -126.5 -304.5t-350.5 -140.5v-254h-118l-1 254q-219 5 -352 99t-133 241zM336 1133q0 -81 50 -131.5t151 -73.5l-1 403q-92 -9 -146 -62.5t-54 -135.5 zM653 547l1 -471q105 9 167 74.5t62 168.5q0 93 -49 142.5t-181 85.5z" />
<glyph unicode="%" horiz-adv-x="1731" d="M96 907q0 84 36 170t106 168q76 89 159.5 134.5t169.5 45.5q67 0 118 -26t81 -76q33 -24 70 -35.5t79 -11.5q92 0 184 47t142 121h92l-841 -1479h-101l746 1321q-58 -32 -114 -48.5t-110 -16.5q-34 0 -62 5t-48 15q3 -10 4.5 -22.5t1.5 -38.5q0 -98 -36.5 -199 t-102.5 -188q-63 -83 -140 -126.5t-157 -43.5q-122 0 -199.5 79.5t-77.5 204.5zM305 776q0 -41 28.5 -68.5t72.5 -27.5q54 0 111 43.5t112 126.5q59 91 91 180.5t32 165.5q0 16 -1.5 31.5t-4.5 29.5q-37 7 -65 26t-46 50q-40 -3 -82 -45.5t-96 -134.5q-72 -121 -112 -221 t-40 -156zM922 248q0 86 35 172.5t104 167.5q74 86 154 131t159 45q125 0 194.5 -67t69.5 -185q0 -88 -38 -188t-107 -191q-65 -84 -137.5 -126t-155.5 -42q-126 0 -202 77t-76 206zM1128 125q0 -47 28 -73.5t77 -26.5q57 0 113.5 41.5t111.5 123.5q59 87 91 174t32 156 q0 64 -30 104t-76 40t-91 -39t-100 -125q-74 -119 -115 -217t-41 -158z" />
<glyph unicode="&#x26;" horiz-adv-x="1677" d="M29 375q0 147 102.5 259t317.5 197q-46 79 -68.5 150.5t-22.5 138.5q0 171 120 284.5t302 113.5q184 0 293 -80.5t109 -212.5q0 -113 -86.5 -201t-274.5 -166q75 -128 148 -235.5t147 -200.5q45 53 71.5 111.5t26.5 101.5q0 50 -40.5 75t-122.5 25h-21v103h555v-103 q-83 0 -130.5 -21t-80.5 -71q-14 -22 -74 -135t-118 -180q67 -83 112.5 -115.5t91.5 -32.5q56 0 94.5 46t59.5 139l94 -33q-38 -189 -127.5 -278t-240.5 -89q-84 0 -163.5 34t-160.5 103q-111 -71 -229.5 -108t-237.5 -37q-195 0 -320.5 119t-125.5 299zM381 545 q0 -52 19.5 -115.5t54.5 -122.5q52 -88 116.5 -132t141.5 -44q41 0 78 13.5t65 37.5q-78 83 -169 221.5t-193 331.5q-55 -30 -84 -78.5t-29 -111.5zM643 1251q0 -59 29.5 -133.5t91.5 -171.5q104 51 152.5 117t48.5 156q0 84 -46 135t-122 51q-74 0 -114 -40t-40 -114z" />
<glyph unicode="'" horiz-adv-x="365" d="M78 1350q0 53 28 83.5t76 30.5t75.5 -29t27.5 -81q0 -16 -0.5 -24.5t-1.5 -16.5l-80 -461h-41l-80 461q-2 12 -3 21t-1 16z" />
<glyph unicode="(" horiz-adv-x="834" d="M135 635q0 285 149.5 520t407.5 354l-4 -79q-143 -105 -211.5 -296t-68.5 -487q0 -314 65.5 -504.5t214.5 -314.5l4 -80q-263 127 -410 361t-147 526z" />
<glyph unicode=")" horiz-adv-x="834" d="M137 -252l4 80q145 105 214 295.5t69 484.5q0 313 -66.5 504t-216.5 315l-4 82q263 -127 410 -361t147 -525q0 -286 -149.5 -520.5t-407.5 -354.5z" />
<glyph unicode="*" horiz-adv-x="1024" d="M117 930q0 42 31 69.5t85 32.5q8 1 23 2q147 10 223 51q-84 45 -242 53q-8 1 -12 1q-49 3 -78.5 31t-29.5 71q0 50 33.5 85.5t80.5 35.5q55 0 111 -85l14 -21q38 -54 70.5 -86.5t69.5 -54.5q-5 86 -51 181t-46 121q0 45 31.5 74t81.5 29q49 0 80 -29.5t31 -75.5 q0 -20 -44.5 -115t-52.5 -184q41 23 75 56.5t67 82.5q4 7 13 21q58 86 118 86q41 0 73.5 -37.5t32.5 -83.5q0 -49 -28.5 -71.5t-120.5 -30.5q-74 -6 -122 -18t-89 -34q37 -21 82.5 -32.5t130.5 -18.5q82 -5 114.5 -30t32.5 -78q0 -48 -33 -83.5t-77 -35.5q-57 0 -125 100 l-4 6q-39 57 -71 90.5t-67 52.5q4 -87 50.5 -183.5t46.5 -120.5q0 -45 -31 -73t-82 -28t-81 27.5t-30 75.5q0 23 45.5 119.5t50.5 180.5q-39 -23 -73.5 -57.5t-67.5 -83.5q-4 -6 -11 -17q-56 -87 -122 -87q-41 0 -73.5 37t-32.5 82z" />
<glyph unicode="+" horiz-adv-x="1706" d="M254 512v199h498v510h202v-510h498v-199h-498v-512h-202v512h-498z" />
<glyph unicode="," horiz-adv-x="598" d="M96 147q0 90 53 144.5t140 54.5q95 0 150 -64t55 -178q0 -125 -80 -236t-246 -218l-47 76q93 62 136.5 122.5t43.5 124.5v16q-17 -3 -29 -4t-24 -1q-67 0 -109.5 45.5t-42.5 117.5z" />
<glyph unicode="-" horiz-adv-x="674" d="M90 387v244h492v-244h-492z" />
<glyph unicode="." horiz-adv-x="598" d="M106 164q0 78 57 135t134 57q78 0 135 -56.5t57 -135.5t-56.5 -136t-135.5 -57q-78 0 -134.5 57t-56.5 136z" />
<glyph unicode="/" horiz-adv-x="569" d="M-8 -190l481 1671h113l-482 -1671h-112z" />
<glyph unicode="0" d="M61 705q0 331 149 535t388 204q242 0 388.5 -201t146.5 -538q0 -334 -148 -537t-387 -203t-388 204t-149 536zM418 705q0 -350 40.5 -491.5t137.5 -141.5t138.5 142.5t41.5 490.5q0 350 -41 490t-139 140t-138 -137t-40 -493z" />
<glyph unicode="1" d="M211 1194v111q191 6 319 41.5t189 99.5h86v-1215q0 -79 21 -98.5t104 -19.5h121v-113h-824v113h125q83 0 105 18t22 100v842q0 78 -21.5 99.5t-105.5 21.5h-141z" />
<glyph unicode="2" d="M43 1v73q111 152 286.5 345t198.5 220q119 139 160 235.5t41 210.5q0 119 -56 182.5t-161 63.5q-92 0 -158.5 -44t-66.5 -97q0 -21 38 -37q12 -5 19 -8q60 -28 88.5 -69t28.5 -99q0 -78 -47.5 -127t-122.5 -49q-93 0 -147 64.5t-54 176.5q0 179 138 288.5t368 109.5 q215 0 348 -108.5t133 -282.5q0 -133 -67 -236t-234 -219q-54 -38 -157 -105q-194 -127 -269 -194h451q101 0 127 34.5t51 209.5h108l-47 -539q-135 5 -257.5 7.5t-235.5 2.5t-236.5 -2.5t-267.5 -6.5z" />
<glyph unicode="3" d="M70 301q0 91 51 146t135 55q81 0 130.5 -44.5t49.5 -115.5q0 -76 -52 -133.5t-52 -63.5q0 -35 52.5 -58.5t135.5 -23.5q121 0 181.5 81t60.5 243q0 148 -45.5 224.5t-134.5 76.5q-32 0 -82 -8t-70 -8q-36 0 -57 18t-21 49q0 37 20.5 56.5t59.5 19.5q16 0 64 -7t79 -7 q87 0 127.5 67t40.5 211q0 129 -50.5 195.5t-147.5 66.5q-73 0 -120.5 -25t-47.5 -63q0 -18 48 -63.5t48 -106.5q0 -70 -47.5 -113.5t-124.5 -43.5q-81 0 -129.5 51t-48.5 137q0 146 129.5 237t341.5 91q218 0 348.5 -100t130.5 -267q0 -121 -86.5 -202.5t-263.5 -127.5 q186 -18 288.5 -113t102.5 -249q0 -193 -145 -305.5t-398 -112.5q-227 0 -364 93t-137 243z" />
<glyph unicode="4" d="M68 371v153l743 914h141q-6 -104 -9 -192t-3 -163v-575h203v-137h-203v-140q0 -83 21 -100.5t100 -17.5h55v-113h-688v113h78q78 0 98.5 17.5t20.5 100.5v140h-557zM211 508h414v516z" />
<glyph unicode="5" d="M78 303q0 102 54.5 161.5t146.5 59.5q81 0 129.5 -46.5t48.5 -123.5q0 -49 -18 -82.5t-56 -58.5q-8 -5 -26 -14q-35 -17 -35 -35q0 -33 50.5 -60.5t119.5 -27.5q140 0 209 102t69 309q0 160 -68.5 246t-195.5 86q-48 0 -98.5 -17.5t-110.5 -56.5q-6 -68 -26.5 -99.5 t-57.5 -31.5q-32 0 -50 19.5t-18 54.5q0 22 12.5 45t37.5 47q21 172 33.5 340t15.5 330h61q115 -21 223 -31t213 -10q86 0 163.5 12t142.5 35l22 -33q-45 -154 -157 -232.5t-287 -78.5q-65 0 -136 7.5t-145 20.5q-3 -59 -8.5 -124t-13.5 -139q77 32 151.5 47.5t147.5 15.5 q220 0 358.5 -128t138.5 -333q0 -234 -154 -375t-411 -141q-205 0 -340 97.5t-135 242.5z" />
<glyph unicode="6" d="M78 653q0 364 174.5 576.5t468.5 212.5q166 0 270.5 -76.5t104.5 -196.5q0 -92 -49 -143t-138 -51q-86 0 -136 44t-50 120q0 54 38 100.5t38 54.5q0 25 -24.5 37t-72.5 12q-135 0 -206.5 -156.5t-71.5 -457.5q62 74 136 109.5t167 35.5q183 0 295.5 -121.5t112.5 -318.5 q0 -201 -144.5 -335t-363.5 -134q-259 0 -404 182t-145 506zM436 397q0 -168 43 -247.5t133 -79.5t132 79t42 248t-42 247.5t-132 78.5t-133 -79t-43 -247z" />
<glyph unicode="7" d="M135 834l74 608q93 -14 206 -20.5t263 -6.5q119 0 239.5 4t245.5 13v-72q-162 -325 -239.5 -546t-89.5 -390q-4 -43 -5 -121q-2 -155 -28 -217q-26 -63 -71.5 -94t-111.5 -31q-89 0 -140.5 56t-51.5 153q0 205 389 772q82 118 125 182q-76 -5 -152 -7.5t-153 -2.5 q-74 0 -152 3t-82 3q-60 0 -80.5 -22.5t-35.5 -91.5l-41 -187z" />
<glyph unicode="8" d="M59 336q0 124 78.5 204.5t218.5 98.5q-111 51 -172 146t-61 216q0 194 139 318.5t361 124.5q201 0 323.5 -89.5t122.5 -234.5q0 -98 -65.5 -171.5t-184.5 -108.5q155 -56 228 -154t73 -252q0 -215 -147.5 -343t-397.5 -128q-245 0 -380.5 98t-135.5 275zM319 332 q0 -127 71 -195.5t202 -68.5q126 0 202 66t76 175q0 163 -364 270l-51 15q-63 -31 -99.5 -101.5t-36.5 -160.5zM365 1139q0 -87 78.5 -147.5t269.5 -114.5q53 45 80.5 105.5t27.5 131.5q0 106 -61 164.5t-170 58.5q-105 0 -165 -53t-60 -145z" />
<glyph unicode="9" d="M57 971q0 202 144.5 336.5t363.5 134.5q258 0 403.5 -183t145.5 -507q0 -364 -174.5 -576.5t-468.5 -212.5q-166 0 -270.5 77.5t-104.5 197.5q0 92 49 142t138 50q87 0 136.5 -43t49.5 -119q0 -54 -38 -101.5t-38 -55.5q0 -25 24.5 -37.5t71.5 -12.5q136 0 207.5 157 t71.5 458q-62 -74 -136 -110t-167 -36q-183 0 -295.5 122t-112.5 319zM406 1008q0 -169 42 -247.5t132 -78.5t133 79t43 247t-43 247.5t-133 79.5t-132 -79t-42 -248z" />
<glyph unicode=":" horiz-adv-x="645" d="M123 160q0 79 57.5 135.5t136.5 56.5t136 -56.5t57 -135.5t-56.5 -136t-136.5 -57q-81 0 -137.5 56.5t-56.5 136.5zM123 801q0 79 57.5 135.5t136.5 56.5t136 -56.5t57 -135.5t-56.5 -136t-136.5 -57q-81 0 -137.5 56.5t-56.5 136.5z" />
<glyph unicode=";" horiz-adv-x="645" d="M115 147q0 90 52.5 144.5t139.5 54.5q96 0 150.5 -64t54.5 -178q0 -125 -80.5 -237t-245.5 -217l-49 76q94 63 138 123.5t44 123.5v17q-15 -3 -28 -4.5t-25 -1.5q-67 0 -109 45.5t-42 117.5zM117 801q0 79 57.5 135.5t136.5 56.5t136 -56.5t57 -135.5t-57 -136t-136 -57 q-81 0 -137.5 56.5t-56.5 136.5z" />
<glyph unicode="&#x3c;" horiz-adv-x="1706" d="M264 512v199l1178 483v-219l-893 -365l893 -364v-219z" />
<glyph unicode="=" horiz-adv-x="1706" d="M254 297v199h1198v-199h-1198zM254 727v199h1198v-199h-1198z" />
<glyph unicode="&#x3e;" horiz-adv-x="1706" d="M264 27v219l895 364l-895 365v219l1178 -483v-199z" />
<glyph unicode="?" horiz-adv-x="1067" d="M55 1192q0 136 130.5 231t324.5 95q233 0 360 -94.5t127 -266.5q0 -195 -296 -405l-14 -10q-106 -75 -133.5 -125t-27.5 -130v-32h-96v51q0 106 17 165.5t57 123.5q10 16 30 46q123 187 123 326q0 119 -54.5 184.5t-153.5 65.5q-60 0 -104 -22t-44 -49q0 -12 55.5 -63 t55.5 -118q0 -75 -45.5 -118t-124.5 -43q-84 0 -135.5 52t-51.5 136zM285 162q0 79 56.5 135.5t135.5 56.5t136 -57t57 -135q0 -80 -56.5 -136.5t-136.5 -56.5t-136 57t-56 136z" />
<glyph unicode="@" horiz-adv-x="2019" d="M133 535q0 155 52 298.5t153 264.5q145 174 346.5 267t435.5 93q349 0 558.5 -189t209.5 -503q0 -161 -59 -299.5t-170 -239.5q-59 -53 -126.5 -80.5t-137.5 -27.5q-98 0 -155 52t-64 148q-62 -100 -134.5 -148t-160.5 -48q-142 0 -222.5 91t-80.5 251q0 114 50 221.5 t144 196.5q69 64 148 97.5t161 33.5q96 0 150.5 -45t71.5 -138l49 164h190l-174 -618l-2 -7q-14 -58 -14 -87q0 -47 20.5 -74t54.5 -27q33 0 85 25t98 63q103 88 158 217t55 285q0 275 -188.5 446t-489.5 171q-138 0 -262 -38t-228 -112q-173 -121 -266.5 -308.5 t-93.5 -416.5q0 -335 210.5 -532t565.5 -197q166 0 319.5 50.5t307.5 156.5l39 -51q-151 -113 -318 -169.5t-348 -56.5q-187 0 -347.5 46t-277.5 133q-151 112 -232 277.5t-81 363.5zM788 362q0 -79 34.5 -125.5t92.5 -46.5q64 0 124.5 62t115.5 182q40 92 63 185.5 t23 162.5q0 80 -32 123t-91 43q-62 0 -112.5 -44.5t-100.5 -143.5q-57 -114 -87 -215t-30 -183z" />
<glyph unicode="A" horiz-adv-x="1561" d="M-37 0v106q85 14 144.5 75t119.5 200l480 1120h153l565 -1308q21 -47 49 -65t87 -22v-106h-689v106l101 7q30 1 43.5 12t13.5 35q0 9 -3 21.5t-11 35.5l-92 229h-525l-47 -108q-10 -25 -16 -53.5t-6 -51.5q0 -66 48 -94.5t167 -32.5v-106h-582zM455 575h417l-202 498z " />
<glyph unicode="B" horiz-adv-x="1593" d="M35 0v109h110q62 0 83.5 20t21.5 86v1049q0 67 -21.5 87.5t-83.5 20.5h-110v107h876q254 0 388.5 -91t134.5 -262q0 -151 -103.5 -238t-312.5 -112q229 -16 358 -118t129 -265q0 -193 -158.5 -293t-463.5 -100h-848zM612 256q0 -94 26 -119.5t140 -25.5q188 0 267 70 t79 233q0 74 -24 132t-70 95q-41 33 -103.5 47t-213.5 14h-29q-29 0 -44 -0.5t-28 -3.5v-442zM612 819q17 -2 35 -3t47 -1q211 0 293 63t82 218q0 152 -69.5 214t-243.5 62q-96 0 -120 -19.5t-24 -92.5v-441z" />
<glyph unicode="C" horiz-adv-x="1591" d="M76 739q0 155 49.5 290t146.5 245q107 120 247.5 178.5t322.5 58.5q111 0 205.5 -28t175.5 -86l114 106h86l29 -596l-104 -8q-66 251 -186.5 379.5t-291.5 128.5q-201 0 -293 -155t-92 -500q0 -353 96 -503.5t318 -150.5q172 0 292 113t177 328l111 -37 q-54 -263 -220.5 -402t-429.5 -139q-132 0 -247 36t-209 107q-146 112 -221.5 274t-75.5 361z" />
<glyph unicode="D" horiz-adv-x="1702" d="M35 0v109h110q62 0 83.5 20t21.5 86v1049q0 67 -21.5 87.5t-83.5 20.5h-110v107h723q433 0 648.5 -184.5t215.5 -555.5q0 -352 -205.5 -545.5t-580.5 -193.5h-801zM618 209q0 -56 18.5 -75t74.5 -19h141q203 0 291 145t88 483q0 354 -98 491.5t-351 137.5h-71 q-56 0 -74.5 -19.5t-18.5 -76.5v-1067z" />
<glyph unicode="E" horiz-adv-x="1554" d="M45 0v109h102q62 0 83.5 20t21.5 86v1049q0 67 -21.5 87.5t-83.5 20.5h-102v107h1335l17 -533h-101q-54 236 -173.5 332t-358.5 96q-101 0 -125.5 -21t-24.5 -89v-445h29q133 0 198.5 63.5t92.5 221.5h102v-678h-102q-27 156 -92.5 219.5t-198.5 63.5h-29v-494 q0 -68 26.5 -89.5t129.5 -21.5q261 0 390.5 103.5t189.5 355.5l102 -8l-27 -555h-1380z" />
<glyph unicode="F" horiz-adv-x="1475" d="M43 0v109h104q62 0 83.5 20t21.5 86v1049q0 67 -21.5 87.5t-83.5 20.5h-104v107h1337l17 -533h-101q-58 233 -176.5 327.5t-355.5 94.5q-101 0 -125.5 -21t-24.5 -90v-438h29q133 0 198.5 63.5t92.5 221.5h102v-678h-102q-27 156 -92.5 219.5t-198.5 63.5h-29v-494 q0 -67 21 -86.5t82 -19.5h147v-109h-821z" />
<glyph unicode="G" horiz-adv-x="1700" d="M76 739q0 194 77.5 356.5t223.5 274.5q94 73 217.5 110.5t269.5 37.5q128 0 227 -30t171 -89l116 104h92l19 -579l-103 -9q-64 232 -196 362t-301 130q-206 0 -305 -163.5t-99 -506.5q0 -342 88 -499.5t279 -157.5q144 0 222.5 87.5t78.5 248.5v57q0 63 -21.5 86 t-80.5 23h-111v106h731v-106h-80q-60 0 -82 -23t-22 -86v-508h-96l-105 203q-80 -98 -205.5 -151.5t-271.5 -53.5q-122 0 -235 36.5t-207 106.5q-143 105 -217 265.5t-74 367.5z" />
<glyph unicode="H" horiz-adv-x="1778" d="M43 0v109h104q62 0 82.5 19.5t20.5 86.5v1049q0 67 -21 87.5t-82 20.5h-104v107h780v-107h-102q-61 0 -83 -21t-22 -87v-435h543v435q0 67 -21 87.5t-81 20.5h-103v107h781v-107h-105q-60 0 -81 -20.5t-21 -87.5v-1049q0 -67 20.5 -86.5t81.5 -19.5h105v-109h-781v109 h103q61 0 81.5 19.5t20.5 86.5v481h-543v-481q0 -66 21.5 -86t83.5 -20h102v-109h-780z" />
<glyph unicode="I" horiz-adv-x="909" d="M53 0v109h113q62 0 83 20t21 86v1049q0 67 -21 87.5t-83 20.5h-113v107h805v-107h-117q-60 0 -81 -20.5t-21 -87.5v-1049q0 -67 20.5 -86.5t81.5 -19.5h117v-109h-805z" />
<glyph unicode="J" horiz-adv-x="1323" d="M4 381q0 131 71.5 214t182.5 83q99 0 154 -57.5t55 -159.5q0 -86 -47 -137.5t-127 -51.5q-26 0 -52.5 5.5t-27.5 5.5q-14 0 -22.5 -12.5t-8.5 -32.5q0 -59 71.5 -103.5t174.5 -44.5q159 0 227 105.5t68 367.5v701q0 66 -21.5 87t-83.5 21h-104v107h780v-107h-102 q-61 0 -83 -21t-22 -87v-695q0 -151 -19 -233.5t-62 -151.5q-70 -109 -194.5 -166t-291.5 -57q-242 0 -379 111.5t-137 308.5z" />
<glyph unicode="K" horiz-adv-x="1667" d="M43 0v109h102q62 0 83.5 20t21.5 86v1049q0 67 -21.5 87.5t-83.5 20.5h-102v107h774v-107h-100q-62 0 -83.5 -21t-21.5 -87v-555l465 497q30 32 39.5 51t9.5 39q0 38 -35 57t-102 19h-59v107h688v-106q-99 -2 -174 -36t-164 -125l-252 -258l481 -770q25 -38 58 -56.5 t78 -18.5h28v-109h-743v109h55q57 0 86 12t29 37q0 22 -34 76l-1 2l-285 464l-168 -180v-305q0 -68 20.5 -87t82.5 -19h102v-109h-774z" />
<glyph unicode="L" horiz-adv-x="1475" d="M39 0v109h104q62 0 83.5 20t21.5 86v1049q0 68 -21 88t-82 20h-106v107h811v-107h-129q-61 0 -83 -21t-22 -87v-1043q0 -66 25 -87t131 -21q248 0 373.5 102.5t185.5 353.5l103 -10l-27 -559h-1368z" />
<glyph unicode="M" horiz-adv-x="2003" d="M14 0v108q125 6 171 58t46 205v891q0 67 -22 88.5t-80 21.5h-104v107h661l320 -885l303 885h649v-107h-103q-61 0 -82.5 -21t-21.5 -87v-1049q0 -66 21 -86t83 -20h103v-109h-764v109h92q62 0 83.5 20t21.5 86v1108l-445 -1323h-102l-473 1315v-944q0 -154 50 -207.5 t183 -55.5v-108h-590z" />
<glyph unicode="N" horiz-adv-x="1722" d="M33 0v106q126 12 171.5 63t45.5 202v889l-39 40q-41 46 -73.5 59t-82.5 13h-22v107h516l780 -922v553q0 159 -50 210t-193 52l-1 107h603v-107q-124 -6 -167.5 -57t-43.5 -205v-1130h-129l-965 1142v-751q0 -154 50.5 -207.5t187.5 -57.5v-106h-588z" />
<glyph unicode="O" horiz-adv-x="1698" d="M76 739q0 165 53 305.5t156 247.5q108 113 247.5 168.5t315.5 55.5q182 0 320 -55.5t249 -172.5q100 -105 152.5 -245t52.5 -304q0 -170 -48 -297.5t-153 -236.5q-114 -119 -258.5 -179.5t-314.5 -60.5q-173 0 -311.5 57.5t-253.5 178.5q-108 110 -157.5 239t-49.5 299z M485 739q0 -337 89 -499t274 -162q183 0 273.5 164t90.5 497q0 337 -89.5 499.5t-274.5 162.5q-184 0 -273.5 -163.5t-89.5 -498.5z" />
<glyph unicode="P" horiz-adv-x="1554" d="M35 0v109h110q62 0 83.5 20t21.5 86v1049q0 67 -21.5 87.5t-83.5 20.5h-110v107h903q277 0 420 -107t143 -313q0 -217 -166.5 -321.5t-513.5 -104.5q-80 0 -123 0.5t-81 1.5l-1 -420q0 -66 19.5 -86t81.5 -20h129v-109h-811zM616 752q20 -4 45 -5.5t58 -1.5 q223 0 307 69.5t84 244.5q0 172 -74 242.5t-260 70.5q-105 0 -132.5 -23t-27.5 -106v-491z" />
<glyph unicode="Q" horiz-adv-x="1698" d="M76 739q0 165 53 305.5t156 247.5q106 112 246 168t317 56q191 0 325 -54t246 -176q102 -111 152.5 -250t50.5 -309q0 -207 -85.5 -365t-262.5 -278q38 -136 85 -209.5t95 -73.5q43 0 64.5 38.5t24.5 117.5h110q0 -161 -99.5 -255.5t-267.5 -94.5q-153 0 -237 86t-84 244 q0 6 1 18t0 18q-43 -5 -73 -7.5t-53 -2.5q-125 0 -240.5 37t-210.5 106q-160 118 -236.5 272.5t-76.5 360.5zM483 739q0 -140 10 -232t31 -142q19 110 100 171.5t207 61.5q113 0 199.5 -63t136.5 -181q23 80 34 177t11 208q0 337 -89.5 499.5t-274.5 162.5 q-184 0 -274.5 -164t-90.5 -498zM606 283q0 -95 68 -150t184 -55q33 0 61.5 6t53.5 18q2 27 3 47t1 39q0 141 -46.5 216t-133.5 75q-89 0 -140 -52.5t-51 -143.5z" />
<glyph unicode="R" horiz-adv-x="1663" d="M35 0v109h110q63 0 84 22t21 84v1049q0 63 -21.5 85.5t-83.5 22.5h-110v107h903q271 0 411 -95.5t140 -279.5q0 -163 -120.5 -259t-336.5 -104l1 -14q112 -3 193.5 -69t121.5 -187q20 -62 41 -172q29 -160 90 -160q42 0 63 48.5t23 152.5h104v-16q0 -172 -90 -266.5 t-252 -94.5q-110 0 -185 35t-112 104q-40 75 -41 237q0 53 -2 81q-11 183 -70 238t-223 55q-32 0 -49 -0.5t-32 -1.5l-1 -496q0 -62 20.5 -84t82.5 -22h110v-109h-790zM612 819q17 -2 34.5 -3t51.5 -1q233 0 324.5 63.5t91.5 219.5q0 151 -75.5 212.5t-268.5 61.5 q-104 0 -131 -19.5t-27 -92.5v-441z" />
<glyph unicode="S" horiz-adv-x="1421" d="M133 1055q0 200 147.5 330.5t378.5 130.5q104 0 199 -27.5t184 -83.5l103 100h90l25 -540h-97q-109 236 -228 340t-278 104q-130 0 -202 -58.5t-72 -162.5q0 -151 349 -228q65 -14 99 -22q166 -38 240 -72t127 -86q62 -60 95.5 -148t33.5 -192q0 -218 -144 -346.5 t-390 -128.5q-130 0 -232.5 32t-193.5 101l-121 -123h-88l-19 594h105q88 -243 231 -369t330 -126q134 0 210.5 64t76.5 175q0 49 -20.5 90t-55.5 66q-52 36 -256 84q-75 18 -117 29q-275 68 -392.5 178t-117.5 295z" />
<glyph unicode="T" horiz-adv-x="1475" d="M29 922l32 557h1350l33 -557h-101q-28 215 -116.5 337.5t-214.5 122.5q-54 0 -73 -21t-19 -83v-1063q0 -66 21 -86t83 -20h100v-109h-776v109h103q61 0 81.5 19.5t20.5 86.5v1063q0 63 -18.5 83.5t-71.5 20.5q-126 0 -214.5 -122.5t-117.5 -337.5h-102z" />
<glyph unicode="U" horiz-adv-x="1702" d="M35 1372v107h780v-107h-102q-62 0 -83.5 -21t-21.5 -87v-748q0 -205 85.5 -298t273.5 -93q82 0 151 22.5t115 63.5q56 50 79 127t23 264v537q0 134 -47.5 183.5t-165.5 49.5h-14v107h563v-107q-113 -10 -157 -58t-44 -175v-555q0 -176 -16.5 -253.5t-56.5 -137.5 q-76 -117 -210 -173.5t-335 -56.5q-301 0 -454.5 125t-153.5 371v805q0 66 -21.5 87t-83.5 21h-104z" />
<glyph unicode="V" horiz-adv-x="1548" d="M6 1372v107h721v-107h-72q-47 0 -71.5 -13t-24.5 -38q0 -9 3.5 -22t13.5 -38l333 -849l287 729q10 28 15.5 53t5.5 49q0 66 -46 95t-155 32v109h596l-1 -105q-86 -3 -154 -65t-116 -181l-469 -1165h-167l-537 1323q-20 47 -56.5 66.5t-105.5 19.5z" />
<glyph unicode="W" horiz-adv-x="1954" d="M-18 1372v107h636v-107h-38q-42 0 -62 -14.5t-20 -44.5q0 -13 3.5 -29.5t10.5 -38.5l250 -735l164 516l-86 256q-19 54 -39.5 72t-52.5 18h-35v107h606v-107h-33q-46 0 -67 -14.5t-21 -46.5q0 -17 3 -33t9 -32l224 -718l192 619q10 32 15.5 63.5t5.5 57.5q0 54 -32 79 t-102 25h-59v107h518v-107h-6q-73 0 -114 -37t-72 -135l-385 -1231h-144l-260 848l-270 -848h-148l-450 1321q-17 50 -36.5 66t-55.5 16h-49z" />
<glyph unicode="X" horiz-adv-x="1479" d="M-25 0v104q158 14 324 226q16 20 25 30l245 308l-446 624q-36 53 -63.5 68.5t-67.5 15.5h-6v103h712v-107h-51q-44 0 -69 -12t-25 -33q0 -11 6 -24.5t19 -30.5l223 -316l172 218q23 29 33 51t10 43q0 56 -45.5 80t-151.5 24v107h627v-107q-155 0 -289 -173l-10 -13 l-268 -344l438 -625q40 -57 77 -85t74 -28h33v-104h-733v104q82 6 110.5 18t28.5 38q0 20 -39 75l-2 3l-223 317l-156 -195q-33 -43 -49 -78.5t-16 -66.5q0 -59 51 -85t174 -26v-104h-672z" />
<glyph unicode="Y" horiz-adv-x="1460" d="M-45 1372v107h739v-107h-59q-46 0 -67 -12.5t-21 -40.5q0 -23 71 -142.5t230 -361.5l188 338q24 44 33.5 70t9.5 45q0 50 -34 77t-99 27h-59v107h598v-109q-80 0 -138 -36.5t-108 -119.5l-332 -557v-442q0 -66 21.5 -86t83.5 -20h127v-109h-824v109h123q62 0 83.5 20 t21.5 86v410l-398 628q-47 76 -80.5 97.5t-87.5 21.5h-22z" />
<glyph unicode="Z" horiz-adv-x="1358" d="M47 0v106l827 1262h-165q-221 0 -330 -88.5t-176 -314.5l-107 4l31 510h1165v-105l-819 -1263h223q207 0 314 98t180 352h106l-36 -561h-1213z" />
<glyph unicode="[" horiz-adv-x="834" d="M172 -236v1715h526v-88h-280v-1538h280v-89h-526z" />
<glyph unicode="\" horiz-adv-x="569" d="M-8 1481h112l482 -1671h-113z" />
<glyph unicode="]" horiz-adv-x="834" d="M133 -147h279v1538h-279v88h526v-1715h-526v89z" />
<glyph unicode="^" horiz-adv-x="2048" d="M412 897l493 565h236l491 -565h-112l-498 373l-498 -373h-112z" />
<glyph unicode="_" horiz-adv-x="1024" d="M0 -279h1024v-204h-1024v204z" />
<glyph unicode="`" horiz-adv-x="1024" d="M180 1399q0 45 32 76.5t79 31.5q35 0 70.5 -21.5t84.5 -74.5l279 -295h-115l-325 162q-56 28 -80.5 56.5t-24.5 64.5z" />
<glyph unicode="a" horiz-adv-x="1241" d="M88 209q0 155 162.5 248.5t513.5 140.5v111q0 108 -43 153t-143 45q-65 0 -109.5 -21.5t-44.5 -49.5q0 -7 26.5 -41t26.5 -76q0 -58 -45.5 -93.5t-118.5 -35.5q-74 0 -123 43t-49 108q0 128 123 198.5t348 70.5q126 0 221.5 -25.5t157.5 -75.5q49 -38 68.5 -86.5 t19.5 -148.5v-438q0 -49 17.5 -70t56.5 -21q18 0 41 10.5t29 10.5q12 0 19 -8t7 -23q0 -64 -73 -117t-175 -53q-76 0 -130 40.5t-64 104.5q-84 -69 -190.5 -107t-219.5 -38q-147 0 -228 64t-81 180zM426 250q0 -63 34.5 -100t92.5 -37q95 0 152 70.5t57 193.5v119 q-182 -29 -259 -86t-77 -160z" />
<glyph unicode="b" horiz-adv-x="1327" d="M0 1391v100l494 25v-652q63 72 137 106t166 34q207 0 335 -141.5t128 -370.5q0 -238 -141 -382.5t-371 -144.5q-122 0 -212.5 43t-150.5 129l-131 -170h-98q10 58 15 115t5 117v1114q0 48 -21 64t-89 16q-9 0 -31 -1t-35 -1zM494 434q0 -177 52.5 -269.5t153.5 -92.5 q105 0 155 97.5t50 301.5q0 192 -51 286.5t-154 94.5q-104 0 -155 -103.5t-51 -314.5z" />
<glyph unicode="c" horiz-adv-x="1128" d="M61 485q0 234 160 377.5t422 143.5q185 0 300.5 -77t115.5 -198q0 -87 -51.5 -138.5t-139.5 -51.5q-72 0 -120 45.5t-48 111.5q0 59 34 102t34 44q0 23 -33 40t-82 17q-124 0 -182.5 -94.5t-58.5 -292.5q0 -203 69 -306.5t205 -103.5q105 0 177 64t112 192l104 -32 q-47 -177 -169 -269t-308 -92q-240 0 -390.5 144t-150.5 374z" />
<glyph unicode="d" horiz-adv-x="1337" d="M66 469q0 229 135 378.5t340 149.5q85 0 157.5 -33t132.5 -100v447q0 45 -16 60t-78 15h-90v105l502 25v-1346q0 -49 22 -65.5t91 -16.5q8 0 28.5 1t32.5 1v-100l-481 -23v168q-62 -86 -145 -127t-195 -41q-189 0 -312.5 141.5t-123.5 360.5zM416 487q0 -185 50 -279.5 t148 -94.5q110 0 167 93t57 273q0 195 -52 288t-159 93t-159 -92t-52 -281z" />
<glyph unicode="e" horiz-adv-x="1169" d="M61 485q0 232 155.5 376.5t406.5 144.5q229 0 356 -132.5t127 -371.5v-27h-688v-14q0 -178 71.5 -268.5t212.5 -90.5q103 0 181 59.5t131 176.5l90 -43q-48 -161 -168.5 -244.5t-306.5 -83.5q-255 0 -411.5 143t-156.5 375zM418 582h315q32 0 45 14t13 51 q0 132 -39.5 192t-124.5 60q-98 0 -149.5 -78.5t-59.5 -238.5z" />
<glyph unicode="f" horiz-adv-x="848" d="M23 844v129h182v41q0 239 114 371.5t320 132.5q144 0 228.5 -59t84.5 -159q0 -74 -45 -116.5t-125 -42.5q-66 0 -107.5 39t-41.5 100q0 64 57 114q12 12 12 15q0 11 -10 16t-33 5q-76 0 -105.5 -77.5t-29.5 -314.5v-65h258v-129h-258v-664q0 -45 19 -61.5t73 -16.5h109 v-102h-680v102l90 2q41 2 55.5 18t14.5 58v664h-182z" />
<glyph unicode="g" horiz-adv-x="1229" d="M82 -217q0 69 60 115.5t171 64.5q-99 25 -149.5 74.5t-50.5 122.5q0 81 67 133.5t193 71.5q-124 33 -189 109t-65 185q0 156 132 253.5t345 97.5q75 0 142 -15t130 -45l35 51q41 58 98 89.5t119 31.5q68 0 111 -39t43 -100q0 -60 -33 -97.5t-86 -37.5q-36 0 -62 15.5 t-42 47.5q-6 12 -8 30q-3 25 -21 26q-18 0 -40 -17.5t-36 -44.5q76 -52 111 -112t35 -138q0 -156 -126.5 -244.5t-351.5 -88.5q-19 0 -53 2t-49 2q-47 0 -73.5 -17.5t-26.5 -48.5q0 -35 23.5 -49t82.5 -14h148q117 0 203.5 -7.5t119.5 -19.5q84 -30 131 -100t47 -162 q0 -162 -153.5 -249t-440.5 -87q-244 0 -367.5 53t-123.5 158zM342 -184q0 -67 58 -99t180 -32q166 0 245.5 30.5t79.5 94.5q0 51 -43 73.5t-147 22.5h-301q-39 -16 -55.5 -36.5t-16.5 -53.5zM449 664q0 -126 38 -184t119 -58q82 0 121 58.5t39 183.5q0 123 -39 182t-121 59 q-81 0 -119 -59t-38 -182z" />
<glyph unicode="h" horiz-adv-x="1395" d="M27 1391v100l495 25v-701q69 92 155.5 136t196.5 44q172 0 254 -89t82 -275v-451q0 -43 14.5 -58.5t56.5 -17.5l83 -2v-102h-614v102l68 5q42 2 55.5 17.5t13.5 57.5v428q0 107 -37 155t-117 48q-112 0 -163.5 -79t-51.5 -251v-303q0 -42 15 -58t57 -18l74 -2v-102h-625 v102l87 2q43 2 58 18t15 58v1133q0 48 -20.5 64t-86.5 16q-8 0 -30 -1t-35 -1z" />
<glyph unicode="i" horiz-adv-x="752" d="M51 872v101l496 22v-815q0 -43 14 -58.5t56 -17.5l81 -2v-102h-632v102l89 2q41 2 55.5 18t14.5 58v613q0 49 -22 65t-90 16q-9 0 -29.5 -1t-32.5 -1zM197 1331q0 76 52.5 129t127.5 53q72 0 125 -53.5t53 -128.5t-52.5 -129.5t-125.5 -54.5q-75 0 -127.5 53.5 t-52.5 130.5z" />
<glyph unicode="j" horiz-adv-x="719" d="M-172 -221q0 70 44 112.5t116 42.5q64 0 101.5 -38t37.5 -103q0 -41 -22.5 -73.5t-22.5 -36.5q0 -9 9.5 -14t27.5 -5q65 0 88.5 67.5t23.5 323.5v119v619q0 48 -21 63.5t-99 15.5h-78v101l514 22v-821q0 -163 -14.5 -245t-49.5 -142q-58 -102 -156.5 -157.5t-220.5 -55.5 q-129 0 -203.5 55t-74.5 150zM197 1331q0 76 52.5 129t127.5 53q72 0 125 -53.5t53 -128.5t-52.5 -129.5t-125.5 -54.5q-75 0 -127.5 53.5t-52.5 130.5z" />
<glyph unicode="k" horiz-adv-x="1337" d="M18 1391v100l496 25v-1002l246 207q32 26 47.5 47.5t15.5 40.5q0 30 -28.5 44.5t-85.5 14.5q-5 0 -17 -1t-18 -1v107h602v-107q-78 0 -140.5 -20.5t-117.5 -65.5l-166 -133l383 -471q31 -39 57 -56.5t54 -17.5h4v-102h-621v102l49 2q28 2 43 12.5t15 28.5q0 17 -27 51 q-7 9 -10 13l-187 227l-98 -80v-176q0 -42 14 -58t56 -18l67 -2v-102h-618v102l89 2q41 2 56 18t15 58v1133q0 48 -20.5 64t-88.5 16q-8 0 -30.5 -1t-35.5 -1z" />
<glyph unicode="l" horiz-adv-x="727" d="M29 1391v100l495 25v-1336q0 -43 14.5 -58.5t55.5 -17.5l82 -2v-102h-633v102l90 2q42 3 56 18.5t14 57.5v1133q0 48 -20.5 64t-88.5 16q-8 0 -30 -1t-35 -1z" />
<glyph unicode="m" horiz-adv-x="1960" d="M31 872v101l475 22v-170q66 89 144.5 129.5t180.5 40.5q105 0 180 -45t111 -131q72 93 152 134.5t184 41.5q161 0 236 -77.5t75 -245.5v-490q0 -44 14.5 -60t54.5 -18l85 -2v-102h-588v102l61 4q40 2 54 18.5t14 57.5v428q0 105 -32.5 154t-102.5 49q-98 0 -141 -79.5 t-43 -270.5v-283q0 -42 12.5 -57t55.5 -19l51 -2v-102h-551v102l58 5q41 3 54 18.5t13 56.5v428q0 106 -32.5 154.5t-103.5 48.5q-98 0 -141 -78t-43 -266v-289q0 -42 12.5 -57t55.5 -19l57 -2v-102h-600v102l94 2q40 2 54 18t14 58v613q0 49 -22 65t-91 16q-9 0 -29.5 -1 t-31.5 -1z" />
<glyph unicode="n" horiz-adv-x="1395" d="M31 872v101l481 22v-196q74 101 161.5 148.5t200.5 47.5q170 0 252 -87t82 -267v-461q0 -42 14.5 -58t55.5 -18l96 -2v-102h-624v102l70 5q42 2 55.5 17.5t13.5 57.5v428q0 107 -36.5 155t-117.5 48q-111 0 -161 -76t-50 -250v-307q0 -42 14 -57.5t56 -18.5l72 -2v-102 h-627v102l96 2q42 3 56 18.5t14 57.5v613q0 49 -22 65t-91 16q-9 0 -29.5 -1t-31.5 -1z" />
<glyph unicode="o" horiz-adv-x="1247" d="M61 485q0 230 156.5 375.5t405.5 145.5q247 0 405 -146t158 -375t-156.5 -373.5t-406.5 -144.5t-406 144t-156 374zM416 485q0 -206 49 -301.5t156 -95.5q108 0 158 95.5t50 301.5q0 209 -49.5 304.5t-156.5 95.5q-108 0 -157.5 -95.5t-49.5 -304.5z" />
<glyph unicode="p" horiz-adv-x="1337" d="M12 872v101l482 22v-168q61 86 144 127t196 41q189 0 313.5 -141t124.5 -360q0 -226 -135 -377.5t-332 -151.5q-90 0 -162.5 32t-136.5 99v-342q0 -43 15 -59.5t54 -16.5h115v-104h-659v100l85 4q41 2 55.5 18t14.5 58v1039q0 49 -22 65t-90 16q-9 0 -29.5 -1t-32.5 -1z M498 483q0 -183 57.5 -282t165.5 -99q97 0 148 96t51 277q0 187 -49 280t-148 93q-110 0 -167.5 -93t-57.5 -272z" />
<glyph unicode="q" horiz-adv-x="1315" d="M68 471q0 237 141.5 381.5t372.5 144.5q121 0 210 -42t154 -130l133 170h88q-10 -57 -15 -114.5t-5 -116.5v-1002q0 -48 14 -65t56 -19l98 -4v-100h-662v100l112 4q42 2 56.5 17.5t14.5 58.5v367q-64 -84 -137.5 -123t-168.5 -39q-206 0 -334 142t-128 370zM424 492 q0 -193 51 -288t154 -95q104 0 155.5 104t51.5 315q0 177 -54 270t-155 93q-104 0 -153.5 -97t-49.5 -302z" />
<glyph unicode="r" horiz-adv-x="1053" d="M31 872v101l456 22v-282q60 139 144 209.5t190 70.5q98 0 159.5 -55t61.5 -141q0 -84 -45.5 -134.5t-119.5 -50.5q-69 0 -112.5 44.5t-43.5 115.5q0 28 9 52t28 46q-114 -37 -174 -158t-60 -315v-217q0 -42 14.5 -58t55.5 -18l131 -2v-102h-686v102l96 2q42 3 56 18.5 t14 57.5v613q0 49 -22 65t-91 16q-9 0 -29.5 -1t-31.5 -1z" />
<glyph unicode="s" horiz-adv-x="995" d="M72 360h88q63 -139 160 -212.5t217 -73.5q78 0 124 34.5t46 92.5q0 52 -40.5 80t-172.5 55q-227 44 -319.5 122.5t-92.5 219.5q0 156 103.5 242t293.5 86q71 0 134.5 -18t115.5 -52l80 55h84l10 -327h-96q-54 115 -139 180t-183 65q-74 0 -121 -33t-47 -83 q0 -95 243 -138q29 -5 45 -8q171 -32 257 -116t86 -218q0 -161 -108.5 -255.5t-296.5 -94.5q-84 0 -159 20t-136 58l-88 -61h-82z" />
<glyph unicode="t" horiz-adv-x="895" d="M41 852v110q152 10 236 118t92 304h141v-411h276v-121h-276v-543q0 -104 19 -138t67 -34q59 0 89.5 62t33.5 188h112q0 -7 1.5 -21.5t1.5 -21.5q0 -180 -95.5 -280.5t-265.5 -100.5q-155 0 -220 73t-65 257v559h-147z" />
<glyph unicode="u" horiz-adv-x="1352" d="M6 872v101l483 22v-635q0 -105 36 -152.5t114 -47.5q106 0 156.5 77t50.5 238v318q0 49 -20.5 64t-98.5 15h-68v101l506 22v-817q0 -48 20.5 -64t88.5 -16q8 0 30 1t35 1v-100l-481 -25v193q-69 -101 -159 -151t-205 -50q-160 0 -246 85t-86 243v498q0 48 -20.5 63.5 t-88.5 15.5h-47z" />
<glyph unicode="v" horiz-adv-x="1221" d="M4 870v105h584v-105l-44 -4q-35 -3 -50 -13t-15 -30q0 -9 6.5 -28t16.5 -39l215 -453l168 389q8 20 13 44.5t5 43.5q0 38 -28.5 60.5t-79.5 25.5l-54 4v105h469v-109q-66 -3 -102.5 -31t-73.5 -110l-332 -745h-174l-397 808q-23 50 -48 66t-71 16h-8z" />
<glyph unicode="w" horiz-adv-x="1743" d="M2 870v105h563v-105l-33 -4q-37 -3 -51 -12.5t-14 -30.5q0 -8 4.5 -23t15.5 -44l181 -428l141 334l-47 126q-18 49 -42.5 65.5t-74.5 16.5h-10v105h559v-105l-44 -4q-40 -3 -51 -11.5t-12 -35.5q0 -19 17 -59l2 -4l172 -430l158 366q9 20 14.5 44t5.5 42q0 40 -28 62.5 t-80 25.5l-52 4v105h459v-109q-65 -4 -101 -31t-73 -110l-330 -745h-159l-218 528l-233 -528h-160l-352 808q-26 56 -48.5 69t-68.5 13h-10z" />
<glyph unicode="x" horiz-adv-x="1229" d="M20 0v106q48 6 89 27.5t108 81.5l244 219l-316 371q-34 38 -61.5 51.5t-63.5 13.5v105h609v-102q-46 -2 -67 -12.5t-21 -31.5q0 -14 24 -43q4 -5 6 -7l113 -130l121 113q10 9 16 23t6 28q0 31 -26 45t-84 14h-15v103h502v-101h-6q-59 0 -110.5 -24t-114.5 -84l-215 -203 l342 -403q23 -28 49.5 -41t60.5 -13h15v-106h-643v106q63 6 82.5 14.5t19.5 26.5q0 9 -4 18t-16 25l-129 156l-132 -133q-10 -10 -16 -24t-6 -27q0 -28 32 -42t95 -14v-106h-488z" />
<glyph unicode="y" horiz-adv-x="1192" d="M2 -233q0 73 52 123.5t128 50.5q65 0 108.5 -39.5t43.5 -96.5q0 -18 -8.5 -41.5t-8.5 -29.5q0 -9 8.5 -15t22.5 -6q45 0 96.5 55.5t94.5 151.5l18 41l-412 799q-36 70 -63 91t-70 24v100h582v-101h-39q-33 0 -52.5 -12t-19.5 -33q0 -13 5.5 -35t13.5 -36l217 -434 l174 399q7 15 10.5 34t3.5 36q0 41 -26 61t-80 20h-53v101h460v-100q-67 -8 -101.5 -33t-64.5 -90l-366 -801q-97 -213 -195 -296t-241 -83q-108 0 -173 53.5t-65 141.5z" />
<glyph unicode="z" horiz-adv-x="1100" d="M70 0v94l559 778h-187q-98 0 -151.5 -59t-85.5 -207h-101l21 369h889v-92l-553 -777h125q155 0 217 55.5t115 229.5h98l-23 -391h-923z" />
<glyph unicode="{" horiz-adv-x="1024" d="M178 598v76q156 15 212 76.5t56 226.5v192q0 201 85.5 274t320.5 73v-61q-121 -3 -165 -55t-44 -210v-133q0 -225 -53.5 -307t-196.5 -115q143 -32 196.5 -113t53.5 -307v-135q0 -158 44 -210t165 -55v-59q-235 0 -320.5 72.5t-85.5 273.5v193q0 165 -56 226.5t-212 76.5 z" />
<glyph unicode="|" horiz-adv-x="1024" d="M410 -483v2048h206v-2048h-206z" />
<glyph unicode="}" horiz-adv-x="1024" d="M172 -185q119 2 164 55t45 210v135q0 226 53.5 307t196.5 113q-143 33 -196.5 115t-53.5 307v133q0 156 -45 209.5t-164 55.5v61q236 0 322 -73t86 -274v-192q0 -165 56 -226.5t212 -76.5v-76q-156 -15 -212 -76.5t-56 -226.5v-193q0 -198 -85 -272t-311 -74h-12v59z" />
<glyph unicode="~" horiz-adv-x="1706" d="M178 418v221q107 72 204 107.5t183 35.5q117 0 291 -58l4 -1q18 -6 55 -19q155 -55 240 -55t175 37t200 117v-221q-104 -71 -196.5 -104.5t-182.5 -33.5q-46 0 -92 8t-92 23q-24 8 -71 25q-219 75 -333 75q-85 0 -177.5 -37.5t-207.5 -119.5z" />
<glyph d="M-39 799l45 100h105q49 290 197.5 451t365.5 161q80 0 148.5 -28t129.5 -86l84 106h78l21 -596l-88 -12q-50 262 -130 387t-196 125q-123 0 -183.5 -116.5t-76.5 -391.5h428l-45 -100h-387v2v-43v-84h329l-43 -101h-282q14 -249 80.5 -362t197.5 -113q117 0 202.5 114 t119.5 316l104 -26q-41 -262 -168 -401.5t-325 -139.5q-215 0 -364 162t-197 450h-129l43 101h77v31q-1 6 -1.5 12t-0.5 22q0 13 0.5 27.5t1.5 32.5h-141z" />
<glyph unicode="&#x20ac;" d="M-39 799l45 100h105q49 290 197.5 451t365.5 161q80 0 148.5 -28t129.5 -86l84 106h78l21 -596l-88 -12q-50 262 -130 387t-196 125q-123 0 -183.5 -116.5t-76.5 -391.5h428l-45 -100h-387v2v-43v-84h329l-43 -101h-282q14 -249 80.5 -362t197.5 -113q117 0 202.5 114 t119.5 316l104 -26q-41 -262 -168 -401.5t-325 -139.5q-215 0 -364 162t-197 450h-129l43 101h77v31q-1 6 -1.5 12t-0.5 22q0 13 0.5 27.5t1.5 32.5h-141z" />
<glyph unicode="&#xa0;" />
<glyph unicode="&#xa1;" horiz-adv-x="645" d="M133 1321q0 79 56.5 134.5t136.5 55.5q78 0 134 -56t56 -134t-57 -135.5t-133 -57.5q-78 0 -135.5 57t-57.5 136zM137 178q0 85 52 252q16 51 24 78q26 94 41 218t23 304h97q6 -163 22.5 -294t45.5 -244q8 -29 26 -86q46 -140 46 -224q0 -102 -48.5 -156.5t-139.5 -54.5 q-90 0 -139.5 54t-49.5 153z" />
<glyph unicode="&#xa2;" d="M88 520q0 237 161 378.5t431 141.5q35 0 77.5 -5.5t90.5 -16.5l102 205h107l-117 -240q71 -38 108 -94t37 -125q0 -82 -51 -134t-131 -52q-47 0 -81 13t-56 40l-215 -436q35 -27 76 -40.5t86 -13.5q106 0 178.5 64.5t112.5 193.5l104 -34q-50 -182 -173.5 -271.5 t-324.5 -89.5q-37 0 -73 4.5t-72 14.5l-109 -228h-108l129 260q-144 71 -216.5 188t-72.5 277zM434 563q0 -86 12.5 -154.5t38.5 -127.5l248 501q7 35 34.5 63.5t27.5 35.5q0 22 -34.5 39.5t-84.5 17.5q-116 0 -179 -97.5t-63 -277.5z" />
<glyph unicode="&#xa3;" d="M43 147q0 94 56.5 149.5t150.5 55.5q44 0 86 -7.5t80 -22.5q3 15 4.5 28.5t1.5 24.5q0 50 -20 119t-58 153h-266v121h219q-30 85 -44.5 157t-14.5 132q0 172 131 280.5t346 108.5q183 0 297 -87.5t114 -225.5q0 -99 -51.5 -158.5t-138.5 -59.5q-83 0 -129.5 43t-46.5 119 q0 41 19.5 71.5t58.5 49.5q12 7 37 14q45 14 45 39q0 33 -50.5 62.5t-115.5 29.5q-94 0 -142.5 -58t-48.5 -171q0 -52 15.5 -130.5t54.5 -215.5h321v-121h-298q2 -19 3.5 -37t2.5 -35q0 -87 -18.5 -154.5t-59.5 -137.5q50 -22 110.5 -33.5t118.5 -11.5q99 0 157.5 39 t94.5 131l100 -29q-41 -202 -133.5 -308t-226.5 -106q-88 0 -170 34.5t-146 98.5q-50 -69 -106.5 -101t-128.5 -32q-96 0 -153.5 50t-57.5 132zM143 164q0 -45 26 -69.5t73 -24.5q51 0 95.5 35t51.5 83q-41 32 -77 47t-70 15q-42 0 -70.5 -25t-28.5 -61z" />
<glyph unicode="&#xa4;" d="M-39 799l45 100h105q49 290 197.5 451t365.5 161q80 0 148.5 -28t129.5 -86l84 106h78l21 -596l-88 -12q-50 262 -130 387t-196 125q-123 0 -183.5 -116.5t-76.5 -391.5h428l-45 -100h-387v2v-43v-84h329l-43 -101h-282q14 -249 80.5 -362t197.5 -113q117 0 202.5 114 t119.5 316l104 -26q-41 -262 -168 -401.5t-325 -139.5q-215 0 -364 162t-197 450h-129l43 101h77v31q-1 6 -1.5 12t-0.5 22q0 13 0.5 27.5t1.5 32.5h-141z" />
<glyph unicode="&#xa5;" horiz-adv-x="1407" d="M-2 1300v107h655v-107h-37q-70 0 -88 -12.5t-18 -50.5q0 -8 5 -21.5t13 -27.5l275 -434l188 340q22 38 31.5 64t9.5 46q0 48 -31 71t-94 23h-55v109h555v-107h-14q-66 0 -122 -37.5t-97 -109.5l-103 -178h318v-109h-383l-115 -192h498v-107h-529v-358q0 -61 20 -80.5 t78 -19.5h121v-109h-741v109h117q59 0 78.5 18.5t19.5 81.5v358h-537v107h486l-121 192h-365v109h297l-163 262q-20 32 -48.5 47.5t-66.5 15.5h-37z" />
<glyph unicode="&#xa6;" horiz-adv-x="1024" d="M410 -350v758h206v-758h-206zM410 674v758h206v-758h-206z" />
<glyph unicode="&#xa7;" horiz-adv-x="1024" d="M84 698q0 109 76 180t202 78q-91 75 -135.5 143.5t-44.5 135.5q0 129 88 205t238 76q151 0 239.5 -60.5t88.5 -161.5q0 -66 -36.5 -103.5t-99.5 -37.5q-55 0 -94 32.5t-39 78.5q0 39 33 81.5t33 53.5q0 22 -33.5 38.5t-81.5 16.5q-62 0 -102.5 -35t-40.5 -88 q0 -51 38.5 -104.5t176.5 -169.5l178 -150q83 -70 128.5 -149t45.5 -154q0 -105 -80.5 -177t-201.5 -75q86 -63 130 -135.5t44 -153.5q0 -118 -94.5 -193t-245.5 -75q-154 0 -247 59.5t-93 155.5q0 67 39 107.5t104 40.5q55 0 92 -34t37 -85q0 -44 -35 -79.5t-35 -47.5 q0 -25 31.5 -40t85.5 -15q80 0 128 38.5t48 102.5q0 75 -150 199q-37 30 -57 47l-182 155q-90 77 -133 150.5t-43 148.5zM264 780q0 -47 29 -93t99 -108q10 -9 31 -27q149 -134 212 -134q54 0 91.5 37.5t37.5 91.5q0 39 -27.5 80.5t-105.5 113.5q-85 81 -141 115.5t-99 34.5 q-56 0 -91.5 -31.5t-35.5 -79.5z" />
<glyph unicode="&#xa8;" horiz-adv-x="1024" d="M172 1300q0 58 43.5 101t101.5 43q59 0 100.5 -42t41.5 -102q0 -62 -40 -102.5t-102 -40.5q-60 0 -102.5 41.5t-42.5 101.5zM563 1300q0 58 43 101t101 43q59 0 101 -42.5t42 -101.5q0 -62 -40.5 -102.5t-102.5 -40.5q-61 0 -102.5 41.5t-41.5 101.5z" />
<glyph unicode="&#xa9;" horiz-adv-x="1683" d="M111 678q0 148 54.5 281.5t158.5 236.5q103 104 239 160.5t281 56.5q141 0 275.5 -56t238.5 -159q102 -102 159.5 -239.5t57.5 -280.5t-56.5 -277.5t-160.5 -240.5q-102 -104 -235 -158.5t-281 -54.5t-279 54t-237 159q-105 104 -160 237t-55 281zM217 678 q0 -128 46.5 -242t135.5 -203q90 -89 202 -135.5t241 -46.5q127 0 240 47t200 135q89 91 136.5 206t47.5 239q0 127 -47.5 244t-134.5 202q-87 88 -203 136.5t-237 48.5q-127 0 -241.5 -48t-203.5 -139q-89 -90 -135.5 -204t-46.5 -240zM410 664q0 191 121 316.5t305 125.5 q79 0 153 -33t80 -33q24 0 37.5 15t19.5 47h45v-326h-47q-31 131 -100 202t-164 71q-118 0 -175.5 -90.5t-57.5 -274.5q0 -185 62.5 -281t182.5 -96q80 0 148.5 44t124.5 130l45 -28q-63 -107 -150.5 -161t-197.5 -54q-185 0 -308.5 122.5t-123.5 303.5z" />
<glyph unicode="&#xaa;" horiz-adv-x="932" d="M57 950q0 110 123.5 178t384.5 101v71q0 72 -30 102t-101 30q-45 0 -75.5 -13t-30.5 -30q0 -4 9 -14q32 -33 32 -68q0 -43 -37.5 -70t-95.5 -27q-62 0 -101 32.5t-39 84.5q0 88 98 139.5t269 51.5q185 0 270.5 -58t85.5 -184v-307q0 -29 10 -42.5t31 -13.5q16 0 34 7.5 t24 7.5q13 0 21.5 -8.5t8.5 -22.5q0 -47 -57.5 -85t-138.5 -38q-57 0 -98 25.5t-52 66.5q-62 -45 -140 -69.5t-161 -24.5q-115 0 -179.5 47t-64.5 131zM123 508v133h760v-133h-760zM330 979q0 -41 22.5 -64.5t61.5 -23.5q68 0 108.5 47.5t40.5 130.5v74q-129 -21 -181 -58.5 t-52 -105.5z" />
<glyph unicode="&#xab;" horiz-adv-x="1098" d="M57 498v22q144 105 283 237t160 132q6 0 11 -6.5t5 -16.5q0 -26 -58.5 -122t-158.5 -234q100 -138 158.5 -234t58.5 -122q0 -10 -5 -16.5t-11 -6.5q-22 0 -161 131.5t-282 235.5zM506 498v22q143 105 283 237t161 132q7 0 11 -6t4 -17q0 -26 -58.5 -123t-156.5 -233 q98 -136 156.5 -233t58.5 -123q0 -11 -4 -17t-11 -6q-22 0 -162 132t-282 235z" />
<glyph unicode="&#xac;" horiz-adv-x="1706" d="M254 668v196h1198v-502h-199v306h-999z" />
<glyph unicode="&#xad;" horiz-adv-x="674" d="M90 387v244h492v-244h-492z" />
<glyph unicode="&#xae;" horiz-adv-x="1683" d="M111 678q0 146 55 280t158 238q102 104 237.5 160.5t282.5 56.5q145 0 284 -59.5t242 -165.5q98 -101 150.5 -236.5t52.5 -285.5q0 -139 -61 -277t-171 -244q-99 -96 -227.5 -147t-271.5 -51q-110 0 -211.5 30.5t-190.5 90.5q-157 104 -243 263.5t-86 346.5zM217 678 q0 -128 46.5 -242t135.5 -203q90 -89 202 -135.5t241 -46.5q127 0 240 47t200 135q89 91 136.5 206t47.5 239q0 125 -48.5 243t-135.5 203q-88 88 -202.5 136.5t-235.5 48.5q-126 0 -241.5 -48.5t-203.5 -138.5q-89 -90 -135.5 -204t-46.5 -240zM465 285v50q61 4 83.5 24 t22.5 69v522q0 49 -22.5 69.5t-83.5 25.5v53h403q146 0 234 -55.5t88 -143.5q0 -86 -64.5 -134.5t-214.5 -74.5q95 -22 149 -69.5t70 -124.5q6 -25 10 -74q5 -84 46 -84q28 0 42.5 29.5t14.5 87.5v12h51v-23q0 -88 -44 -134t-128 -46q-47 0 -82.5 14t-56.5 41 q-28 40 -33 134q-2 45 -6 67q-14 79 -54 116.5t-112 37.5h-18v-246q0 -46 20 -65t78 -27v-51h-393zM760 723q7 -1 16 -1.5t27 -0.5q96 0 144 45t48 135q0 60 -43 103t-106 43q-44 0 -65 -16.5t-21 -49.5v-258z" />
<glyph unicode="&#xaf;" horiz-adv-x="1024" d="M205 1217v167h614v-167h-614z" />
<glyph unicode="&#xb0;" horiz-adv-x="674" d="M35 1159q0 127 88.5 216t214.5 89t214.5 -89.5t88.5 -215.5q0 -125 -89 -214t-216 -89q-126 0 -213.5 88t-87.5 215zM162 1161q0 -74 51 -125t125 -51q72 0 123 52t51 124t-51 123t-123 51q-73 0 -124.5 -51t-51.5 -123z" />
<glyph unicode="&#xb1;" horiz-adv-x="1706" d="M254 -2v199h1198v-199h-1198zM254 698v199h498v326h202v-326h498v-199h-498v-325h-202v325h-498z" />
<glyph unicode="&#xb2;" horiz-adv-x="788" d="M29 563v45q72 90 186.5 204.5t132.5 133.5q80 87 106.5 144t26.5 124q0 72 -36.5 110t-106.5 38q-61 0 -105.5 -26t-44.5 -58q0 -12 24 -22q10 -4 16 -7q39 -15 58 -39.5t19 -60.5q0 -46 -31.5 -75.5t-80.5 -29.5q-62 0 -98 38.5t-36 105.5q0 108 91 173.5t243 65.5 q142 0 230 -65t88 -170q0 -80 -44 -141.5t-155 -130.5q-35 -23 -102 -63q-129 -76 -179 -118h297q67 0 84 21.5t33 126.5h72l-31 -323q-79 2 -160.5 3.5t-165.5 1.5q-81 0 -164 -1.5t-167 -4.5z" />
<glyph unicode="&#xb3;" horiz-adv-x="788" d="M45 743q0 55 34.5 88t90.5 33q53 0 86 -27t33 -69q0 -46 -35 -80t-35 -37q0 -21 34.5 -35t90.5 -14q80 0 120 48t40 145q0 89 -31 135.5t-90 46.5q-21 0 -54 -5t-44 -5q-24 0 -38 11t-14 30q0 21 13.5 33t38.5 12q10 0 42 -4.5t52 -4.5q58 0 85.5 40t27.5 126 q0 77 -34 117.5t-98 40.5q-49 0 -80.5 -15t-31.5 -38q0 -11 31.5 -38t31.5 -65q0 -42 -30.5 -68t-81.5 -26q-54 0 -85.5 31t-31.5 82q0 87 85 141.5t224 54.5q145 0 231.5 -59.5t86.5 -159.5q0 -72 -57.5 -121t-174.5 -77q124 -11 191 -67.5t67 -149.5q0 -117 -95.5 -183.5 t-262.5 -66.5q-150 0 -241 55t-91 145z" />
<glyph unicode="&#xb4;" horiz-adv-x="1024" d="M299 1116l279 295q49 53 84.5 74.5t70.5 21.5q47 0 79 -31.5t32 -76.5q0 -37 -23.5 -64.5t-81.5 -56.5l-325 -162h-115z" />
<glyph unicode="&#xb5;" horiz-adv-x="1202" d="M-121 -309q0 47 68 274t106 408l109 512h256l-99 -459q-11 -53 -16.5 -89t-5.5 -58q0 -59 30.5 -92t84.5 -33q71 0 116 53t68 166l109 512h256l-115 -533q-9 -41 -13 -66.5t-4 -43.5q0 -47 17.5 -67.5t56.5 -20.5q40 0 66 18t45 59q8 19 21 50q27 69 55 69q15 0 23.5 -10 t8.5 -29q0 -34 -16.5 -88.5t-42.5 -101.5q-41 -74 -99 -110t-137 -36q-85 0 -129.5 48t-54.5 151q-40 -106 -98.5 -152.5t-149.5 -46.5q-93 0 -149.5 61t-67.5 173q-12 -95 -29 -252q-40 -381 -155 -381q-54 0 -84.5 30.5t-30.5 84.5z" />
<glyph unicode="&#xb6;" horiz-adv-x="1024" d="M41 1130q0 158 107 253.5t284 95.5h551v-111h-113v-1368h-151v1368h-158v-1368h-153v784q-167 6 -267 101t-100 245z" />
<glyph unicode="&#xb7;" horiz-adv-x="598" d="M106 715q0 78 57 135t134 57q78 0 135 -57t57 -135q0 -79 -56 -135t-136 -56q-79 0 -135 56.5t-56 134.5z" />
<glyph unicode="&#xb8;" horiz-adv-x="1024" d="M250 -379l47 103q67 -39 128 -58.5t116 -19.5q35 0 57.5 21t22.5 54q0 41 -23 61.5t-68 20.5q-14 0 -30.5 -2t-32.5 -6v203h88v-114q18 2 35 3.5t33 1.5q86 0 136 -45.5t50 -124.5q0 -84 -60 -136t-157 -52q-68 0 -144 19.5t-198 70.5z" />
<glyph unicode="&#xb9;" horiz-adv-x="788" d="M139 1280v65q128 5 212 26.5t124 60.5h57v-730q0 -48 14 -59.5t68 -11.5h80v-68h-542v68h81q55 0 69.5 11t14.5 60v504q0 48 -14 61t-70 13h-94z" />
<glyph unicode="&#xba;" horiz-adv-x="936" d="M37 1143q0 163 121 268t311 105q189 0 309.5 -105.5t120.5 -267.5q0 -163 -119.5 -266t-310.5 -103q-193 0 -312.5 102.5t-119.5 266.5zM100 508v133h736v-133h-736zM324 1145q0 -143 34 -208t109 -65q77 0 112 65.5t35 207.5q0 139 -35.5 204.5t-111.5 65.5 t-109.5 -63.5t-33.5 -206.5z" />
<glyph unicode="&#xbb;" horiz-adv-x="1098" d="M123 154q0 26 58.5 122t158.5 234q-100 138 -158.5 234t-58.5 122q0 10 5 16.5t11 6.5q22 0 161 -132.5t282 -236.5v-20q-144 -106 -283 -237.5t-160 -131.5q-6 0 -11 6.5t-5 16.5zM571 154q0 26 58.5 123t156.5 233q-98 136 -156.5 233t-58.5 123q0 11 4 17t11 6 q21 0 160 -132.5t282 -236.5v-20q-143 -106 -282.5 -237.5t-159.5 -131.5q-7 0 -11 6t-4 17z" />
<glyph unicode="&#xbc;" horiz-adv-x="1847" d="M133 1286v63q122 4 202.5 23.5t117.5 54.5h55v-679q0 -44 13.5 -55t64.5 -11h76v-64h-519v64h80q53 0 66.5 10.5t13.5 55.5v471q0 43 -13 55t-67 12h-90zM449 -37l839 1481h111l-842 -1481h-108zM1139 207v86l467 512h90q-4 -51 -6 -100.5t-2 -98.5v-321h129v-78h-129 v-78q0 -46 12.5 -55.5t62.5 -10.5h35v-63h-432v63h49q49 0 61.5 10t12.5 56v78h-350zM1229 285h260v288z" />
<glyph unicode="&#xbd;" horiz-adv-x="1847" d="M133 1286v63q122 4 202.5 23.5t117.5 54.5h55v-679q0 -44 13.5 -55t64.5 -11h76v-64h-519v64h80q53 0 66.5 10.5t13.5 55.5v471q0 43 -13 55t-67 12h-90zM449 -37l839 1481h111l-842 -1481h-108zM1122 41q78 94 226 237q57 55 82 80q72 75 98 130t26 120q0 66 -35 101.5 t-100 35.5q-58 0 -100.5 -25t-42.5 -54q0 -12 24 -20q8 -3 13 -5q37 -15 55 -38.5t18 -55.5q0 -43 -30 -70.5t-78 -27.5q-57 0 -91 36t-34 99q0 100 86.5 161.5t230.5 61.5q136 0 220 -61t84 -158q0 -76 -43 -134.5t-146 -121.5q-30 -18 -87 -51q-132 -76 -181 -115h282 q65 0 81 18.5t32 116.5h70l-31 -301q-76 3 -154 4.5t-157 1.5t-157.5 -1.5t-159.5 -4.5z" />
<glyph unicode="&#xbe;" horiz-adv-x="1847" d="M43 786q0 52 32.5 82.5t86.5 30.5q51 0 81.5 -24.5t30.5 -63.5q0 -44 -32.5 -76t-32.5 -35q0 -20 33 -33.5t86 -13.5q76 0 113.5 45.5t37.5 137.5q0 83 -28 125.5t-84 42.5q-20 0 -51.5 -4.5t-45.5 -4.5q-22 0 -35.5 10t-13.5 27q0 21 13 32t38 11q10 0 40 -4t50 -4 q55 0 81 37.5t26 118.5q0 71 -32 109t-93 38q-46 0 -76 -14t-30 -35q0 -11 30.5 -37t30.5 -59q0 -39 -30 -63.5t-79 -24.5q-52 0 -82 28.5t-30 77.5q0 81 81 131.5t216 50.5q137 0 219 -55.5t82 -148.5q0 -69 -54.5 -114.5t-166.5 -70.5q118 -10 182.5 -63.5t64.5 -138.5 q0 -109 -91.5 -172.5t-250.5 -63.5q-143 0 -230 52t-87 136zM446 -37l840 1481h111l-842 -1481h-109zM1137 207v86l467 512h90q-4 -51 -6 -100.5t-2 -98.5v-321h129v-78h-129v-78q0 -46 12.5 -55.5t62.5 -10.5h35v-63h-432v63h49q49 0 61.5 10t12.5 56v78h-350zM1227 285 h260v288z" />
<glyph unicode="&#xbf;" horiz-adv-x="1067" d="M55 324q0 195 296 404l15 11q106 75 133 125t27 129v33h97v-51q0 -106 -17 -165.5t-57 -123.5q-10 -15 -30 -46q-124 -187 -124 -327q0 -118 55 -184t154 -66q60 0 104 22.5t44 49.5q0 11 -55.5 61.5t-55.5 116.5q0 76 46.5 120t125.5 44q83 0 133.5 -52t50.5 -136 q0 -136 -129.5 -231t-322.5 -95q-233 0 -361.5 94.5t-128.5 266.5zM385 1323q0 80 55.5 136.5t134.5 56.5q80 0 136.5 -57t56.5 -136t-56.5 -136t-136.5 -57q-77 0 -133.5 57t-56.5 136z" />
<glyph unicode="&#xc0;" horiz-adv-x="1561" d="M-37 0v106q85 14 144.5 75t119.5 200l480 1120h153l565 -1308q21 -47 49 -65t87 -22v-106h-689v106l101 7q30 1 43.5 12t13.5 35q0 9 -3 21.5t-11 35.5l-92 229h-525l-47 -108q-10 -25 -16 -53.5t-6 -51.5q0 -66 48 -94.5t167 -32.5v-106h-582zM448 1909q0 45 32 76.5 t79 31.5q35 0 70.5 -21.5t84.5 -74.5l279 -295h-115l-325 162q-56 28 -80.5 56.5t-24.5 64.5zM455 575h417l-202 498z" />
<glyph unicode="&#xc1;" horiz-adv-x="1561" d="M-37 0v106q85 14 144.5 75t119.5 200l480 1120h153l565 -1308q21 -47 49 -65t87 -22v-106h-689v106l101 7q30 1 43.5 12t13.5 35q0 9 -3 21.5t-11 35.5l-92 229h-525l-47 -108q-10 -25 -16 -53.5t-6 -51.5q0 -66 48 -94.5t167 -32.5v-106h-582zM455 575h417l-202 498z M567 1626l279 295q49 53 84.5 74.5t70.5 21.5q47 0 79 -31.5t32 -76.5q0 -37 -23.5 -64.5t-81.5 -56.5l-325 -162h-115z" />
<glyph unicode="&#xc2;" horiz-adv-x="1561" d="M-37 0v106q85 14 144.5 75t119.5 200l480 1120h153l565 -1308q21 -47 49 -65t87 -22v-106h-689v106l101 7q30 1 43.5 12t13.5 35q0 9 -3 21.5t-11 35.5l-92 229h-525l-47 -108q-10 -25 -16 -53.5t-6 -51.5q0 -66 48 -94.5t167 -32.5v-106h-582zM455 575h417l-202 498z M458 1626l230 369h184l230 -369h-101l-221 170l-221 -170h-101z" />
<glyph unicode="&#xc3;" horiz-adv-x="1561" d="M-37 0v106q85 14 144.5 75t119.5 200l480 1120h153l565 -1308q21 -47 49 -65t87 -22v-106h-689v106l101 7q30 1 43.5 12t13.5 35q0 9 -3 21.5t-11 35.5l-92 229h-525l-47 -108q-10 -25 -16 -53.5t-6 -51.5q0 -66 48 -94.5t167 -32.5v-106h-582zM452 1655q27 135 84 200.5 t148 65.5q22 0 40.5 -2.5t36.5 -7.5l122 -31q5 -1 21 -5.5t23 -4.5q37 0 59.5 22t37.5 72h82q-26 -130 -84 -198t-144 -68q-15 0 -31.5 2.5t-37.5 7.5l-117 31q-24 6 -36.5 8t-20.5 2q-40 0 -64.5 -23.5t-34.5 -70.5h-84zM455 575h417l-202 498z" />
<glyph unicode="&#xc4;" horiz-adv-x="1561" d="M-37 0v106q85 14 144.5 75t119.5 200l480 1120h153l565 -1308q21 -47 49 -65t87 -22v-106h-689v106l101 7q30 1 43.5 12t13.5 35q0 9 -3 21.5t-11 35.5l-92 229h-525l-47 -108q-10 -25 -16 -53.5t-6 -51.5q0 -66 48 -94.5t167 -32.5v-106h-582zM440 1810q0 58 43.5 101 t101.5 43q59 0 100.5 -42t41.5 -102q0 -62 -40 -102.5t-102 -40.5q-60 0 -102.5 41.5t-42.5 101.5zM455 575h417l-202 498zM831 1810q0 58 43 101t101 43q59 0 101 -42.5t42 -101.5q0 -62 -40.5 -102.5t-102.5 -40.5q-61 0 -102.5 41.5t-41.5 101.5z" />
<glyph unicode="&#xc5;" horiz-adv-x="1561" d="M-37 0v106q92 24 151 82t113 189l463 1085q-75 28 -118.5 93t-43.5 151q0 111 77 188.5t188 77.5t188.5 -77.5t77.5 -188.5q0 -89 -47 -153.5t-135 -96.5l544 -1263q22 -52 50.5 -68.5t89.5 -18.5v-106h-689v106l97 7q33 3 46 13t13 34q0 9 -3 21.5t-11 35.5l-90 229 h-525l-41 -108q-11 -30 -17.5 -57t-6.5 -48q0 -64 46 -92.5t165 -34.5v-106h-582zM455 575h417l-202 498zM672 1706q0 -52 34 -86.5t87 -34.5q51 0 86.5 35.5t35.5 85.5q0 51 -36 87t-86 36q-52 0 -86.5 -35t-34.5 -88z" />
<glyph unicode="&#xc6;" horiz-adv-x="2228" d="M-111 0v106q62 6 109 46.5t111 150.5l466 825q24 41 36 74.5t12 59.5q0 58 -45.5 84t-149.5 26h-51v107h1677l17 -533h-103q-58 233 -177 327.5t-355 94.5q-101 0 -125.5 -21t-24.5 -90v-438h29q133 0 198.5 63.5t92.5 221.5h102v-678h-102q-27 156 -92.5 219.5 t-198.5 63.5h-29v-494q0 -68 27 -89.5t131 -21.5q260 0 390 103.5t189 355.5l101 -8l-25 -555h-1368v109h105q52 0 77 25.5t25 80.5v328h-535l-122 -226q-15 -28 -24 -58t-9 -52q0 -47 32.5 -68t122.5 -28l54 -5v-106h-568zM477 672h461v704h-61z" />
<glyph unicode="&#xc7;" horiz-adv-x="1591" d="M76 739q0 155 49.5 290t146.5 245q107 120 247.5 178.5t322.5 58.5q111 0 205.5 -28t175.5 -86l114 106h86l29 -596l-104 -8q-66 251 -186.5 379.5t-291.5 128.5q-201 0 -293 -155t-92 -500q0 -353 96 -503.5t318 -150.5q172 0 292 113t177 328l111 -37 q-54 -263 -220.5 -402t-429.5 -139q-132 0 -247 36t-209 107q-146 112 -221.5 274t-75.5 361zM535 -379l47 103q67 -39 128 -58.5t116 -19.5q35 0 57.5 21t22.5 54q0 41 -23 61.5t-68 20.5q-14 0 -30.5 -2t-32.5 -6v203h88v-114q18 2 35 3.5t33 1.5q86 0 136 -45.5 t50 -124.5q0 -84 -60 -136t-157 -52q-68 0 -144 19.5t-198 70.5z" />
<glyph unicode="&#xc8;" horiz-adv-x="1554" d="M45 0v109h102q62 0 83.5 20t21.5 86v1049q0 67 -21.5 87.5t-83.5 20.5h-102v107h1335l17 -533h-101q-54 236 -173.5 332t-358.5 96q-101 0 -125.5 -21t-24.5 -89v-445h29q133 0 198.5 63.5t92.5 221.5h102v-678h-102q-27 156 -92.5 219.5t-198.5 63.5h-29v-494 q0 -68 26.5 -89.5t129.5 -21.5q261 0 390.5 103.5t189.5 355.5l102 -8l-27 -555h-1380zM446 1909q0 45 32 76.5t79 31.5q35 0 70.5 -21.5t84.5 -74.5l279 -295h-115l-325 162q-56 28 -80.5 56.5t-24.5 64.5z" />
<glyph unicode="&#xc9;" horiz-adv-x="1554" d="M45 0v109h102q62 0 83.5 20t21.5 86v1049q0 67 -21.5 87.5t-83.5 20.5h-102v107h1335l17 -533h-101q-54 236 -173.5 332t-358.5 96q-101 0 -125.5 -21t-24.5 -89v-445h29q133 0 198.5 63.5t92.5 221.5h102v-678h-102q-27 156 -92.5 219.5t-198.5 63.5h-29v-494 q0 -68 26.5 -89.5t129.5 -21.5q261 0 390.5 103.5t189.5 355.5l102 -8l-27 -555h-1380zM565 1626l279 295q49 53 84.5 74.5t70.5 21.5q47 0 79 -31.5t32 -76.5q0 -37 -23.5 -64.5t-81.5 -56.5l-325 -162h-115z" />
<glyph unicode="&#xca;" horiz-adv-x="1554" d="M45 0v109h102q62 0 83.5 20t21.5 86v1049q0 67 -21.5 87.5t-83.5 20.5h-102v107h1335l17 -533h-101q-54 236 -173.5 332t-358.5 96q-101 0 -125.5 -21t-24.5 -89v-445h29q133 0 198.5 63.5t92.5 221.5h102v-678h-102q-27 156 -92.5 219.5t-198.5 63.5h-29v-494 q0 -68 26.5 -89.5t129.5 -21.5q261 0 390.5 103.5t189.5 355.5l102 -8l-27 -555h-1380zM456 1626l230 369h184l230 -369h-101l-221 170l-221 -170h-101z" />
<glyph unicode="&#xcb;" horiz-adv-x="1554" d="M45 0v109h102q62 0 83.5 20t21.5 86v1049q0 67 -21.5 87.5t-83.5 20.5h-102v107h1335l17 -533h-101q-54 236 -173.5 332t-358.5 96q-101 0 -125.5 -21t-24.5 -89v-445h29q133 0 198.5 63.5t92.5 221.5h102v-678h-102q-27 156 -92.5 219.5t-198.5 63.5h-29v-494 q0 -68 26.5 -89.5t129.5 -21.5q261 0 390.5 103.5t189.5 355.5l102 -8l-27 -555h-1380zM438 1810q0 58 43.5 101t101.5 43q59 0 100.5 -42t41.5 -102q0 -62 -40 -102.5t-102 -40.5q-60 0 -102.5 41.5t-42.5 101.5zM829 1810q0 58 43 101t101 43q59 0 101 -42.5t42 -101.5 q0 -62 -40.5 -102.5t-102.5 -40.5q-61 0 -102.5 41.5t-41.5 101.5z" />
<glyph unicode="&#xcc;" horiz-adv-x="909" d="M53 0v109h113q62 0 83 20t21 86v1049q0 67 -21 87.5t-83 20.5h-113v107h805v-107h-117q-60 0 -81 -20.5t-21 -87.5v-1049q0 -67 20.5 -86.5t81.5 -19.5h117v-109h-805zM123 1909q0 45 32 76.5t79 31.5q35 0 70.5 -21.5t84.5 -74.5l279 -295h-115l-325 162 q-56 28 -80.5 56.5t-24.5 64.5z" />
<glyph unicode="&#xcd;" horiz-adv-x="909" d="M53 0v109h113q62 0 83 20t21 86v1049q0 67 -21 87.5t-83 20.5h-113v107h805v-107h-117q-60 0 -81 -20.5t-21 -87.5v-1049q0 -67 20.5 -86.5t81.5 -19.5h117v-109h-805zM242 1626l279 295q49 53 84.5 74.5t70.5 21.5q47 0 79 -31.5t32 -76.5q0 -37 -23.5 -64.5 t-81.5 -56.5l-325 -162h-115z" />
<glyph unicode="&#xce;" horiz-adv-x="909" d="M53 0v109h113q62 0 83 20t21 86v1049q0 67 -21 87.5t-83 20.5h-113v107h805v-107h-117q-60 0 -81 -20.5t-21 -87.5v-1049q0 -67 20.5 -86.5t81.5 -19.5h117v-109h-805zM133 1626l230 369h184l230 -369h-101l-221 170l-221 -170h-101z" />
<glyph unicode="&#xcf;" horiz-adv-x="909" d="M53 0v109h113q62 0 83 20t21 86v1049q0 67 -21 87.5t-83 20.5h-113v107h805v-107h-117q-60 0 -81 -20.5t-21 -87.5v-1049q0 -67 20.5 -86.5t81.5 -19.5h117v-109h-805zM115 1810q0 58 43.5 101t101.5 43q59 0 100.5 -42t41.5 -102q0 -62 -40 -102.5t-102 -40.5 q-60 0 -102.5 41.5t-42.5 101.5zM506 1810q0 58 43 101t101 43q59 0 101 -42.5t42 -101.5q0 -62 -40.5 -102.5t-102.5 -40.5q-61 0 -102.5 41.5t-41.5 101.5z" />
<glyph unicode="&#xd0;" horiz-adv-x="1712" d="M10 709v108h248v447q0 68 -21 88t-81 20h-113v107h725q432 0 647 -184t215 -556q0 -352 -205.5 -545.5t-580.5 -193.5h-801v109h113q61 0 81.5 19.5t20.5 86.5v494h-248zM627 209q0 -55 18.5 -74.5t75.5 -19.5h141q203 0 290 144t87 484t-95.5 484.5t-318.5 144.5h-34 h-70q-56 0 -75 -20t-19 -76v-459h307v-108h-307v-500z" />
<glyph unicode="&#xd1;" horiz-adv-x="1722" d="M33 0v106q126 12 171.5 63t45.5 202v889l-39 40q-41 46 -73.5 59t-82.5 13h-22v107h516l780 -922v553q0 159 -50 210t-193 52l-1 107h603v-107q-124 -6 -167.5 -57t-43.5 -205v-1130h-129l-965 1142v-751q0 -154 50.5 -207.5t187.5 -57.5v-106h-588zM534 1655 q27 135 84 200.5t148 65.5q22 0 40.5 -2.5t36.5 -7.5l122 -31q5 -1 21 -5.5t23 -4.5q37 0 59.5 22t37.5 72h82q-26 -130 -84 -198t-144 -68q-15 0 -31.5 2.5t-37.5 7.5l-117 31q-24 6 -36.5 8t-20.5 2q-40 0 -64.5 -23.5t-34.5 -70.5h-84z" />
<glyph unicode="&#xd2;" horiz-adv-x="1698" d="M76 739q0 165 53 305.5t156 247.5q108 113 247.5 168.5t315.5 55.5q182 0 320 -55.5t249 -172.5q100 -105 152.5 -245t52.5 -304q0 -170 -48 -297.5t-153 -236.5q-114 -119 -258.5 -179.5t-314.5 -60.5q-173 0 -311.5 57.5t-253.5 178.5q-108 110 -157.5 239t-49.5 299z M485 739q0 -337 89 -499t274 -162q183 0 273.5 164t90.5 497q0 337 -89.5 499.5t-274.5 162.5q-184 0 -273.5 -163.5t-89.5 -498.5zM518 1909q0 45 32 76.5t79 31.5q35 0 70.5 -21.5t84.5 -74.5l279 -295h-115l-325 162q-56 28 -80.5 56.5t-24.5 64.5z" />
<glyph unicode="&#xd3;" horiz-adv-x="1698" d="M76 739q0 165 53 305.5t156 247.5q108 113 247.5 168.5t315.5 55.5q182 0 320 -55.5t249 -172.5q100 -105 152.5 -245t52.5 -304q0 -170 -48 -297.5t-153 -236.5q-114 -119 -258.5 -179.5t-314.5 -60.5q-173 0 -311.5 57.5t-253.5 178.5q-108 110 -157.5 239t-49.5 299z M485 739q0 -337 89 -499t274 -162q183 0 273.5 164t90.5 497q0 337 -89.5 499.5t-274.5 162.5q-184 0 -273.5 -163.5t-89.5 -498.5zM637 1626l279 295q49 53 84.5 74.5t70.5 21.5q47 0 79 -31.5t32 -76.5q0 -37 -23.5 -64.5t-81.5 -56.5l-325 -162h-115z" />
<glyph unicode="&#xd4;" horiz-adv-x="1698" d="M76 739q0 165 53 305.5t156 247.5q108 113 247.5 168.5t315.5 55.5q182 0 320 -55.5t249 -172.5q100 -105 152.5 -245t52.5 -304q0 -170 -48 -297.5t-153 -236.5q-114 -119 -258.5 -179.5t-314.5 -60.5q-173 0 -311.5 57.5t-253.5 178.5q-108 110 -157.5 239t-49.5 299z M485 739q0 -337 89 -499t274 -162q183 0 273.5 164t90.5 497q0 337 -89.5 499.5t-274.5 162.5q-184 0 -273.5 -163.5t-89.5 -498.5zM528 1626l230 369h184l230 -369h-101l-221 170l-221 -170h-101z" />
<glyph unicode="&#xd5;" horiz-adv-x="1698" d="M76 739q0 165 53 305.5t156 247.5q108 113 247.5 168.5t315.5 55.5q182 0 320 -55.5t249 -172.5q100 -105 152.5 -245t52.5 -304q0 -170 -48 -297.5t-153 -236.5q-114 -119 -258.5 -179.5t-314.5 -60.5q-173 0 -311.5 57.5t-253.5 178.5q-108 110 -157.5 239t-49.5 299z M485 739q0 -337 89 -499t274 -162q183 0 273.5 164t90.5 497q0 337 -89.5 499.5t-274.5 162.5q-184 0 -273.5 -163.5t-89.5 -498.5zM522 1655q27 135 84 200.5t148 65.5q22 0 40.5 -2.5t36.5 -7.5l122 -31q5 -1 21 -5.5t23 -4.5q37 0 59.5 22t37.5 72h82q-26 -130 -84 -198 t-144 -68q-15 0 -31.5 2.5t-37.5 7.5l-117 31q-24 6 -36.5 8t-20.5 2q-40 0 -64.5 -23.5t-34.5 -70.5h-84z" />
<glyph unicode="&#xd6;" horiz-adv-x="1698" d="M76 739q0 165 53 305.5t156 247.5q108 113 247.5 168.5t315.5 55.5q182 0 320 -55.5t249 -172.5q100 -105 152.5 -245t52.5 -304q0 -170 -48 -297.5t-153 -236.5q-114 -119 -258.5 -179.5t-314.5 -60.5q-173 0 -311.5 57.5t-253.5 178.5q-108 110 -157.5 239t-49.5 299z M485 739q0 -337 89 -499t274 -162q183 0 273.5 164t90.5 497q0 337 -89.5 499.5t-274.5 162.5q-184 0 -273.5 -163.5t-89.5 -498.5zM510 1810q0 58 43.5 101t101.5 43q59 0 100.5 -42t41.5 -102q0 -62 -40 -102.5t-102 -40.5q-60 0 -102.5 41.5t-42.5 101.5zM901 1810 q0 58 43 101t101 43q59 0 101 -42.5t42 -101.5q0 -62 -40.5 -102.5t-102.5 -40.5q-61 0 -102.5 41.5t-41.5 101.5z" />
<glyph unicode="&#xd7;" horiz-adv-x="1706" d="M276 160l451 450l-451 453l140 139l450 -450l451 450l141 -139l-450 -453l450 -450l-141 -140l-451 451l-450 -451z" />
<glyph unicode="&#xd8;" horiz-adv-x="1698" d="M76 739q0 165 53 305.5t156 247.5q109 114 252.5 169t334.5 55q128 0 231.5 -28.5t182.5 -84.5l125 164h143l-176 -238q121 -107 182.5 -259.5t61.5 -346.5q0 -157 -49 -283t-152 -235q-114 -120 -257.5 -180t-317.5 -60q-123 0 -229 30t-193 89l-186 -246h-154l246 318 q-130 111 -192 253.5t-62 329.5zM485 678q0 -89 7 -158.5t20 -120.5l627 807q-43 98 -115.5 146.5t-175.5 48.5q-191 0 -277 -170.5t-86 -552.5zM561 264q51 -94 121.5 -140t165.5 -46q183 0 273.5 164t90.5 497q0 120 -7 202.5t-21 133.5z" />
<glyph unicode="&#xd9;" horiz-adv-x="1702" d="M35 1372v107h780v-107h-102q-62 0 -83.5 -21t-21.5 -87v-748q0 -205 85.5 -298t273.5 -93q82 0 151 22.5t115 63.5q56 50 79 127t23 264v537q0 134 -47.5 183.5t-165.5 49.5h-14v107h563v-107q-113 -10 -157 -58t-44 -175v-555q0 -176 -16.5 -253.5t-56.5 -137.5 q-76 -117 -210 -173.5t-335 -56.5q-301 0 -454.5 125t-153.5 371v805q0 66 -21.5 87t-83.5 21h-104zM579 1909q0 45 32 76.5t79 31.5q35 0 70.5 -21.5t84.5 -74.5l279 -295h-115l-325 162q-56 28 -80.5 56.5t-24.5 64.5z" />
<glyph unicode="&#xda;" horiz-adv-x="1702" d="M35 1372v107h780v-107h-102q-62 0 -83.5 -21t-21.5 -87v-748q0 -205 85.5 -298t273.5 -93q82 0 151 22.5t115 63.5q56 50 79 127t23 264v537q0 134 -47.5 183.5t-165.5 49.5h-14v107h563v-107q-113 -10 -157 -58t-44 -175v-555q0 -176 -16.5 -253.5t-56.5 -137.5 q-76 -117 -210 -173.5t-335 -56.5q-301 0 -454.5 125t-153.5 371v805q0 66 -21.5 87t-83.5 21h-104zM698 1626l279 295q49 53 84.5 74.5t70.5 21.5q47 0 79 -31.5t32 -76.5q0 -37 -23.5 -64.5t-81.5 -56.5l-325 -162h-115z" />
<glyph unicode="&#xdb;" horiz-adv-x="1702" d="M35 1372v107h780v-107h-102q-62 0 -83.5 -21t-21.5 -87v-748q0 -205 85.5 -298t273.5 -93q82 0 151 22.5t115 63.5q56 50 79 127t23 264v537q0 134 -47.5 183.5t-165.5 49.5h-14v107h563v-107q-113 -10 -157 -58t-44 -175v-555q0 -176 -16.5 -253.5t-56.5 -137.5 q-76 -117 -210 -173.5t-335 -56.5q-301 0 -454.5 125t-153.5 371v805q0 66 -21.5 87t-83.5 21h-104zM589 1626l230 369h184l230 -369h-101l-221 170l-221 -170h-101z" />
<glyph unicode="&#xdc;" horiz-adv-x="1702" d="M35 1372v107h780v-107h-102q-62 0 -83.5 -21t-21.5 -87v-748q0 -205 85.5 -298t273.5 -93q82 0 151 22.5t115 63.5q56 50 79 127t23 264v537q0 134 -47.5 183.5t-165.5 49.5h-14v107h563v-107q-113 -10 -157 -58t-44 -175v-555q0 -176 -16.5 -253.5t-56.5 -137.5 q-76 -117 -210 -173.5t-335 -56.5q-301 0 -454.5 125t-153.5 371v805q0 66 -21.5 87t-83.5 21h-104zM571 1810q0 58 43.5 101t101.5 43q59 0 100.5 -42t41.5 -102q0 -62 -40 -102.5t-102 -40.5q-60 0 -102.5 41.5t-42.5 101.5zM962 1810q0 58 43 101t101 43q59 0 101 -42.5 t42 -101.5q0 -62 -40.5 -102.5t-102.5 -40.5q-61 0 -102.5 41.5t-41.5 101.5z" />
<glyph unicode="&#xdd;" horiz-adv-x="1460" d="M-45 1372v107h739v-107h-59q-46 0 -67 -12.5t-21 -40.5q0 -23 71 -142.5t230 -361.5l188 338q24 44 33.5 70t9.5 45q0 50 -34 77t-99 27h-59v107h598v-109q-80 0 -138 -36.5t-108 -119.5l-332 -557v-442q0 -66 21.5 -86t83.5 -20h127v-109h-824v109h123q62 0 83.5 20 t21.5 86v410l-398 628q-47 76 -80.5 97.5t-87.5 21.5h-22zM518 1626l279 295q49 53 84.5 74.5t70.5 21.5q47 0 79 -31.5t32 -76.5q0 -37 -23.5 -64.5t-81.5 -56.5l-325 -162h-115z" />
<glyph unicode="&#xde;" horiz-adv-x="1550" d="M33 0v109h114q62 0 82.5 19.5t20.5 86.5v1049q0 68 -21 88t-82 20h-114v107h798v-107h-116q-60 0 -81.5 -19.5t-21.5 -76.5v-72h293q301 0 445.5 -103t144.5 -317q0 -217 -166 -321.5t-512 -104.5q-17 0 -88.5 2t-116.5 2v-147q0 -67 21 -86.5t82 -19.5h116v-109h-798z M612 969l1 -492q23 -3 48.5 -4.5t53.5 -1.5q222 0 306.5 70t84.5 245q0 171 -73 241.5t-255 70.5q-111 0 -138.5 -23t-27.5 -106z" />
<glyph unicode="&#xdf;" horiz-adv-x="1253" d="M-4 0v92h63q71 0 91 15.5t20 64.5v928q0 201 120.5 307t348.5 106q201 0 323.5 -97.5t122.5 -254.5q0 -109 -72 -186t-200 -105v-12q164 -17 259 -132t95 -296q0 -209 -119 -337t-313 -128q-45 0 -81.5 7.5t-69.5 23.5v110q37 -21 67 -30.5t68 -9.5q66 0 99.5 98 t33.5 293q0 201 -41.5 275.5t-140.5 74.5h-43q-23 0 -33 12t-10 37q0 22 12 31.5t43 9.5q87 0 117 55t30 187q0 151 -36 215.5t-119 64.5q-91 0 -127.5 -61t-36.5 -244v-1114h-471z" />
<glyph unicode="&#xe0;" horiz-adv-x="1241" d="M88 209q0 155 162.5 248.5t513.5 140.5v111q0 108 -43 153t-143 45q-65 0 -109.5 -21.5t-44.5 -49.5q0 -7 26.5 -41t26.5 -76q0 -58 -45.5 -93.5t-118.5 -35.5q-74 0 -123 43t-49 108q0 128 123 198.5t348 70.5q126 0 221.5 -25.5t157.5 -75.5q49 -38 68.5 -86.5 t19.5 -148.5v-438q0 -49 17.5 -70t56.5 -21q18 0 41 10.5t29 10.5q12 0 19 -8t7 -23q0 -64 -73 -117t-175 -53q-76 0 -130 40.5t-64 104.5q-84 -69 -190.5 -107t-219.5 -38q-147 0 -228 64t-81 180zM289 1399q0 45 32 76.5t79 31.5q35 0 70.5 -21.5t84.5 -74.5l279 -295 h-115l-325 162q-56 28 -80.5 56.5t-24.5 64.5zM426 250q0 -63 34.5 -100t92.5 -37q95 0 152 70.5t57 193.5v119q-182 -29 -259 -86t-77 -160z" />
<glyph unicode="&#xe1;" horiz-adv-x="1241" d="M88 209q0 155 162.5 248.5t513.5 140.5v111q0 108 -43 153t-143 45q-65 0 -109.5 -21.5t-44.5 -49.5q0 -7 26.5 -41t26.5 -76q0 -58 -45.5 -93.5t-118.5 -35.5q-74 0 -123 43t-49 108q0 128 123 198.5t348 70.5q126 0 221.5 -25.5t157.5 -75.5q49 -38 68.5 -86.5 t19.5 -148.5v-438q0 -49 17.5 -70t56.5 -21q18 0 41 10.5t29 10.5q12 0 19 -8t7 -23q0 -64 -73 -117t-175 -53q-76 0 -130 40.5t-64 104.5q-84 -69 -190.5 -107t-219.5 -38q-147 0 -228 64t-81 180zM408 1116l279 295q49 53 84.5 74.5t70.5 21.5q47 0 79 -31.5t32 -76.5 q0 -37 -23.5 -64.5t-81.5 -56.5l-325 -162h-115zM426 250q0 -63 34.5 -100t92.5 -37q95 0 152 70.5t57 193.5v119q-182 -29 -259 -86t-77 -160z" />
<glyph unicode="&#xe2;" horiz-adv-x="1241" d="M88 209q0 155 162.5 248.5t513.5 140.5v111q0 108 -43 153t-143 45q-65 0 -109.5 -21.5t-44.5 -49.5q0 -7 26.5 -41t26.5 -76q0 -58 -45.5 -93.5t-118.5 -35.5q-74 0 -123 43t-49 108q0 128 123 198.5t348 70.5q126 0 221.5 -25.5t157.5 -75.5q49 -38 68.5 -86.5 t19.5 -148.5v-438q0 -49 17.5 -70t56.5 -21q18 0 41 10.5t29 10.5q12 0 19 -8t7 -23q0 -64 -73 -117t-175 -53q-76 0 -130 40.5t-64 104.5q-84 -69 -190.5 -107t-219.5 -38q-147 0 -228 64t-81 180zM299 1116l230 369h184l230 -369h-101l-221 170l-221 -170h-101zM426 250 q0 -63 34.5 -100t92.5 -37q95 0 152 70.5t57 193.5v119q-182 -29 -259 -86t-77 -160z" />
<glyph unicode="&#xe3;" horiz-adv-x="1241" d="M88 209q0 155 162.5 248.5t513.5 140.5v111q0 108 -43 153t-143 45q-65 0 -109.5 -21.5t-44.5 -49.5q0 -7 26.5 -41t26.5 -76q0 -58 -45.5 -93.5t-118.5 -35.5q-74 0 -123 43t-49 108q0 128 123 198.5t348 70.5q126 0 221.5 -25.5t157.5 -75.5q49 -38 68.5 -86.5 t19.5 -148.5v-438q0 -49 17.5 -70t56.5 -21q18 0 41 10.5t29 10.5q12 0 19 -8t7 -23q0 -64 -73 -117t-175 -53q-76 0 -130 40.5t-64 104.5q-84 -69 -190.5 -107t-219.5 -38q-147 0 -228 64t-81 180zM293 1145q27 135 84 200.5t148 65.5q22 0 40.5 -2.5t36.5 -7.5l122 -31 q5 -1 21 -5.5t23 -4.5q37 0 59.5 22t37.5 72h82q-26 -130 -84 -198t-144 -68q-15 0 -31.5 2.5t-37.5 7.5l-117 31q-24 6 -36.5 8t-20.5 2q-40 0 -64.5 -23.5t-34.5 -70.5h-84zM426 250q0 -63 34.5 -100t92.5 -37q95 0 152 70.5t57 193.5v119q-182 -29 -259 -86t-77 -160z " />
<glyph unicode="&#xe4;" horiz-adv-x="1241" d="M88 209q0 155 162.5 248.5t513.5 140.5v111q0 108 -43 153t-143 45q-65 0 -109.5 -21.5t-44.5 -49.5q0 -7 26.5 -41t26.5 -76q0 -58 -45.5 -93.5t-118.5 -35.5q-74 0 -123 43t-49 108q0 128 123 198.5t348 70.5q126 0 221.5 -25.5t157.5 -75.5q49 -38 68.5 -86.5 t19.5 -148.5v-438q0 -49 17.5 -70t56.5 -21q18 0 41 10.5t29 10.5q12 0 19 -8t7 -23q0 -64 -73 -117t-175 -53q-76 0 -130 40.5t-64 104.5q-84 -69 -190.5 -107t-219.5 -38q-147 0 -228 64t-81 180zM281 1300q0 58 43.5 101t101.5 43q59 0 100.5 -42t41.5 -102 q0 -62 -40 -102.5t-102 -40.5q-60 0 -102.5 41.5t-42.5 101.5zM426 250q0 -63 34.5 -100t92.5 -37q95 0 152 70.5t57 193.5v119q-182 -29 -259 -86t-77 -160zM672 1300q0 58 43 101t101 43q59 0 101 -42.5t42 -101.5q0 -62 -40.5 -102.5t-102.5 -40.5q-61 0 -102.5 41.5 t-41.5 101.5z" />
<glyph unicode="&#xe5;" horiz-adv-x="1241" d="M88 209q0 155 162.5 248.5t513.5 140.5v111q0 108 -43 153t-143 45q-65 0 -109.5 -21.5t-44.5 -49.5q0 -7 26.5 -41t26.5 -76q0 -58 -45.5 -93.5t-118.5 -35.5q-74 0 -123 43t-49 108q0 128 123 198.5t348 70.5q126 0 221.5 -25.5t157.5 -75.5q49 -38 68.5 -86.5 t19.5 -148.5v-438q0 -49 17.5 -70t56.5 -21q18 0 41 10.5t29 10.5q12 0 19 -8t7 -23q0 -64 -73 -117t-175 -53q-76 0 -130 40.5t-64 104.5q-84 -69 -190.5 -107t-219.5 -38q-147 0 -228 64t-81 180zM373 1364q0 111 77 187.5t189 76.5t189 -76.5t77 -187.5 q0 -113 -77 -190.5t-189 -77.5t-189 77.5t-77 190.5zM426 250q0 -63 34.5 -100t92.5 -37q95 0 152 70.5t57 193.5v119q-182 -29 -259 -86t-77 -160zM516 1362q0 -52 35 -86.5t88 -34.5q51 0 86 35t35 86t-35.5 87t-85.5 36q-52 0 -87.5 -35.5t-35.5 -87.5z" />
<glyph unicode="&#xe6;" horiz-adv-x="1786" d="M55 209q0 154 163 248t515 141v107q0 111 -43 156.5t-145 45.5q-65 0 -109.5 -21.5t-44.5 -49.5q0 -7 26.5 -41t26.5 -76q0 -58 -45 -93.5t-118 -35.5q-75 0 -123.5 43t-48.5 108q0 127 121.5 198t338.5 71q123 0 208 -31.5t153 -99.5q54 62 135.5 93.5t187.5 31.5 q209 0 334 -136.5t125 -363.5v-31h-676v-16q0 -177 69.5 -266t207.5 -89q100 0 177.5 59t129.5 175l88 -43q-46 -159 -165.5 -243.5t-297.5 -84.5q-129 0 -236.5 47.5t-193.5 143.5q-88 -92 -205.5 -141.5t-244.5 -49.5q-148 0 -229 64t-81 180zM403 246q0 -63 34 -100 t89 -37q92 0 146.5 70.5t54.5 193.5v119q-176 -29 -250 -86t-74 -160zM1038 580h297q31 0 42.5 14t11.5 59q0 128 -37 187t-117 59q-91 0 -140 -79t-57 -240z" />
<glyph unicode="&#xe7;" horiz-adv-x="1128" d="M61 485q0 234 160 377.5t422 143.5q185 0 300.5 -77t115.5 -198q0 -87 -51.5 -138.5t-139.5 -51.5q-72 0 -120 45.5t-48 111.5q0 59 34 102t34 44q0 23 -33 40t-82 17q-124 0 -182.5 -94.5t-58.5 -292.5q0 -203 69 -306.5t205 -103.5q105 0 177 64t112 192l104 -32 q-47 -177 -169 -269t-308 -92q-240 0 -390.5 144t-150.5 374zM303 -379l47 103q67 -39 128 -58.5t116 -19.5q35 0 57.5 21t22.5 54q0 41 -23 61.5t-68 20.5q-14 0 -30.5 -2t-32.5 -6v203h88v-114q18 2 35 3.5t33 1.5q86 0 136 -45.5t50 -124.5q0 -84 -60 -136t-157 -52 q-68 0 -144 19.5t-198 70.5z" />
<glyph unicode="&#xe8;" horiz-adv-x="1169" d="M61 485q0 232 155.5 376.5t406.5 144.5q229 0 356 -132.5t127 -371.5v-27h-688v-14q0 -178 71.5 -268.5t212.5 -90.5q103 0 181 59.5t131 176.5l90 -43q-48 -161 -168.5 -244.5t-306.5 -83.5q-255 0 -411.5 143t-156.5 375zM274 1399q0 45 32 76.5t79 31.5 q35 0 70.5 -21.5t84.5 -74.5l279 -295h-115l-325 162q-56 28 -80.5 56.5t-24.5 64.5zM418 582h315q32 0 45 14t13 51q0 132 -39.5 192t-124.5 60q-98 0 -149.5 -78.5t-59.5 -238.5z" />
<glyph unicode="&#xe9;" horiz-adv-x="1169" d="M61 485q0 232 155.5 376.5t406.5 144.5q229 0 356 -132.5t127 -371.5v-27h-688v-14q0 -178 71.5 -268.5t212.5 -90.5q103 0 181 59.5t131 176.5l90 -43q-48 -161 -168.5 -244.5t-306.5 -83.5q-255 0 -411.5 143t-156.5 375zM393 1116l279 295q49 53 84.5 74.5t70.5 21.5 q47 0 79 -31.5t32 -76.5q0 -37 -23.5 -64.5t-81.5 -56.5l-325 -162h-115zM418 582h315q32 0 45 14t13 51q0 132 -39.5 192t-124.5 60q-98 0 -149.5 -78.5t-59.5 -238.5z" />
<glyph unicode="&#xea;" horiz-adv-x="1169" d="M61 485q0 232 155.5 376.5t406.5 144.5q229 0 356 -132.5t127 -371.5v-27h-688v-14q0 -178 71.5 -268.5t212.5 -90.5q103 0 181 59.5t131 176.5l90 -43q-48 -161 -168.5 -244.5t-306.5 -83.5q-255 0 -411.5 143t-156.5 375zM284 1116l230 369h184l230 -369h-101l-221 170 l-221 -170h-101zM418 582h315q32 0 45 14t13 51q0 132 -39.5 192t-124.5 60q-98 0 -149.5 -78.5t-59.5 -238.5z" />
<glyph unicode="&#xeb;" horiz-adv-x="1169" d="M61 485q0 232 155.5 376.5t406.5 144.5q229 0 356 -132.5t127 -371.5v-27h-688v-14q0 -178 71.5 -268.5t212.5 -90.5q103 0 181 59.5t131 176.5l90 -43q-48 -161 -168.5 -244.5t-306.5 -83.5q-255 0 -411.5 143t-156.5 375zM266 1300q0 58 43.5 101t101.5 43 q59 0 100.5 -42t41.5 -102q0 -62 -40 -102.5t-102 -40.5q-60 0 -102.5 41.5t-42.5 101.5zM418 582h315q32 0 45 14t13 51q0 132 -39.5 192t-124.5 60q-98 0 -149.5 -78.5t-59.5 -238.5zM657 1300q0 58 43 101t101 43q59 0 101 -42.5t42 -101.5q0 -62 -40.5 -102.5 t-102.5 -40.5q-61 0 -102.5 41.5t-41.5 101.5z" />
<glyph unicode="&#xec;" horiz-adv-x="752" d="M45 1399q0 45 32 76.5t79 31.5q35 0 70.5 -21.5t84.5 -74.5l279 -295h-115l-325 162q-56 28 -80.5 56.5t-24.5 64.5zM51 872v101l496 22v-815q0 -43 14 -58.5t56 -17.5l81 -2v-102h-632v102l89 2q41 2 55.5 18t14.5 58v613q0 49 -22 65t-90 16q-9 0 -29.5 -1t-32.5 -1z " />
<glyph unicode="&#xed;" horiz-adv-x="752" d="M51 872v101l496 22v-815q0 -43 14 -58.5t56 -17.5l81 -2v-102h-632v102l89 2q41 2 55.5 18t14.5 58v613q0 49 -22 65t-90 16q-9 0 -29.5 -1t-32.5 -1zM164 1116l279 295q49 53 84.5 74.5t70.5 21.5q47 0 79 -31.5t32 -76.5q0 -37 -23.5 -64.5t-81.5 -56.5l-325 -162h-115 z" />
<glyph unicode="&#xee;" horiz-adv-x="752" d="M51 872v101l496 22v-815q0 -43 14 -58.5t56 -17.5l81 -2v-102h-632v102l89 2q41 2 55.5 18t14.5 58v613q0 49 -22 65t-90 16q-9 0 -29.5 -1t-32.5 -1zM55 1116l230 369h184l230 -369h-101l-221 170l-221 -170h-101z" />
<glyph unicode="&#xef;" horiz-adv-x="752" d="M37 1300q0 58 43.5 101t101.5 43q59 0 100.5 -42t41.5 -102q0 -62 -40 -102.5t-102 -40.5q-60 0 -102.5 41.5t-42.5 101.5zM51 872v101l496 22v-815q0 -43 14 -58.5t56 -17.5l81 -2v-102h-632v102l89 2q41 2 55.5 18t14.5 58v613q0 49 -22 65t-90 16q-9 0 -29.5 -1 t-32.5 -1zM428 1300q0 58 43 101t101 43q59 0 101 -42.5t42 -101.5q0 -62 -40.5 -102.5t-102.5 -40.5q-61 0 -102.5 41.5t-41.5 101.5z" />
<glyph unicode="&#xf0;" horiz-adv-x="1247" d="M61 485q0 230 153.5 372t411.5 151q-32 43 -60 79.5t-52 65.5l-326 -158l-34 74l303 150q-60 72 -117 137t-113 127l74 82q73 -46 159 -108t189 -144l340 166l39 -70l-305 -152q241 -193 352 -378t111 -394q0 -230 -156.5 -374t-406.5 -144t-406 144t-156 374zM416 485 q0 -210 50.5 -303.5t164.5 -93.5q108 0 157.5 94t49.5 303q0 210 -49 305t-156 95q-115 0 -166 -94t-51 -306z" />
<glyph unicode="&#xf1;" horiz-adv-x="1395" d="M31 872v101l481 22v-196q74 101 161.5 148.5t200.5 47.5q170 0 252 -87t82 -267v-461q0 -42 14.5 -58t55.5 -18l96 -2v-102h-624v102l70 5q42 2 55.5 17.5t13.5 57.5v428q0 107 -36.5 155t-117.5 48q-111 0 -161 -76t-50 -250v-307q0 -42 14 -57.5t56 -18.5l72 -2v-102 h-627v102l96 2q42 3 56 18.5t14 57.5v613q0 49 -22 65t-91 16q-9 0 -29.5 -1t-31.5 -1zM370 1145q27 135 84 200.5t148 65.5q22 0 40.5 -2.5t36.5 -7.5l122 -31q5 -1 21 -5.5t23 -4.5q37 0 59.5 22t37.5 72h82q-26 -130 -84 -198t-144 -68q-15 0 -31.5 2.5t-37.5 7.5 l-117 31q-24 6 -36.5 8t-20.5 2q-40 0 -64.5 -23.5t-34.5 -70.5h-84z" />
<glyph unicode="&#xf2;" horiz-adv-x="1247" d="M61 485q0 230 156.5 375.5t405.5 145.5q247 0 405 -146t158 -375t-156.5 -373.5t-406.5 -144.5t-406 144t-156 374zM293 1399q0 45 32 76.5t79 31.5q35 0 70.5 -21.5t84.5 -74.5l279 -295h-115l-325 162q-56 28 -80.5 56.5t-24.5 64.5zM416 485q0 -206 49 -301.5 t156 -95.5q108 0 158 95.5t50 301.5q0 209 -49.5 304.5t-156.5 95.5q-108 0 -157.5 -95.5t-49.5 -304.5z" />
<glyph unicode="&#xf3;" horiz-adv-x="1247" d="M61 485q0 230 156.5 375.5t405.5 145.5q247 0 405 -146t158 -375t-156.5 -373.5t-406.5 -144.5t-406 144t-156 374zM412 1116l279 295q49 53 84.5 74.5t70.5 21.5q47 0 79 -31.5t32 -76.5q0 -37 -23.5 -64.5t-81.5 -56.5l-325 -162h-115zM416 485q0 -206 49 -301.5 t156 -95.5q108 0 158 95.5t50 301.5q0 209 -49.5 304.5t-156.5 95.5q-108 0 -157.5 -95.5t-49.5 -304.5z" />
<glyph unicode="&#xf4;" horiz-adv-x="1247" d="M61 485q0 230 156.5 375.5t405.5 145.5q247 0 405 -146t158 -375t-156.5 -373.5t-406.5 -144.5t-406 144t-156 374zM303 1116l230 369h184l230 -369h-101l-221 170l-221 -170h-101zM416 485q0 -206 49 -301.5t156 -95.5q108 0 158 95.5t50 301.5q0 209 -49.5 304.5 t-156.5 95.5q-108 0 -157.5 -95.5t-49.5 -304.5z" />
<glyph unicode="&#xf5;" horiz-adv-x="1247" d="M61 485q0 230 156.5 375.5t405.5 145.5q247 0 405 -146t158 -375t-156.5 -373.5t-406.5 -144.5t-406 144t-156 374zM297 1145q27 135 84 200.5t148 65.5q22 0 40.5 -2.5t36.5 -7.5l122 -31q5 -1 21 -5.5t23 -4.5q37 0 59.5 22t37.5 72h82q-26 -130 -84 -198t-144 -68 q-15 0 -31.5 2.5t-37.5 7.5l-117 31q-24 6 -36.5 8t-20.5 2q-40 0 -64.5 -23.5t-34.5 -70.5h-84zM416 485q0 -206 49 -301.5t156 -95.5q108 0 158 95.5t50 301.5q0 209 -49.5 304.5t-156.5 95.5q-108 0 -157.5 -95.5t-49.5 -304.5z" />
<glyph unicode="&#xf6;" horiz-adv-x="1247" d="M61 485q0 230 156.5 375.5t405.5 145.5q247 0 405 -146t158 -375t-156.5 -373.5t-406.5 -144.5t-406 144t-156 374zM285 1300q0 58 43.5 101t101.5 43q59 0 100.5 -42t41.5 -102q0 -62 -40 -102.5t-102 -40.5q-60 0 -102.5 41.5t-42.5 101.5zM416 485q0 -206 49 -301.5 t156 -95.5q108 0 158 95.5t50 301.5q0 209 -49.5 304.5t-156.5 95.5q-108 0 -157.5 -95.5t-49.5 -304.5zM676 1300q0 58 43 101t101 43q59 0 101 -42.5t42 -101.5q0 -62 -40.5 -102.5t-102.5 -40.5q-61 0 -102.5 41.5t-41.5 101.5z" />
<glyph unicode="&#xf7;" horiz-adv-x="1706" d="M254 512v199h1198v-199h-1198zM702 217q0 63 44.5 107.5t107.5 44.5q62 0 107 -45t45 -107q0 -61 -45 -105t-107 -44q-63 0 -107.5 43t-44.5 106zM702 1004q0 63 44.5 107t107.5 44q62 0 107 -44.5t45 -106.5q0 -63 -44.5 -107.5t-107.5 -44.5t-107.5 44.5t-44.5 107.5z " />
<glyph unicode="&#xf8;" horiz-adv-x="1247" d="M61 481q0 227 156 373.5t395 146.5q72 0 139 -13t123 -38l113 166h129l-149 -213q108 -73 162.5 -178.5t54.5 -243.5q0 -231 -156.5 -375.5t-409.5 -144.5q-73 0 -139 14.5t-125 42.5l-116 -174h-125l153 224q-104 75 -154.5 176.5t-50.5 236.5zM416 479q0 -44 3.5 -88.5 t11.5 -90.5l343 495q-28 42 -66 64t-83 22q-108 0 -158.5 -98t-50.5 -304zM463 182q26 -51 65.5 -75.5t94.5 -24.5q110 0 158 98.5t48 329.5q0 54 -4 96.5t-12 77.5z" />
<glyph unicode="&#xf9;" horiz-adv-x="1352" d="M6 872v101l483 22v-635q0 -105 36 -152.5t114 -47.5q106 0 156.5 77t50.5 238v318q0 49 -20.5 64t-98.5 15h-68v101l506 22v-817q0 -48 20.5 -64t88.5 -16q8 0 30 1t35 1v-100l-481 -25v193q-69 -101 -159 -151t-205 -50q-160 0 -246 85t-86 243v498q0 48 -20.5 63.5 t-88.5 15.5h-47zM330 1399q0 45 32 76.5t79 31.5q35 0 70.5 -21.5t84.5 -74.5l279 -295h-115l-325 162q-56 28 -80.5 56.5t-24.5 64.5z" />
<glyph unicode="&#xfa;" horiz-adv-x="1352" d="M6 872v101l483 22v-635q0 -105 36 -152.5t114 -47.5q106 0 156.5 77t50.5 238v318q0 49 -20.5 64t-98.5 15h-68v101l506 22v-817q0 -48 20.5 -64t88.5 -16q8 0 30 1t35 1v-100l-481 -25v193q-69 -101 -159 -151t-205 -50q-160 0 -246 85t-86 243v498q0 48 -20.5 63.5 t-88.5 15.5h-47zM449 1116l279 295q49 53 84.5 74.5t70.5 21.5q47 0 79 -31.5t32 -76.5q0 -37 -23.5 -64.5t-81.5 -56.5l-325 -162h-115z" />
<glyph unicode="&#xfb;" horiz-adv-x="1352" d="M6 872v101l483 22v-635q0 -105 36 -152.5t114 -47.5q106 0 156.5 77t50.5 238v318q0 49 -20.5 64t-98.5 15h-68v101l506 22v-817q0 -48 20.5 -64t88.5 -16q8 0 30 1t35 1v-100l-481 -25v193q-69 -101 -159 -151t-205 -50q-160 0 -246 85t-86 243v498q0 48 -20.5 63.5 t-88.5 15.5h-47zM340 1116l230 369h184l230 -369h-101l-221 170l-221 -170h-101z" />
<glyph unicode="&#xfc;" horiz-adv-x="1352" d="M6 872v101l483 22v-635q0 -105 36 -152.5t114 -47.5q106 0 156.5 77t50.5 238v318q0 49 -20.5 64t-98.5 15h-68v101l506 22v-817q0 -48 20.5 -64t88.5 -16q8 0 30 1t35 1v-100l-481 -25v193q-69 -101 -159 -151t-205 -50q-160 0 -246 85t-86 243v498q0 48 -20.5 63.5 t-88.5 15.5h-47zM322 1300q0 58 43.5 101t101.5 43q59 0 100.5 -42t41.5 -102q0 -62 -40 -102.5t-102 -40.5q-60 0 -102.5 41.5t-42.5 101.5zM713 1300q0 58 43 101t101 43q59 0 101 -42.5t42 -101.5q0 -62 -40.5 -102.5t-102.5 -40.5q-61 0 -102.5 41.5t-41.5 101.5z" />
<glyph unicode="&#xfd;" horiz-adv-x="1192" d="M2 -233q0 73 52 123.5t128 50.5q65 0 108.5 -39.5t43.5 -96.5q0 -18 -8.5 -41.5t-8.5 -29.5q0 -9 8.5 -15t22.5 -6q45 0 96.5 55.5t94.5 151.5l18 41l-412 799q-36 70 -63 91t-70 24v100h582v-101h-39q-33 0 -52.5 -12t-19.5 -33q0 -13 5.5 -35t13.5 -36l217 -434 l174 399q7 15 10.5 34t3.5 36q0 41 -26 61t-80 20h-53v101h460v-100q-67 -8 -101.5 -33t-64.5 -90l-366 -801q-97 -213 -195 -296t-241 -83q-108 0 -173 53.5t-65 141.5zM383 1116l279 295q49 53 84.5 74.5t70.5 21.5q47 0 79 -31.5t32 -76.5q0 -37 -23.5 -64.5t-81.5 -56.5 l-325 -162h-115z" />
<glyph unicode="&#xfe;" horiz-adv-x="1337" d="M12 1368v100l494 23v-647q61 77 141 114t187 37q189 0 313.5 -141t124.5 -360q0 -227 -135.5 -378t-333.5 -151q-89 0 -160.5 31.5t-136.5 99.5v-342q0 -43 15 -59.5t54 -16.5h115v-104h-659v100l85 4q41 2 55.5 18t14.5 58v1536q0 47 -20.5 62.5t-95.5 15.5h-58z M498 483q0 -182 58 -281.5t165 -99.5q97 0 148 95t51 278q0 186 -50 279.5t-149 93.5q-110 0 -166.5 -92.5t-56.5 -272.5z" />
<glyph unicode="&#xff;" horiz-adv-x="1192" d="M2 -233q0 73 52 123.5t128 50.5q65 0 108.5 -39.5t43.5 -96.5q0 -18 -8.5 -41.5t-8.5 -29.5q0 -9 8.5 -15t22.5 -6q45 0 96.5 55.5t94.5 151.5l18 41l-412 799q-36 70 -63 91t-70 24v100h582v-101h-39q-33 0 -52.5 -12t-19.5 -33q0 -13 5.5 -35t13.5 -36l217 -434 l174 399q7 15 10.5 34t3.5 36q0 41 -26 61t-80 20h-53v101h460v-100q-67 -8 -101.5 -33t-64.5 -90l-366 -801q-97 -213 -195 -296t-241 -83q-108 0 -173 53.5t-65 141.5zM256 1300q0 58 43.5 101t101.5 43q59 0 100.5 -42t41.5 -102q0 -62 -40 -102.5t-102 -40.5 q-60 0 -102.5 41.5t-42.5 101.5zM647 1300q0 58 43 101t101 43q59 0 101 -42.5t42 -101.5q0 -62 -40.5 -102.5t-102.5 -40.5q-61 0 -102.5 41.5t-41.5 101.5z" />
<glyph unicode="&#x152;" horiz-adv-x="2314" d="M76 741q0 215 93 380.5t269 264.5q88 50 199.5 71.5t300.5 21.5h1200l16 -533h-100q-58 233 -177 327.5t-355 94.5q-101 0 -125.5 -21t-24.5 -90v-438h29q133 0 198.5 63.5t92.5 221.5h102v-678h-102q-27 156 -92.5 219.5t-198.5 63.5h-29v-494q0 -68 26.5 -89.5 t129.5 -21.5q261 0 391.5 103.5t189.5 355.5l101 -8l-27 -555h-1245h-86q-167 0 -259.5 19.5t-168.5 64.5q-167 97 -257.5 268.5t-90.5 388.5zM467 752q0 -343 75 -495.5t242 -152.5q59 0 109 18t82 50q26 26 36.5 76.5t10.5 189.5v68v452v74q0 120 -8.5 171t-28.5 83 q-26 44 -74 67t-110 23q-178 0 -256 -143.5t-78 -480.5z" />
<glyph unicode="&#x153;" horiz-adv-x="1843" d="M61 485q0 230 157 374.5t407 144.5q98 0 180.5 -33.5t148.5 -100.5q70 67 156.5 100.5t189.5 33.5q221 0 348.5 -133.5t127.5 -366.5v-31h-672v-29q0 -167 68 -254.5t198 -87.5q104 0 183 59t130 175l89 -43q-47 -158 -167 -243t-298 -85q-115 0 -206.5 35t-152.5 102 q-61 -66 -148 -101.5t-188 -35.5q-243 0 -397 146t-154 374zM399 483q0 -212 49 -310.5t154 -98.5q108 0 156.5 97t48.5 312t-48.5 312.5t-154.5 97.5q-107 0 -156 -98t-49 -312zM1108 580h291q29 0 40 14t11 59q0 128 -36.5 187t-115.5 59q-89 0 -136.5 -79t-53.5 -240z " />
<glyph unicode="&#x178;" horiz-adv-x="1460" d="M-45 1372v107h739v-107h-59q-46 0 -67 -12.5t-21 -40.5q0 -23 71 -142.5t230 -361.5l188 338q24 44 33.5 70t9.5 45q0 50 -34 77t-99 27h-59v107h598v-109q-80 0 -138 -36.5t-108 -119.5l-332 -557v-442q0 -66 21.5 -86t83.5 -20h127v-109h-824v109h123q62 0 83.5 20 t21.5 86v410l-398 628q-47 76 -80.5 97.5t-87.5 21.5h-22zM391 1810q0 58 43.5 101t101.5 43q59 0 100.5 -42t41.5 -102q0 -62 -40 -102.5t-102 -40.5q-60 0 -102.5 41.5t-42.5 101.5zM782 1810q0 58 43 101t101 43q59 0 101 -42.5t42 -101.5q0 -62 -40.5 -102.5 t-102.5 -40.5q-61 0 -102.5 41.5t-41.5 101.5z" />
<glyph unicode="&#x2c6;" horiz-adv-x="1024" d="M190 1116l230 369h184l230 -369h-101l-221 170l-221 -170h-101z" />
<glyph unicode="&#x2dc;" horiz-adv-x="1024" d="M184 1145q27 135 84 200.5t148 65.5q22 0 40.5 -2.5t36.5 -7.5l122 -31q5 -1 21 -5.5t23 -4.5q37 0 59.5 22t37.5 72h82q-26 -130 -84 -198t-144 -68q-15 0 -31.5 2.5t-37.5 7.5l-117 31q-24 6 -36.5 8t-20.5 2q-40 0 -64.5 -23.5t-34.5 -70.5h-84z" />
<glyph unicode="&#x2000;" horiz-adv-x="1008" />
<glyph unicode="&#x2001;" horiz-adv-x="2017" />
<glyph unicode="&#x2002;" horiz-adv-x="1008" />
<glyph unicode="&#x2003;" horiz-adv-x="2017" />
<glyph unicode="&#x2004;" horiz-adv-x="672" />
<glyph unicode="&#x2005;" horiz-adv-x="504" />
<glyph unicode="&#x2006;" horiz-adv-x="336" />
<glyph unicode="&#x2007;" horiz-adv-x="336" />
<glyph unicode="&#x2008;" horiz-adv-x="252" />
<glyph unicode="&#x2009;" horiz-adv-x="403" />
<glyph unicode="&#x200a;" horiz-adv-x="112" />
<glyph unicode="&#x2010;" horiz-adv-x="674" d="M90 387v244h492v-244h-492z" />
<glyph unicode="&#x2011;" horiz-adv-x="674" d="M90 387v244h492v-244h-492z" />
<glyph unicode="&#x2012;" horiz-adv-x="674" d="M90 387v244h492v-244h-492z" />
<glyph unicode="&#x2013;" horiz-adv-x="1024" d="M0 426v166h1024v-166h-1024z" />
<glyph unicode="&#x2014;" horiz-adv-x="2048" d="M0 426v166h2048v-166h-2048z" />
<glyph unicode="&#x2018;" horiz-adv-x="645" d="M121 1059q0 125 81 238t247 219l47 -78q-92 -62 -136.5 -123t-44.5 -125l1 -16q16 3 28.5 4.5t24.5 1.5q66 0 107.5 -45.5t41.5 -118.5q0 -89 -52.5 -143t-139.5 -54q-96 0 -150.5 63.5t-54.5 176.5z" />
<glyph unicode="&#x2019;" horiz-adv-x="645" d="M121 1319q0 89 52.5 143t139.5 54q96 0 151.5 -65t55.5 -177q0 -125 -81 -237t-246 -218l-48 76q92 62 136.5 123t44.5 125l-1 16q-16 -3 -28.5 -4.5t-24.5 -1.5q-66 0 -108.5 46.5t-42.5 119.5z" />
<glyph unicode="&#x201a;" horiz-adv-x="645" d="M129 147q0 90 52.5 144.5t140.5 54.5q95 0 149.5 -64t54.5 -178q0 -125 -80 -237t-245 -217l-47 76q91 62 135.5 123t44.5 124v16q-16 -2 -28.5 -3.5t-24.5 -1.5q-67 0 -109.5 45.5t-42.5 117.5z" />
<glyph unicode="&#x201c;" horiz-adv-x="1169" d="M121 1059q0 125 81 238t247 219l47 -78q-92 -62 -136.5 -123t-44.5 -125l1 -16q16 3 28.5 4.5t24.5 1.5q66 0 107.5 -45.5t41.5 -118.5q0 -89 -52.5 -143t-139.5 -54q-96 0 -150.5 63.5t-54.5 176.5zM643 1059q0 125 81 238t247 219l47 -78q-92 -62 -136 -123t-44 -125 v-16q17 3 28.5 4.5t22.5 1.5q67 0 109 -45.5t42 -118.5q0 -89 -52.5 -143t-139.5 -54q-96 0 -150.5 63.5t-54.5 176.5z" />
<glyph unicode="&#x201d;" horiz-adv-x="1169" d="M121 1319q0 89 52.5 143t139.5 54q96 0 151.5 -65t55.5 -177q0 -125 -81 -237t-246 -218l-48 76q92 62 136.5 123t44.5 125l-1 16q-16 -3 -28.5 -4.5t-24.5 -1.5q-66 0 -108.5 46.5t-42.5 119.5zM643 1319q0 89 52.5 143t140.5 54q95 0 149.5 -64.5t54.5 -177.5 q0 -125 -81 -237t-246 -218l-47 76q91 62 135.5 123t44.5 125l-1 16q-15 -3 -28 -4.5t-24 -1.5q-67 0 -108.5 46t-41.5 120z" />
<glyph unicode="&#x201e;" horiz-adv-x="1169" d="M129 147q0 90 52.5 144.5t140.5 54.5q95 0 149.5 -64t54.5 -178q0 -125 -80 -237t-245 -217l-47 76q91 62 135.5 123t44.5 124v16q-16 -2 -28.5 -3.5t-24.5 -1.5q-67 0 -109.5 45.5t-42.5 117.5zM649 147q0 90 53.5 144.5t141.5 54.5q95 0 150 -64t55 -178 q0 -124 -81 -236.5t-247 -217.5l-47 76q91 62 135.5 123t44.5 124v16q-17 -3 -29 -4t-24 -1q-67 0 -109.5 45.5t-42.5 117.5z" />
<glyph unicode="&#x2022;" horiz-adv-x="1208" d="M307 762q0 123 87 209t210 86q122 0 208.5 -86.5t86.5 -208.5t-87.5 -209.5t-209.5 -87.5q-123 0 -209 87t-86 210z" />
<glyph unicode="&#x2026;" horiz-adv-x="2048" d="M149 164q0 78 57 135t134 57q78 0 135 -56.5t57 -135.5t-56.5 -136t-135.5 -57q-78 0 -134.5 57t-56.5 136zM831 164q0 78 57 135t134 57q78 0 135 -56.5t57 -135.5t-56.5 -136t-135.5 -57q-78 0 -134.5 57t-56.5 136zM1515 164q0 78 57 135t134 57q78 0 135 -56.5 t57 -135.5t-56.5 -136t-135.5 -57q-78 0 -134.5 57t-56.5 136z" />
<glyph unicode="&#x202f;" horiz-adv-x="403" />
<glyph unicode="&#x2039;" horiz-adv-x="647" d="M57 498v22q144 105 283 237t160 132q6 0 11 -6.5t5 -16.5q0 -26 -58.5 -122t-158.5 -234q100 -138 158.5 -234t58.5 -122q0 -10 -5 -16.5t-11 -6.5q-22 0 -161 131.5t-282 235.5z" />
<glyph unicode="&#x203a;" horiz-adv-x="647" d="M123 154q0 26 58.5 122t158.5 234q-100 138 -158.5 234t-58.5 122q0 10 5 16.5t11 6.5q22 0 161 -132.5t282 -236.5v-20q-144 -106 -283 -237.5t-160 -131.5q-6 0 -11 6.5t-5 16.5z" />
<glyph unicode="&#x205f;" horiz-adv-x="504" />
<glyph unicode="&#x2122;" horiz-adv-x="1683" d="M225 1262l13 192h450l12 -192h-32q-8 79 -39.5 115t-91.5 36h-7v-420q1 -23 9.5 -35.5t25.5 -15.5l31 -4v-33h-266v33l30 4q17 3 26 16t9 35v420h-10q-59 0 -89 -36t-38 -115h-33zM758 905v33l34 4q19 3 28 16t9 35v373q0 23 -9 35.5t-27 15.5l-35 4v33h211l131 -369 l129 369h198v-27l-27 -4q-19 -3 -27.5 -15t-8.5 -36v-379q0 -24 9 -36t28 -15l26 -4v-33h-253v33l30 4q18 3 27.5 16t9.5 35v365l-156 -455h-36l-166 463v-373q0 -22 9 -35t28 -16l34 -4v-33h-196z" />
<glyph unicode="&#xe000;" horiz-adv-x="975" d="M0 0v975h975v-975h-975z" />
</font>
</defs>
</svg>
